<svg width="385" height="385" viewBox="0 0 385 385" fill="none" xmlns="http://www.w3.org/2000/svg">
<path d="M119.294 74.1695C53.9525 114.687 33.8254 200.508 74.3388 265.856C114.852 331.205 200.665 351.334 266.006 310.816C331.347 270.299 351.475 184.477 310.961 119.129C270.448 53.7811 184.635 33.6519 119.294 74.1695Z" fill="#8D705C"/>
<path opacity="0.72" d="M53.7178 201.656C54.2033 201.656 54.7292 201.656 55.2147 201.656C54.7697 202.303 54.3247 202.991 53.8797 203.638C55.7406 226.821 63.3867 248.831 75.6851 267.928C100.727 280.349 135.195 280.916 158.174 282.332L301.346 278.448C301.71 278.407 302.033 278.286 302.397 278.246C314.453 262.831 323.434 244.664 328.208 224.353C337.877 183.125 328.087 141.897 304.906 110.217C279.055 101.761 254.296 94.7612 226.099 92.6573C198.589 90.5939 170.149 92.7383 142.558 92.7383C133.82 92.7383 124.798 92.01 116.302 94.033C104.044 96.9461 96.3983 105.726 85.9204 112.159C82.3198 114.344 79.0834 115.8 75.8874 116.812C67.3918 129.921 60.9594 144.688 57.1565 160.791C53.9201 174.548 52.8683 188.304 53.7583 201.736L53.7178 201.656Z" fill="#5C2000"/>
<path opacity="0.89" d="M91.7864 288.482C101.617 290.869 112.338 290.869 123.22 290.384C131.595 289.979 141.263 291.638 149.799 290.788C152.025 290.586 153.4 293.701 155.908 293.256C158.133 292.892 159.428 288.401 162.341 287.835C167.155 286.945 172.131 288.239 176.986 287.147C188.475 284.517 192.075 282.575 203.363 283.546C215.459 284.598 227.353 286.742 239.651 288.32C247.702 289.372 253.932 286.823 261.902 287.268C269.305 287.673 274.888 292.649 282.412 292.771C284.435 292.771 287.348 292.407 290.342 291.759C297.421 284.8 303.854 277.032 309.356 268.576L305.31 268.98C290.301 252.19 284.718 268.859 268.819 268.171C258.706 267.726 242.159 244.826 236.293 262.79C234.23 261.94 231.236 262.305 229.699 261.738C229.254 263.033 229.335 264.166 228.728 265.541C215.863 262.831 179.737 242.682 168.328 252.19C159.873 259.23 169.097 261.455 157.648 264.894C154.047 265.946 140.373 265.744 135.802 263.599C131.069 270.032 109.344 269.142 101.698 267.726C94.0923 266.351 79.6093 254.496 73.541 256.964C73.1769 254.01 70.345 251.461 69.8595 248.832C68.4436 249.317 67.2299 249.924 66.1781 250.571C72.57 264.53 81.268 277.396 91.8673 288.563L91.7864 288.482Z" fill="#96C4D1"/>
<path opacity="0.72" d="M57.7633 226.983C58.8152 231.07 60.0288 235.116 61.4448 239.081C64.8835 238.757 68.2817 238.11 71.8014 239.364C77.3438 241.387 81.187 249.236 87.134 251.421C103.559 257.49 122.371 252.23 138.755 251.34C143.61 251.057 148.384 253.808 153.521 252.675C158.336 251.583 159.873 247.942 163.595 246.485C173.223 242.682 185.967 240.578 196.566 242.318C201.582 243.127 206.518 246.89 211.656 246.08C217.724 245.109 220.232 238.069 227.798 238.474C234.028 238.798 234.918 243.451 240.015 244.988C246.003 246.809 250.534 244.462 256.238 245.028C261.456 245.554 265.947 249.479 270.397 249.803C276.465 250.248 281.158 246.97 286.62 246.93C300.172 246.849 308.83 252.513 317.609 253.97C321.452 246.161 324.567 237.908 326.954 229.209C319.631 232.365 311.581 236.613 306.726 235.642C308.061 224.435 292.324 222.169 284.84 225.365C283.667 200.806 249.967 226.862 241.431 226.822C232.652 226.822 195.474 196.558 191.428 216.383C188.677 211.366 182.204 209.626 177.552 214.036C173.223 210.557 160.116 209.181 154.614 211.245C147.251 213.955 144.298 224.313 136.287 225.567C124.596 227.348 107.645 208.898 99.1493 227.712C98.3401 216.423 70.7495 217.516 57.8442 226.983L57.7633 226.983Z" fill="#96C4D1"/>
<path opacity="0.83" d="M54.1628 207.078C76.7774 209.95 99.2706 204.933 121.278 199.593C130.907 197.246 164.849 199.997 166.063 193.443C170.594 195.668 177.592 197.205 182.73 195.951C185.036 195.385 189.486 189.68 190.579 189.72C196.081 189.923 197.132 195.911 203.241 197.812C210.847 200.119 213.84 195.263 220.556 194.454C231.722 193.119 240.905 196.801 252.799 194.657C268.819 191.743 274.928 191.986 297.341 193.362C307.212 192.35 320.845 199.39 331.606 198.622C332.213 185.068 330.797 171.716 327.642 158.971C314.615 156.26 299.727 157.434 287.024 154.318C263.52 148.573 234.594 146.105 209.593 149.463C194.907 151.405 187.909 154.035 175.084 147.926C168.045 144.567 159.832 139.186 150.568 145.498C146.28 134.493 134.062 144.406 126.052 144.689C118.123 144.932 112.783 143.516 103.114 145.66C89.3186 148.735 71.68 151.85 57.4802 158.89C57.3183 159.538 57.1161 160.144 56.9947 160.792C53.3132 176.409 52.5042 192.027 54.0819 207.118L54.1628 207.078Z" fill="#96C4D1"/>
<path opacity="0.72" d="M71.9228 123.164C84.0189 124.297 100.039 113.575 109.304 113.373C114.32 122.962 140.98 107.385 151.782 109.246C159.549 110.581 164.606 117.904 171.443 118.35C178.563 118.795 189.527 112.442 197.132 111.229C203.484 110.217 210.847 107.87 216.915 110.5C219.585 111.633 222.781 117.864 225.33 118.43C229.82 119.401 229.942 116.246 234.635 115.234C250.412 111.795 279.136 101.842 295.237 115.76C298.392 115.356 302.559 114.223 306.605 112.645C300.496 103.905 293.376 95.8945 285.406 88.7331C277.962 89.9469 270.923 92.5363 265.907 96.2585C264.086 87.9239 255.955 88.0453 248.834 87.3574C244.708 86.9528 240.905 88.6117 237.75 88.1666C233.259 87.5193 227.029 84.7276 222.417 83.4329C207.61 79.225 195.797 81.0053 180.465 83.6757C173.547 84.8894 158.942 90.6347 152.753 89.3804C147.291 88.2475 143.246 81.8954 136.004 79.7915C129.653 77.9304 121.562 77.5662 113.956 77.809C96.9647 89.4613 82.5221 104.917 71.9632 123.245L71.9228 123.164Z" fill="#96C4D1"/>
<path opacity="0.72" d="M257.451 113.332C271.004 105.645 312.552 111.35 293.902 134.331C283.302 147.359 248.106 149.18 237.102 136.233C225.128 122.153 241.876 119.725 253.568 115.922L257.451 113.332Z" fill="#F2902B"/>
<path opacity="0.72" d="M114.28 109.448C119.66 114.303 127.144 110.5 133.415 107.951C133.779 106.009 133.86 103.905 133.415 101.963C126.578 98.8881 118.892 97.553 113.026 103.015L114.32 109.448L114.28 109.448Z" fill="#F2902B"/>
<path opacity="0.72" d="M63.9935 145.579C59.7052 155.815 74.876 155.046 79.5284 148.613C77.2629 165.647 100.525 165.323 109.101 156.462C117.799 161.236 127.711 157.514 134.912 151.283C141.789 161.601 153.724 158.121 162.948 153.468C168.652 172.565 214.69 162.612 225.249 152.052C243.252 134.007 188.111 133.4 177.39 138.66C178.24 119.28 150.366 134.25 143.691 138.984C135.559 132.955 126.335 132.308 119.741 140.278C115.655 133.319 103.923 136.597 100.484 142.908C94.0924 130.892 64.3172 124.742 64.034 145.579L63.9935 145.579Z" fill="#F2902B"/>
<path opacity="0.72" d="M60.3525 235.966C65.5712 239 71.8014 238.312 75.5233 229.209C83.0075 235.642 102.143 250.491 107.483 233.74C118.285 241.954 120.469 232.769 129.167 231.353C136.894 230.099 139.119 233.579 147.17 235.237C160.035 237.867 160.156 231.03 171.524 226.741C183.863 222.088 189.931 230.301 200.692 233.619C212.95 237.422 216.834 229.371 226.463 229.29C233.097 229.29 236.779 236.856 244.182 235.682C247.985 235.076 250.938 229.047 254.862 228.319C258.908 227.55 260.85 230.342 263.803 230.423C272.663 230.706 283.343 230.099 297.381 230.706C290.868 243.37 311.5 248.144 318.377 238.596C319.874 239.769 321.411 240.699 322.949 241.347C325.012 235.844 326.752 230.18 328.127 224.313C329.745 217.395 330.838 210.436 331.364 203.557C321.331 199.795 308.385 201.211 300.213 206.026C292.85 195.021 285.285 197.408 274.402 198.743C265.664 199.795 253.285 199.876 243.171 205.661C237.669 183.49 213.112 204.245 201.259 204.933C189.931 205.621 181.759 196.558 168.53 199.39C158.821 201.454 154.978 204.448 143.772 203.881C140.131 203.679 137.056 201.777 133.375 202.263C127.347 203.032 123.989 208.372 119.377 209.262C111.812 210.719 112.54 207.684 104.651 205.055C91.5032 200.644 89.7636 207.806 80.7825 211.366C70.8305 215.291 72.4082 210.152 62.6585 211.366C59.3007 211.771 56.8329 212.701 55.0528 214.036C56.226 221.522 57.9656 228.885 60.312 236.006L60.3525 235.966Z" fill="#F2902B"/>
<g style="mix-blend-mode:overlay" opacity="0.83">
<path d="M53.7987 182.397C56.8733 184.015 60.1502 185.553 62.7798 187.818C63.9126 183.287 64.6408 178.108 64.3171 173.334C79.4879 171.756 88.1859 190.731 105.379 189.194C105.905 185.634 107.079 182.842 105.824 179.16C111.043 178.472 116.586 179.807 121.117 181.143C120.874 179.484 121.764 177.339 121.562 175.68C131.797 174.224 170.432 194.616 170.189 177.987C180.06 180.455 205.304 197.205 208.905 177.946C214.528 183.085 222.579 182.72 221.689 174.79C230.629 178.229 240.096 180.091 244.303 170.987C251.909 174.305 280.026 195.465 281.846 175.64C286.256 179.322 299.04 190.165 301.952 179.12C305.715 183.57 312.916 184.137 315.95 170.906C313.846 178.149 324.769 188.83 331.849 188.425C331.606 180.778 330.757 173.253 329.3 165.849C323.556 160.791 315.707 157.19 309.032 157.19C305.472 169.167 293.416 156.584 285.892 154.075C271.409 149.26 269.022 154.358 277.436 163.907C276.789 164.392 275.05 165.808 274.443 166.334C266.635 161.034 259.029 156.745 248.996 154.803C246.164 163.745 243.939 163.34 234.351 161.884C230.265 161.277 227.393 156.341 221.851 157.15C217.401 157.797 214.366 163.704 210.766 165.687C200.854 171.189 192.52 172.282 182.164 167.953C176.257 165.485 166.912 153.225 164.04 163.704C157.688 166.294 151.903 162.612 148.829 158.202C149.88 167.993 131.959 171.149 125.526 163.138C125.729 164.352 125.769 165.727 125.85 166.941C116.505 163.704 98.9874 160.306 101.051 173.051C93.971 165.04 87.2958 158.809 78.4361 169.773C74.5524 162.814 66.9872 161.762 58.6534 160.589C58.1679 162.693 57.2374 164.433 56.0642 166.051C55.0124 171.513 54.2842 176.935 53.8796 182.356L53.7987 182.397Z" fill="#205673"/>
</g>
<g style="mix-blend-mode:overlay" opacity="0.83">
<path d="M279.338 275.859C281.442 283.182 294.832 285.164 292.365 276.101C297.705 276.91 302.276 274.402 303.975 269.385C299.121 261.657 287.024 266.108 280.309 267.767C276.668 268.657 272.825 271.934 268.981 272.096C265.421 272.217 263.965 267.928 258.706 268.859C253.042 264.206 238.437 269.183 230.994 269.466C220.354 269.871 207.449 261.576 198.265 266.634C196.404 258.016 185.764 259.472 181.031 265.299C167.236 256.236 164.363 266.027 153.521 269.264C150.811 270.073 145.349 266.957 141.708 267.038C138.229 267.119 132.646 269.385 129.41 269.709C128.358 269.79 126.619 266.715 124.555 266.957C122.168 267.2 118.042 270.68 116.221 270.68C112.014 270.68 109.83 269.345 105.056 268.333C97.9356 266.836 85.1517 260.039 81.9153 269.345C87.1745 277.477 101.941 278.529 110.032 278.367C113.956 278.286 120.267 276.061 123.746 276.384C127.347 276.749 128.358 279.014 130.988 279.378C141.061 280.754 145.471 276.546 154.978 275.859C162.664 275.292 169.259 279.945 177.188 279.702C182.852 279.54 189.85 277.76 195.474 276.951C211.494 274.645 225.653 282.575 242.038 275.939C246.407 281.401 277.072 279.662 279.378 275.778L279.338 275.859Z" fill="#205673"/>
</g>
<path opacity="0.72" d="M145.269 73.3584C160.682 72.8325 172.212 81.1671 186.493 81.1267C199.115 81.0458 212.02 78.5373 225.168 78.5373C238.154 78.5373 253.891 87.4788 264.936 84.768C266.473 81.3694 269.103 79.4274 272.38 78.4563C269.062 76.1501 265.664 73.9653 262.144 71.9019C258.867 72.7111 255.671 73.6821 252.597 73.6821C247.985 73.6821 241.876 71.4164 236.172 70.1217C206.154 63.4054 181.112 64.8619 151.054 66.8849C147.534 67.1276 141.466 66.3589 134.912 65.8734C128.763 68.7056 122.816 71.9423 117.112 75.6242C126.497 75.0982 135.681 73.6821 145.269 73.3584Z" fill="#C6AA89"/>
<path opacity="0.72" d="M179.777 298.233C170.27 298.84 163.959 300.66 154.33 299.204C141.344 297.262 132.242 300.741 119.782 300.822C112.216 300.822 106.917 297.423 100.322 295.805C100.322 296.169 100.403 296.533 100.444 296.898C105.177 301.065 110.194 304.949 115.493 308.469C130.138 311.908 151.256 310.249 159.468 309.804C185.077 308.429 208.5 311.787 221.325 312.394C229.214 311.787 237.305 308.307 245.234 308.469C251.1 308.59 257.371 311.18 263.924 312.11C268.941 309.116 273.795 305.799 278.407 302.198C274.726 301.834 271.692 300.822 270.114 298.435C248.066 290.667 223.064 299.608 199.479 299.568C192.116 299.568 186.857 297.788 179.777 298.233Z" fill="#C6AA89"/>
<path opacity="0.72" d="M77.9102 125.551C81.3085 118.107 88.7927 120.817 95.306 119.927C97.5715 119.604 99.3516 118.875 101.213 117.581C102.669 116.529 103.923 115.153 105.501 114.303C108.495 112.685 111.326 113.13 114.32 114.182C120.591 116.326 126.254 116.326 132.768 114.991C140.373 113.454 147.413 111.269 155.18 113.575C162.341 115.679 168.935 117.459 176.5 117.5C184.429 117.5 192.318 116.812 200.247 116.812C208.015 116.812 215.985 118.107 223.024 121.627C229.699 124.985 234.513 130.406 239.085 136.152C242.362 140.238 245.517 144.81 250.25 147.44C255.752 150.515 261.982 150.029 267.97 148.896C268.739 148.734 268.577 147.48 267.768 147.521C261.214 147.885 254.255 147.723 249.037 143.272C244.587 139.469 241.391 134.169 237.588 129.759C227.838 118.43 214.366 113.494 199.6 113.98C191.347 114.222 183.337 116.367 175.044 116.124C170.998 116.003 166.953 115.558 163.069 114.344C158.902 113.049 154.937 111.107 150.568 110.46C144.176 109.57 138.31 111.39 132.12 112.604C127.832 113.454 122.897 114.222 118.608 113.049C115.21 112.119 112.257 110.419 108.616 110.743C105.46 111.026 103.316 112.766 100.889 114.667C97.0052 117.742 93.3642 117.621 88.6713 117.621C82.8458 117.621 77.8293 118.754 75.7256 124.782C75.2806 126.037 77.3034 126.927 77.8697 125.672L77.9102 125.551Z" fill="#EDD8AB"/>
<path opacity="0.72" d="M248.592 134.209C255.469 140.966 269.062 141.533 277.962 140.643C287.267 139.752 300.617 135.342 297.502 123.609C297.502 123.488 297.3 123.528 297.3 123.609C298.878 143.07 265.623 140.885 254.62 135.626C252.03 134.371 248.511 132.348 248.187 129.152C247.783 125.47 251.869 121.991 254.7 120.332C259.676 117.5 290.099 108.073 288.926 120.049C288.278 126.441 276.83 128.343 271.975 128.505C269.548 128.586 264.288 128.707 262.468 126.644C261.214 125.187 261.942 126.198 262.832 124.782C263.803 123.245 266.149 122.193 267.808 121.586C270.68 120.534 273.755 120.494 276.789 120.696C278.003 120.777 277.962 118.956 276.789 118.794C269.912 117.985 263.641 120.008 259.555 125.713C259.312 126.077 259.434 126.644 259.717 126.927C264.127 131.377 271.732 131.013 277.436 129.84C282.17 128.869 289.533 126.482 290.868 121.06C292.243 115.396 286.66 112.564 282.008 112.199C274.16 111.552 265.502 113.737 258.18 116.448C251.545 118.916 241.188 126.886 248.632 134.209L248.592 134.209Z" fill="#EDD8AB"/>
<path opacity="0.72" d="M86.2845 118.511C90.7346 116.772 94.6992 114.425 98.947 112.361C102.143 110.784 106.108 109.044 109.627 110.945C111.286 111.835 112.5 114.101 114.158 115.153C119.215 118.309 125.607 117.702 131.271 116.893C142.437 115.275 152.227 109.327 163.676 113.09C172.293 115.922 176.096 120.372 185.603 118.795C194.058 117.378 206.761 107.628 215.297 110.298C220.597 111.957 224.318 117.54 230.71 116.852C232.774 116.65 233.906 115.679 235.727 114.749C241.391 111.916 246.731 111.229 253.001 111.107C263.358 110.945 273.067 108.194 282.453 103.865C283.424 103.42 282.777 102.166 281.967 102.044C276.02 101.276 271.934 103.015 266.23 104.553C259.515 106.373 253.568 105.807 246.771 106.333C238.356 106.98 232.086 113.697 224.157 109.448C219.626 107.021 217.401 104.108 212.02 104.472C200.854 105.2 190.821 114.83 179.453 113.494C175.529 113.049 172.01 110.217 168.49 108.68C164.121 106.778 159.509 105.564 154.735 105.443C146.118 105.241 137.987 109.327 129.653 110.945C123.301 112.2 118.123 113.211 112.783 109.206C111.326 108.113 110.8 106.98 109.142 106.333C101.091 103.258 91.0986 112.078 85.2326 116.043C84.0189 116.852 84.7471 119.118 86.2845 118.511Z" fill="#EDD8AB"/>
<path opacity="0.72" d="M175.934 117.662C183.297 123.205 189.567 118.835 197.739 116.933C203.363 115.639 206.437 114.384 210.887 118.633C212.91 120.575 213.598 122.679 216.551 123.771C219.99 125.066 223.226 123.609 226.746 123.447C232.935 123.164 233.947 126.401 237.264 131.175C240.824 136.273 243.858 142.585 248.996 146.307C254.498 150.313 261.254 150.394 267.768 149.989C271.085 149.787 274.402 148.856 277.396 150.596C280.713 152.497 280.026 155.653 282.17 158.364C287.065 164.554 292.567 159.578 298.271 158.364C308.911 156.139 317.285 159.618 326.913 162.976C327.439 163.138 327.884 162.612 327.763 162.127C325.983 154.844 317.892 151.81 311.136 150.798C306.888 150.151 302.519 150.029 298.271 150.434C295.115 150.717 290.544 153.145 288.157 151.243C286.741 150.11 285.973 146.752 284.071 145.215C282.048 143.556 279.702 142.059 277.153 141.492C268.941 139.672 259.798 144.972 252.718 138.579C247.014 133.441 244.223 125.268 239.206 119.482C234.958 114.587 229.416 114.789 223.55 115.76C220.313 116.286 219.504 117.014 216.713 114.627C216.227 114.223 215.823 113.13 215.337 112.604C213.719 110.864 210.361 109.367 207.974 109.003C195.514 107.264 190.498 125.228 176.5 116.772C175.934 116.407 175.448 117.257 175.974 117.662L175.934 117.662Z" fill="#EDD8AB"/>
<path opacity="0.72" d="M60.4739 201.737C67.3918 208.696 80.2971 206.754 88.2263 203.153C94.6588 200.24 100.161 195.263 107.159 193.604C114.077 191.986 119.094 195.344 125.688 196.517C131.352 197.488 136.692 196.032 142.153 194.656C149.112 192.876 155.059 192.229 162.26 192.229C168.975 192.229 174.761 189.639 181.193 187.9C190.093 185.512 195.029 187.495 202.513 191.298C213.072 196.679 223.105 190.084 233.502 187.414C242.321 185.148 248.268 188.992 256.076 192.107C261.861 194.373 266.797 194.818 273.027 194.211C288.966 192.674 305.027 189.478 320.683 194.616C320.683 194.616 320.724 194.616 320.683 194.575C309.558 189.154 299.97 185.634 287.429 186.564C281.563 187.009 275.616 187.738 269.79 188.628C265.623 189.275 262.225 190.327 258.018 189.356C254.7 188.547 252.475 186.888 249.522 185.351C239.206 180.01 230.549 183.368 220.313 187.131C216.308 188.587 211.98 190.408 207.691 189.275C204.819 188.547 203.646 186.969 201.259 185.432C198.387 183.53 195.474 182.397 191.995 181.952C186.816 181.305 181.962 182.599 177.066 184.096C169.259 186.443 162.786 186.726 154.654 187.131C142.032 187.778 133.779 196.275 120.793 191.46C112.702 188.466 106.472 188.264 98.4211 192.107C92.8383 194.818 87.8218 198.945 81.6726 200.402C77.7484 201.332 73.2174 201.13 69.4146 199.754C61.2426 196.841 65.0049 191.258 69.0505 186.767C70.1428 185.553 69.0909 183.125 67.3109 183.773C59.7457 186.605 53.1515 194.373 60.393 201.696L60.4739 201.737Z" fill="#EDD8AB"/>
<path opacity="0.72" d="M78.072 272.055C78.7193 272.743 79.407 273.391 80.0543 274.038C80.6611 274.645 81.1466 275.656 81.9153 276.02C82.1175 276.142 82.3198 275.94 82.2793 275.737C82.158 274.847 81.1062 273.957 80.4993 273.35C79.8116 272.662 79.1238 272.177 78.2338 271.813C78.1124 271.772 78.0315 271.934 78.1124 272.015L78.072 272.055Z" fill="#EDD8AB"/>
<path opacity="0.72" d="M87.134 278.57C89.1163 279.905 91.3414 280.269 93.6878 279.864C93.8496 279.864 93.7687 279.622 93.6069 279.622C91.3414 280.026 89.1973 279.622 87.2554 278.327C87.0936 278.205 86.9317 278.489 87.0936 278.57L87.134 278.57Z" fill="#EDD8AB"/>
<path opacity="0.72" d="M129.653 282.372C141.102 292.528 150.366 287.713 163.554 283.708C174.356 280.43 183.903 284.355 194.745 283.991C202.958 283.708 211.009 281.401 219.1 280.188C229.254 278.65 239.651 280.633 250.008 279.945C260 279.298 266.878 280.471 275.94 284.395C283.343 287.592 296.815 291.84 298.999 280.228C299.242 278.974 297.826 277.436 296.572 278.367C289.978 283.101 285.082 284.234 277.072 281.766C272.541 280.35 268.293 278.003 263.601 277.194C257.128 276.101 249.765 277.477 243.292 278.165C234.837 279.014 227.069 277.234 218.695 277.356C211.17 277.477 203.929 280.309 196.445 280.916C188.96 281.523 181.759 279.378 174.315 279.338C167.802 279.338 162.26 281.604 156.232 283.789C146.482 287.349 139.2 286.985 129.774 282.292C129.653 282.251 129.531 282.373 129.612 282.494L129.653 282.372Z" fill="#EDD8AB"/>
<path opacity="0.72" d="M114.199 305.637C124.96 310.897 133.132 306.163 143.731 303.169C152.631 300.701 158.619 304.585 166.548 307.741C172.819 310.249 178.563 310.249 185.036 308.833C195.555 306.567 204.495 305.88 215.216 307.296C222.134 308.186 229.375 309.44 236.334 308.469C240.217 307.943 243.413 306.365 247.095 305.192C253.406 303.128 256.926 303.776 263.075 305.596C267.403 306.851 270.074 306.487 273.431 303.493C275.535 301.631 273.27 298.395 270.802 299.001C263.965 300.62 258.382 296.817 251.585 297.221C244.748 297.626 238.882 301.47 232.045 302.117C216.753 303.614 203.079 298.03 187.666 302.076C178.321 304.544 172.657 303.533 163.918 300.175C159.064 298.314 156.111 297.747 151.135 298.759C137.906 301.429 128.277 310.087 114.199 305.354C114.037 305.313 113.916 305.556 114.077 305.637L114.199 305.637Z" fill="#EDD8AB"/>
<path opacity="0.72" d="M82.0366 265.784C92.6764 265.987 98.7852 274.24 108.737 275.899C119.782 277.72 128.682 269.588 140.131 272.501C148.464 274.645 153.279 274.24 160.763 269.992C165.982 267.039 169.542 269.628 175.003 269.062C178.442 268.697 181.193 266.674 184.025 264.894C191.064 260.444 195.838 259.554 203.686 263.397C208.015 265.542 212.101 268.252 216.794 269.507C224.359 271.53 231.034 270.154 238.276 267.929C248.834 264.651 256.278 269.507 266.635 271.246C276.223 272.865 285.487 271.53 294.913 269.588C295.115 269.588 295.035 269.264 294.832 269.304C281.239 271.61 269.548 271.975 256.885 265.987C250.534 262.993 246.003 261.779 239.044 263.599C234.837 264.692 230.629 266.877 226.139 266.634C220.111 266.31 215.054 261.738 210.159 258.744C202.675 254.091 194.786 250.693 186.209 254.577C182.447 256.317 179.17 260.12 175.205 261.293C171.119 262.507 166.993 260.12 162.826 261.293C158.295 262.548 155.827 266.998 151.135 268.171C146.199 269.426 141.547 266.674 136.773 265.946C125.931 264.287 116.1 273.067 105.622 268.859C97.2479 265.542 91.7459 259.23 82.0771 260.201C78.517 260.565 78.3552 265.825 82.0771 265.865L82.0366 265.784Z" fill="#EDD8AB"/>
<path opacity="0.72" d="M225.33 213.511C229.497 222.169 243.454 224.677 247.58 214.967C248.309 213.268 246.69 211.002 244.829 212.216C242.24 213.834 239.004 215.655 235.848 215.21C233.178 214.805 228.162 211.811 229.254 208.413C230.913 203.274 242.402 204.205 246.286 205.419C251.302 206.997 254.498 210.84 257.654 214.846C261.254 219.458 264.572 224.313 270.235 226.579C274.038 228.116 277.679 227.874 281.684 228.076C289.169 228.44 292.203 231.151 298.028 234.509C307.697 240.092 317.123 228.521 310.448 219.822C305.472 213.308 289.047 207.28 283.586 216.019C282.938 217.03 284.152 217.921 285.083 217.516C292.162 214.401 308.466 214.36 310.246 224.799C311.54 232.486 303.975 233.7 299.687 230.706C298.392 229.816 297.462 228.278 296.167 227.307C292.931 224.92 289.047 223.625 285.083 223.221C279.581 222.654 274.2 223.949 269.184 220.753C265.502 218.406 263.156 214.441 260.486 211.123C256.359 205.945 251.869 201.737 245.153 200.442C237.345 198.945 219.666 201.656 225.37 213.551L225.33 213.511Z" fill="#EDD8AB"/>
<path opacity="0.72" d="M116.181 225.365C117.192 223.909 115.817 222.088 114.28 222.047C110.355 221.886 102.507 221.319 108.049 215.331C110.032 213.187 117.921 212.013 120.227 213.389C120.955 213.834 122.088 216.747 122.897 217.556C126.174 220.631 131.311 221.481 135.478 222.492C140.98 223.828 150.851 224.313 144.459 231.434C143.731 232.243 143.327 233.7 144.055 234.671C152.995 246.485 169.299 242.075 179.17 233.538C180.141 232.688 179.898 230.827 178.766 230.22C175.367 228.521 167.762 224.07 171.322 219.094C175.003 213.996 186.938 216.343 191.145 218.77C198.063 222.735 202.392 229.735 209.512 233.619C209.916 233.821 210.28 233.336 209.997 233.012C200.005 221.643 189.972 204.69 171.767 213.308C161.329 218.285 166.953 227.469 173.951 232.243C166.912 237.22 154.978 241.306 149.597 233.538C152.955 229.209 154.29 224.273 148.667 220.753C144.217 218.001 126.457 217.597 125.688 211.568C125.526 210.314 124.919 209.181 123.584 208.817C114.806 206.47 100.08 206.915 100.484 219.539C100.727 227.793 110.922 232.81 116.181 225.365Z" fill="#EDD8AB"/>
<path opacity="0.72" d="M65.814 222.169C67.1086 227.065 71.0328 233.579 75.8874 235.561C81.1062 237.665 86.0013 233.538 85.6372 228.117C85.5158 226.336 83.0885 224.799 81.713 226.498C79.6093 229.128 78.9216 231.272 75.4019 228.804C73.6219 227.55 72.206 225.689 71.235 223.706C73.0151 223.706 74.8356 223.828 76.211 223.221C78.1934 222.371 79.2452 219.863 81.3489 218.973C85.3945 217.273 87.215 221.238 88.7523 224.394C90.9773 229.007 92.7978 236.411 98.7852 237.341C98.947 237.341 99.0684 237.179 98.9066 237.058C95.6297 234.833 94.5778 229.168 93.1214 225.729C91.8269 222.574 90.4918 218.851 87.8622 216.545C85.4754 214.482 82.6839 214.198 79.8116 215.331C78.0315 216.019 76.6156 218.002 74.9165 218.568C72.9342 219.256 69.5359 219.134 67.4322 219.418C66.2186 219.58 65.5713 221.157 65.8545 222.209L65.814 222.169Z" fill="#EDD8AB"/>
<path opacity="0.72" d="M294.468 147.48C302.64 149.665 311.055 143.475 314.291 136.233C315.788 132.875 316.233 128.141 313.482 125.228C312.309 123.973 310.569 123.488 308.83 123.893C306.767 124.378 306.888 125.673 306.038 127.291C305.877 127.615 306.038 128.019 306.443 128.019C307.212 128.019 307.98 128.06 308.708 128.303C309.356 127.655 309.599 127.777 309.477 128.748C309.639 129.314 309.76 129.84 309.841 130.447C310.044 132.794 309.234 135.1 307.899 136.961C306.767 138.498 305.351 139.834 303.732 140.845C299.282 137.123 294.266 139.024 292.971 144.81C292.729 145.943 293.295 147.157 294.468 147.48ZM301.669 141.938C300.375 142.504 299.04 142.909 297.664 143.111C298.392 141.776 299.889 141.735 301.669 141.938Z" fill="#EDD8AB"/>
<path opacity="0.72" d="M305.108 131.054C305.189 132.793 307.697 132.793 307.778 131.054C307.778 130.73 307.778 130.406 307.818 130.083C307.899 128.302 304.946 128.302 305.027 130.083L305.027 131.054L305.108 131.054Z" fill="#EDD8AB"/>
<path opacity="0.72" d="M116.95 110.986C118.77 111.835 120.672 112.442 122.694 111.835C123.382 111.633 124.029 111.269 124.636 110.824C124.879 110.783 125.162 110.743 125.405 110.703C125.607 110.703 126.578 110.703 125.769 110.622C126.214 110.581 126.619 110.5 127.064 110.46C128.601 110.055 129.45 109.246 130.421 108.073C130.502 107.992 130.583 107.87 130.624 107.789C130.826 107.466 131.028 106.94 131.15 106.576C132.04 103.824 130.057 101.599 127.711 100.669C127.023 100.385 126.214 100.426 125.486 100.669C124.272 100.709 123.058 100.992 121.966 101.154C120.712 101.356 119.417 101.559 118.163 101.761C116.222 102.044 114.765 104.229 114.522 106.009C114.28 107.87 115.129 110.217 116.95 111.067L116.95 110.986Z" fill="#EDD8AB"/>
<path opacity="0.72" d="M130.502 107.992C130.502 107.992 130.462 108.032 130.421 108.073L129.895 108.72C130.098 108.477 130.3 108.235 130.462 107.992L130.502 107.992Z" fill="#EDD8AB"/>
<path opacity="0.72" d="M166.305 104.877C169.582 105.524 177.795 106.94 179.979 103.096C182.609 102.247 181.84 98.403 179.534 97.5533C175.853 96.1777 169.906 95.7731 166.265 97.9579C163.271 99.0908 162.503 104.148 166.265 104.877L166.305 104.877Z" fill="#EDD8AB"/>
<path opacity="0.72" d="M123.301 91.2012C126.376 91.2012 126.376 86.427 123.301 86.427C120.227 86.427 120.227 91.2012 123.301 91.2012Z" fill="#EDD8AB"/>
<path opacity="0.72" d="M230.144 94.4379C235.767 97.9174 243.818 102.408 248.956 95.5708C249.441 94.9639 249.603 94.3165 249.603 93.7096C250.21 92.5768 250.048 91.1202 248.551 90.311C243.292 87.6003 236.657 86.7911 230.953 88.5308C228.283 89.34 227.798 92.9813 230.184 94.4379L230.144 94.4379Z" fill="#EDD8AB"/>
<path opacity="0.72" d="M193.734 156.017C198.872 156.017 198.872 148.006 193.734 148.006C188.596 148.006 188.596 156.017 193.734 156.017Z" fill="#EDD8AB"/>
<path opacity="0.72" d="M209.876 148.735C213.315 150.11 220.435 150.191 221.042 145.296C221.891 145.376 222.741 145.457 223.59 145.498C227.717 145.498 228.849 138.943 224.602 138.094C220.718 137.325 217.077 137.527 213.476 138.579C213.274 138.579 213.072 138.539 212.87 138.498C211.858 138.215 210.847 138.013 209.835 138.013C207.691 137.932 206.842 139.914 207.368 141.533C205.466 143.879 207.165 147.683 209.916 148.775L209.876 148.735Z" fill="#EDD8AB"/>
<path opacity="0.72" d="M192.075 156.907C193.734 157.11 195.595 156.665 197.173 155.896C198.386 155.774 199.519 155.329 200.571 154.561C201.663 153.751 202.351 152.497 201.987 151.122C201.906 150.838 201.785 150.596 201.623 150.312C201.623 150.231 201.623 150.191 201.623 150.11C201.097 148.209 198.71 147.885 197.173 148.006C195.11 148.128 193.127 148.896 191.104 149.301C191.104 149.301 191.104 149.301 191.104 149.341C189.85 149.706 188.758 150.636 188.394 151.971C187.666 154.561 189.689 156.543 192.116 156.867L192.075 156.907Z" fill="#EDD8AB"/>
<path opacity="0.72" d="M103.963 155.249C107.483 155.33 113.511 155.249 114.967 151.284C115.17 151.041 115.372 150.798 115.534 150.515C117.557 147.278 113.309 144.203 110.8 145.579C110.436 145.579 110.072 145.579 109.668 145.66C109.587 145.66 109.546 145.66 109.546 145.66C109.506 145.66 109.465 145.66 109.425 145.66C109.061 145.66 108.697 145.7 108.333 145.741C106.472 145.862 104.651 145.862 102.831 146.307C97.7334 147.481 99.0279 155.127 104.044 155.208L103.963 155.249Z" fill="#EDD8AB"/>
<path opacity="0.72" d="M138.432 146.874C138.472 148.168 139.16 149.018 140.171 149.503C141.142 150.353 142.356 150.96 143.691 150.879C145.188 150.798 146.28 150.434 147.413 149.423C148.829 148.168 148.829 145.538 147.413 144.284C146.361 143.354 145.107 142.868 143.691 142.828C142.315 142.828 141.142 143.354 140.171 144.244C139.16 144.689 138.391 145.619 138.432 146.833L138.432 146.874Z" fill="#EDD8AB"/>
<path opacity="0.72" d="M96.1556 175.519C99.0279 175.923 101.86 176.49 104.651 177.259C104.692 177.299 104.732 177.34 104.773 177.38C106.674 178.796 108.859 179.929 111.124 177.582C113.268 175.357 111.043 172.201 108.252 172.687C104.206 173.415 100.039 173.658 96.1556 174.952C95.9128 175.033 95.8319 175.478 96.1556 175.519Z" fill="#EDD8AB"/>
<path opacity="0.72" d="M105.379 176.976C105.824 176.895 105.824 176.126 105.379 176.045C100.12 174.912 95.0228 175.964 89.7636 176.49L89.7636 176.531C95.0228 177.057 100.08 178.109 105.379 176.976Z" fill="#EDD8AB"/>
<path opacity="0.72" d="M160.358 178.999C164.97 181.79 172.576 181.507 175.084 176.126C175.125 176.005 175.165 175.924 175.205 175.802C175.489 175.843 175.731 175.883 176.015 175.964C176.824 176.166 177.228 175.114 176.581 174.629C174.194 173.011 171.969 172.282 169.056 172.404C167.883 172.444 166.71 172.646 165.577 172.93C164.647 173.172 163.473 173.941 162.624 173.779C159.59 173.334 157.486 177.178 160.439 178.999L160.358 178.999Z" fill="#EDD8AB"/>
<path opacity="0.72" d="M213.153 174.71C214.164 174.75 215.256 173.739 215.378 172.808C215.459 172.404 215.135 171.999 214.69 172.12C214.164 172.282 213.84 172.646 213.395 172.93C213.234 173.01 213.031 172.97 213.153 173.051C212.95 172.97 212.829 172.565 212.748 172.363C212.505 171.837 211.656 172.12 211.696 172.646C211.696 173.577 212.02 174.629 213.153 174.71Z" fill="#EDD8AB"/>
<path opacity="0.72" d="M224.035 173.334C229.375 173.86 234.392 175.114 239.772 174.264C242.807 173.779 250.331 172.363 249.886 167.912C249.563 164.635 245.76 165.201 243.413 165.808C242.645 166.011 241.836 166.172 241.067 166.375C235.686 161.236 226.948 162.491 221.527 167.346C219.059 169.571 221.203 173.051 223.995 173.334L224.035 173.334Z" fill="#EDD8AB"/>
<path opacity="0.72" d="M278.974 177.057C280.349 177.502 281.725 177.299 283.019 176.773C283.424 176.612 283.667 176.49 283.99 176.247C284.112 176.166 284.192 176.045 284.314 175.924C284.314 175.924 284.395 175.924 284.435 175.964C285.244 176.247 285.851 175.681 286.013 174.993C286.013 175.155 286.053 175.115 286.094 174.831C286.094 174.67 286.094 174.467 286.094 174.305C286.094 174.224 286.053 174.144 286.013 174.063C286.175 173.82 286.296 173.537 286.418 173.253C286.701 172.485 286.337 171.635 285.851 171.109C285.244 170.421 284.354 170.178 283.464 170.219C283.383 170.219 283.343 170.219 283.262 170.219C283.141 170.219 282.979 170.219 282.736 170.178C281.199 169.895 279.702 170.624 278.246 171.271C277.113 171.797 276.546 173.294 276.749 174.427C276.951 175.721 277.801 176.652 279.014 177.057L278.974 177.057Z" fill="#EDD8AB"/>
<path opacity="0.72" d="M73.3792 174.871C75.321 176.611 77.7483 178.149 80.742 177.178C83.7358 176.207 86.1226 173.739 86.0417 170.502C86.0417 168.641 84.1403 166.982 82.2389 167.589C81.4703 167.831 80.7016 168.074 80.0139 168.519C79.407 168.964 78.9215 169.409 78.517 169.612C78.4361 169.612 78.0315 169.774 77.7888 169.895C77.7888 169.895 77.5056 169.895 77.3033 169.976C77.2629 169.976 77.2224 169.935 77.1415 169.895C74.1478 168.155 70.6686 172.363 73.3792 174.791L73.3792 174.871Z" fill="#EDD8AB"/>
<path opacity="0.72" d="M110.194 211.73C115.938 214.441 119.903 213.632 126.254 213.106C135.923 212.337 139.888 214.441 146.523 220.308C150.851 224.111 156.636 228.642 162.664 229.047C167.924 229.371 171.362 225.729 170.594 220.348C169.623 213.713 164.08 213.915 159.549 212.458C166.346 211.447 173.021 209.626 179.049 206.147C179.817 205.702 180.343 204.893 180.546 204.043C196.485 210.233 204.94 232.365 224.318 227.388C225.128 227.186 225.977 226.255 225.856 225.365C225.451 221.764 224.318 219.741 221.406 217.475C218.291 215.088 213.638 211.69 209.997 210.476C209.552 210.314 208.945 210.638 208.864 211.123C207.61 218.042 217.562 218.244 220.758 222.938C202.675 219.903 195.838 196.234 175.084 197.407C173.223 197.529 171.848 199.471 172.778 201.211C165.577 203.274 158.255 205.014 151.094 207.32C149.233 207.927 148.181 210.071 149.274 211.852C151.984 216.383 155.221 215.857 159.428 217.921C164.444 220.429 162.786 222.492 158.255 220.51C156.191 219.62 154.128 218.487 152.146 217.354C146.604 214.198 141.911 210.152 135.64 208.453C127.428 206.228 118.123 207.967 110.355 210.961C110.032 211.083 109.87 211.609 110.234 211.771L110.194 211.73Z" fill="#EDD8AB"/>
<path opacity="0.72" d="M294.913 212.782C304.663 208.655 319.834 211.366 322.423 223.14C322.625 223.99 324.001 223.828 323.96 222.938C323.717 208.979 304.299 204.852 294.67 212.499C294.509 212.62 294.711 212.863 294.873 212.782L294.913 212.782Z" fill="#EDD8AB"/>
<path opacity="0.72" d="M240.865 205.257C246.973 202.101 258.18 200.968 261.173 208.777C261.618 209.95 262.67 211.123 264.086 211.002C271.449 210.355 285.002 229.654 289.937 217.88C290.059 217.597 289.573 217.395 289.452 217.678C285.447 226.862 277.72 212.904 274.564 209.91C272.015 207.523 269.386 205.459 266.028 205.055C260.607 194.94 246.569 194.616 240.298 204.731C240.056 205.095 240.501 205.5 240.865 205.297L240.865 205.257Z" fill="#EDD8AB"/>
<path opacity="0.72" d="M279.459 244.988C282.21 241.468 286.863 240.901 290.949 240.375C291.515 240.295 291.879 239.526 291.272 239.202C288.845 237.786 285.932 237.786 283.383 238.798C280.754 239.849 279.904 242.277 279.216 244.866C279.216 244.988 279.378 245.15 279.459 245.028L279.459 244.988Z" fill="#EDD8AB"/>
<path opacity="0.72" d="M83.3312 242.682C90.5323 242.277 96.196 241.792 98.9875 250.207C99.1897 250.774 99.6752 251.178 100.282 251.178C105.824 251.34 106.998 251.542 111.529 248.346C114.118 246.525 116.221 242.803 120.227 246.283C121.926 247.739 121.642 250.612 123.342 251.947C133.577 259.917 137.501 240.901 141.83 238.191C147.494 234.63 151.135 242.398 154.937 244.624C158.538 246.728 162.098 245.837 165.82 244.26C173.83 240.942 178.766 232.607 186.614 242.56C190.457 247.415 192.723 249.115 199.196 249.115C200.814 249.115 202.472 247.658 202.351 245.959C201.259 227.631 222.66 246.363 231.439 245.959C232.571 245.918 233.583 245.19 233.906 244.057C238.276 228.197 256.157 240.74 265.583 245.15C269.507 247.011 273.512 247.82 277.76 248.71C279.378 249.034 281.118 249.236 282.696 249.843C285.002 250.733 289.411 255.669 285.528 257.773C283.1 259.108 276.506 250.693 275.575 248.67C275.535 248.548 275.333 248.67 275.414 248.751C277.194 252.068 282.979 260.889 287.753 259.675C290.989 258.825 290.868 254.051 289.816 251.542C286.863 244.502 276.951 244.219 270.964 241.832C264.046 239.081 258.099 234.387 250.898 232.041C245.234 230.18 238.154 228.925 233.178 233.214C231.236 234.913 230.387 240.295 229.092 241.144C228.728 241.387 222.498 238.838 220.516 237.948C210.119 233.214 196.161 228.238 195.919 242.965C190.417 241.63 185.522 231.07 177.916 231.919C169.461 232.85 170.998 247.132 159.549 244.098C154.169 242.682 152.348 235.52 147.129 233.376C142.113 231.313 137.541 232.324 135.276 237.098C133.658 240.497 131.392 253.12 125.85 247.496C124.636 246.283 124.717 243.936 123.139 242.52C119.579 239.364 113.349 239.04 109.87 242.277C108.535 243.531 108.049 246.566 106.836 247.456C101.293 251.34 101.698 243.208 99.3515 240.578C94.9419 235.601 87.6195 236.572 82.4816 239.566C81.1061 240.375 81.6321 242.763 83.3312 242.682Z" fill="#EDD8AB"/>
<path opacity="0.72" d="M142.639 69.8382C148.667 69.3122 153.279 70.4451 158.902 72.3467C161.613 73.2773 164.242 74.2079 167.155 73.8033C171.524 73.1964 184.268 63.8097 184.551 73.1559C184.551 74.2888 185.522 75.3407 186.695 75.3003C191.105 75.098 194.422 73.3177 198.67 72.3467C206.275 70.607 209.957 74.6125 216.632 75.5026C225.613 76.6759 234.351 69.7168 241.431 78.9012C242.159 79.8317 243.575 79.7508 244.506 79.3058C249.077 77.04 256.723 78.092 261.173 79.9936C261.335 80.0745 261.578 79.8317 261.376 79.7103C259.353 78.1324 256.966 76.2713 254.579 75.3812C251.707 74.3292 248.551 75.3812 245.8 74.5315C243.049 73.6819 241.188 70.9711 238.437 69.8787C235.808 68.8672 232.976 68.7863 230.184 68.9886C227.393 69.1909 224.723 70.0001 221.972 70.4451C216.915 71.2138 214.124 70.0405 209.431 68.5031C201.502 65.9541 196.121 70.0001 188.718 70.8902C187.828 63.8502 181.962 63.4456 175.165 65.8327C168.773 68.0985 165.456 68.5435 158.659 66.4801C152.591 64.6594 147.291 62.8387 141.789 66.7633C140.616 67.6129 140.818 70.0405 142.639 69.8787L142.639 69.8382Z" fill="#EDD8AB"/>
<path opacity="0.72" d="M178.766 325.867C180.991 326.028 183.539 325.179 185.117 323.641C185.845 322.913 185.845 321.618 185.117 320.89C183.539 319.353 180.991 318.503 178.766 318.665C176.824 318.827 175.165 320.202 175.165 322.266C175.165 324.329 176.824 325.705 178.766 325.867Z" fill="#EDD8AB"/>
<path opacity="0.72" d="M221.325 323.479C224.521 323.479 224.521 318.503 221.325 318.503C218.129 318.503 218.129 323.479 221.325 323.479Z" fill="#EDD8AB"/>
<path opacity="0.72" d="M145.592 314.538C146.401 317.492 149.516 317.977 152.146 318.301C153.238 318.422 154.371 318.543 155.463 318.463C157.122 318.341 158.214 317.775 159.671 317.127C161.936 316.116 161.491 311.989 158.942 311.584C157.891 311.423 156.879 311.099 155.787 311.018C154.775 310.978 153.764 311.018 152.793 310.897C150.811 310.613 148.99 309.642 147.089 310.897C145.875 311.665 145.228 313.122 145.592 314.538Z" fill="#EDD8AB"/>
<path opacity="0.72" d="M203.282 297.869C206.761 297.869 206.761 292.488 203.282 292.488C199.802 292.488 199.802 297.869 203.282 297.869Z" fill="#EDD8AB"/>
<path opacity="0.72" d="M268.213 298.557C271.409 297.788 271.813 293.297 269.103 291.719C268.455 291.315 267.727 291.072 267.039 290.789C267.97 291.153 266.716 290.586 266.23 290.505C265.704 290.384 265.138 290.343 264.572 290.303C262.306 290.02 260.041 291.355 259.717 293.702C259.029 298.354 264.895 299.447 268.253 298.638L268.213 298.557Z" fill="#EDD8AB"/>
<path opacity="0.72" d="M235.444 317.451C236.334 317.573 237.183 317.694 238.114 317.654C240.501 317.573 240.501 314.053 238.114 313.972C237.224 313.972 236.334 314.053 235.444 314.174C233.825 314.417 233.825 317.209 235.444 317.451Z" fill="#EDD8AB"/>
<path opacity="0.72" d="M214.366 302.158C218.655 307.701 228.243 307.862 233.461 303.371C234.796 302.886 235.97 302.036 236.981 300.903C238.599 299.083 238.64 295.765 236.172 294.551C229.456 291.233 223.145 292.245 216.349 294.753C212.991 295.967 212.303 299.447 214.407 302.158L214.366 302.158Z" fill="#EDD8AB"/>
<path opacity="0.72" d="M131.028 299.083C134.386 299.083 134.386 293.863 131.028 293.863C127.67 293.863 127.67 299.083 131.028 299.083Z" fill="#EDD8AB"/>
<path opacity="0.72" d="M189.244 323.196C194.826 329.427 205.911 328.901 211.737 323.237C212.991 322.023 213.638 319.919 213.072 318.26C212.222 315.752 210.564 314.821 208.703 314.781C208.339 313.891 207.61 313.203 206.599 312.92C200.49 311.22 195.838 313.001 190.295 315.428C187.18 316.763 187.383 321.093 189.284 323.196L189.244 323.196Z" fill="#EDD8AB"/>
<path opacity="0.72" d="M186.493 296.655C188.354 296.655 188.354 293.742 186.493 293.742C184.632 293.742 184.632 296.655 186.493 296.655Z" fill="#EDD8AB"/>
<path opacity="0.72" d="M159.751 289.534C160.116 291.921 162.341 294.51 165.051 294.227C167.114 293.984 168.894 293.418 170.472 292.528C171.807 293.216 173.385 293.458 174.801 293.256C180.262 292.609 181.112 286.014 176.055 283.87C175.246 283.546 174.477 283.222 173.709 282.979C173.385 282.777 173.061 282.615 172.738 282.575C171.524 282.332 170.351 282.251 169.178 282.332C167.276 282.413 165.375 282.979 163.595 283.586C161.087 284.476 159.306 286.742 159.711 289.493L159.751 289.534Z" fill="#EDD8AB"/>
<path opacity="0.72" d="M229.052 252.068C229.416 252.513 229.78 252.837 230.306 253.161C230.791 253.444 231.115 253.646 231.479 254.051C233.219 255.993 236.172 253.08 234.351 251.178C233.219 250.005 231.277 248.832 229.618 249.762C228.688 250.288 227.959 251.542 229.011 252.068L229.052 252.068Z" fill="#EDD8AB"/>
<path opacity="0.72" d="M240.217 253.768C240.501 252.149 239.813 250.855 238.235 250.288C235.646 249.358 233.825 250.612 231.358 250.814C230.023 250.936 228.688 250.045 227.272 249.884C227.069 249.803 226.867 249.722 226.624 249.681C225.128 249.398 223.186 250.086 222.902 251.785C221.284 261.536 238.761 262.386 240.217 253.768Z" fill="#EDD8AB"/>
<path opacity="0.72" d="M264.572 255.224C265.178 256.115 265.907 256.6 266.958 256.802C268.86 257.207 270.761 255.912 270.761 253.93C270.761 251.947 268.86 250.612 266.958 251.057C265.907 251.3 265.178 251.745 264.572 252.635C264.086 253.363 264.086 254.496 264.572 255.224Z" fill="#EDD8AB"/>
<path opacity="0.72" d="M111.326 267.039C113.956 268.9 117.637 269.021 120.752 268.333C122.573 267.929 125.243 266.634 126.214 264.773C126.619 265.016 127.064 265.258 127.589 265.42C129.45 265.987 131.756 264.045 130.947 262.062C129.612 258.704 126.133 257.126 122.613 257.166C120.833 257.166 118.892 257.531 117.192 258.097C115.534 258.663 113.794 260.241 112.176 260.606C108.94 261.293 108.98 265.501 111.326 267.12L111.326 267.039Z" fill="#EDD8AB"/>
<path opacity="0.72" d="M305.593 264.126C305.593 264.126 305.917 264.449 306.079 264.611C307.293 265.784 309.073 266.108 310.61 265.461C312.066 264.854 313.239 263.316 313.159 261.658C312.997 258.097 308.749 256.195 306.079 258.744C305.917 258.906 305.755 259.068 305.593 259.23C304.258 260.484 304.258 262.871 305.593 264.126Z" fill="#EDD8AB"/>
<path opacity="0.72" d="M86.9722 263.923C88.2263 266.067 91.0177 266.876 93.3237 267.2C95.3869 267.524 97.3692 267.403 99.3111 266.674C101.779 265.744 103.195 264.004 103.883 261.657C104.408 259.917 103.276 258.097 101.577 257.611C101.374 257.571 101.172 257.53 100.97 257.49C100.808 255.062 98.6638 252.877 96.1555 252.999C94.0518 253.08 91.9482 253.323 89.8849 253.606C88.1858 253.849 86.9722 255.548 86.4462 257.045C85.6776 259.23 85.7585 261.94 86.9317 263.963L86.9722 263.923Z" fill="#EDD8AB"/>
<path opacity="0.72" d="M150.649 130.528C160.601 125.025 170.594 124.014 179.049 132.591C180.303 133.845 182.447 133.845 183.701 132.591C194.341 122.193 206.397 129.314 218.736 129.88C219.545 129.88 220.111 128.909 219.666 128.262C211.737 116.286 192.035 117.985 181.436 125.915C177.188 122.314 172.252 119.927 166.386 120.332C158.942 120.858 155.14 124.985 150.002 129.718C149.557 130.123 150.123 130.811 150.609 130.528L150.649 130.528Z" fill="#EDD8AB"/>
<path opacity="0.72" d="M69.1313 134.372C73.2578 134.129 76.7369 131.661 80.8634 131.175C87.0531 130.447 92.1505 132.187 97.7333 134.574C98.5829 134.938 99.4729 134.938 100.201 134.25C105.298 129.435 114.806 120.898 121.036 130.164C121.885 131.418 123.665 132.146 125.041 131.216C130.583 127.574 144.702 121.708 147.736 131.377L147.777 131.377C152.995 116.205 133.091 120.413 124.191 124.944C116.707 117.298 106.714 124.054 98.947 130.083C91.0986 122.84 66.7849 118.673 67.3917 132.672C67.3917 133.562 68.1199 134.412 69.0909 134.372L69.1313 134.372Z" fill="#EDD8AB"/>
<path opacity="0.72" d="M79.2856 253.282C83.7357 254.941 88.7117 255.224 93 252.999C96.1151 251.381 98.1783 246.849 102.305 247.78C104.975 248.387 108.98 253.687 111.245 255.508C113.875 257.652 116.464 259.715 119.903 260.282C124.232 261.01 128.763 259.473 132.323 257.085C137.42 253.687 139.321 249.803 146.199 250.855C150.164 251.462 153.845 253.889 157.971 253.93C162.867 253.93 166.993 250.895 171.605 249.843C183.013 247.213 188.879 259.432 200.207 255.669C204.05 254.415 206.275 251.988 209.35 249.6C215.499 244.826 218.452 248.306 224.844 249.762C230.71 251.097 235.686 251.057 239.489 247.861C240.622 249.56 241.472 251.421 242.038 253.525C242.726 256.074 245.881 257.45 248.187 256.034C253.689 252.554 267.727 246.93 272.299 254.334C274.726 258.299 274.281 262.831 278.691 265.663C287.672 271.449 294.913 264.49 297.785 256.479C299.485 256.843 301.184 257.166 302.842 257.692C307.818 259.189 309.477 251.988 304.946 250.126C301.993 248.913 298.959 248.306 295.925 247.416C293.052 246.566 290.908 248.832 290.625 251.462C290.706 255.993 287.914 257.976 282.251 257.49C281.684 256.276 281.239 255.022 280.875 253.727C280.39 252.392 280.066 250.895 279.378 249.641C277.679 246.485 275.09 244.583 271.692 243.491C264.369 241.144 255.51 243.046 248.349 246.445C246.973 243.451 245.072 240.902 242.321 238.434C240.46 236.775 237.102 236.775 235.848 239.283C231.762 247.375 221.001 237.705 214.285 238.757C206.235 240.011 202.149 249.803 194.179 248.913C186.331 248.023 182.407 241.347 173.547 242.844C168.611 243.653 164.728 247.335 159.832 248.144C155.261 248.913 150.973 247.051 146.523 245.919C141.021 244.503 136.692 244.745 131.999 248.184C125.648 252.756 121.278 254.334 114.765 248.994C112.297 246.971 110.76 244.826 108.737 242.48C105.096 238.231 99.9584 237.867 94.5373 239.324C91.8268 240.052 88.7522 242.763 86.0821 242.965C79.0833 243.491 75.9278 234.469 72.2059 230.261C70.0213 227.793 65.9353 229.209 65.0857 232.122C62.4561 241.023 71.4777 250.288 79.3261 253.242L79.2856 253.282Z" fill="#913E12"/>
<path opacity="0.72" d="M175.125 129.112C177.956 138.498 188.475 138.174 196.566 136.961C202.27 136.111 208.015 134.735 213.76 134.614C218.897 134.533 222.7 136.313 227.433 137.729C227.959 137.891 228.526 137.608 228.809 137.163C234.675 127.574 218.776 124.459 212.667 124.54C206.761 124.62 200.854 125.834 195.069 126.724C188.637 127.736 182.002 125.632 175.893 127.776C175.367 127.979 174.963 128.505 175.125 129.112Z" fill="#913E12"/>
<path opacity="0.72" d="M273.108 138.781C279.54 138.336 298.959 133.117 295.115 123.204C294.751 122.314 294.064 121.95 293.093 122.072C288.885 122.638 286.134 127.372 282.372 129.273C277.194 131.863 271.611 131.984 265.947 132.267C263.52 132.389 259.151 133.198 257.937 130.366C256.278 126.401 261.457 122.8 264.369 121.707C267.323 120.615 270.559 120.17 273.674 120.736C275.05 120.979 276.142 121.384 277.436 121.869C277.558 121.91 277.72 121.95 277.841 121.95C277.72 121.991 277.598 122.072 277.436 122.153C274.847 123.488 276.061 127.695 278.893 127.615C282.251 127.534 286.094 125.996 285.851 121.95C285.608 118.188 281.401 116.003 278.286 114.87C269.669 111.835 256.197 115.396 253.608 125.227C250.857 135.666 265.178 139.348 273.027 138.822L273.108 138.781Z" fill="#913E12"/>
<path opacity="0.72" d="M161.693 107.911C164.161 113.292 175.448 113.656 176.986 107.466C177.228 106.535 176.824 105.483 175.974 104.998C173.506 103.663 171.443 104.674 168.895 104.796C168.247 104.796 166.953 104.796 166.669 104.796C165.982 104.796 164.444 104.796 163.918 104.472C164.242 104.674 163.797 104.067 163.757 103.784C163.676 103.137 163.757 102.651 164.04 102.044C165.011 100.062 167.398 99.0908 169.38 98.4839C174.032 96.9869 178.725 97.7961 182.892 100.264C184.187 101.033 185.886 102.53 185.764 104.189C185.643 106.697 181.84 107.466 179.979 108.073C179.898 108.073 179.939 108.194 179.979 108.194C183.175 108.275 188.07 106.819 187.059 102.692C186.088 98.6053 181.395 96.0159 177.633 95.1663C172.616 94.0334 166.71 95.409 162.826 98.8076C159.873 101.437 160.075 104.553 161.572 107.871L161.693 107.911Z" fill="#913E12"/>
<path opacity="0.72" d="M105.703 108.113C106.553 110.096 109.789 109.489 110.234 107.506C110.76 105.241 109.749 103.299 110.072 101.114C110.234 99.9 110.8 98.4839 112.095 98.1197C113.551 97.7151 115.21 97.7151 116.545 97.6747C117.961 97.6747 119.539 98.0388 121.157 98.403C124.272 99.1313 127.711 99.8595 130.219 101.802C131.311 102.651 132.201 103.541 132.768 104.512C133.253 105.402 133.375 105.807 133.051 106.576C133.132 106.373 132.606 107.183 132.525 107.264C131.797 107.79 131.15 108.032 130.3 108.275C127.347 109.165 124.232 109.489 121.278 110.419C118.285 111.39 118.892 115.639 122.007 115.801C127.064 116.084 134.022 113.818 136.894 109.287C138.998 105.969 137.461 102.247 134.952 99.6572C133.496 98.1602 131.756 97.1892 130.057 96.0563C128.115 94.7616 126.295 93.5883 123.989 92.9005C120.186 91.7676 114.199 91.5653 111.124 94.4784C107.605 97.8365 103.478 102.934 105.703 107.951L105.703 108.113Z" fill="#913E12"/>
<path opacity="0.72" d="M200.773 62.0701C203.282 61.3823 205.79 60.9373 208.339 61.5442C209.067 61.706 214.083 63.729 212.182 64.1336C209.957 64.9428 210.806 68.3414 213.193 67.7345C216.389 66.6017 224.238 64.9428 227.11 67.5322C229.456 69.6766 232.976 66.0757 230.589 64.0527C227.069 61.1396 221.325 61.5846 216.511 62.7579C216.187 61.8274 215.54 60.8563 214.488 60.0472C210.361 56.7295 203.484 56.77 200.409 61.5442C200.247 61.787 200.531 62.1106 200.773 62.0297L200.773 62.0701Z" fill="#913E12"/>
<path opacity="0.72" d="M164.566 63.365C167.438 63.5673 168.611 61.7466 171.403 60.9374C175.367 59.8045 179.494 60.8564 182.73 63.3245C183.499 63.9314 185.036 63.6886 185.643 62.9604C190.053 57.822 196.161 58.793 200.409 63.284C200.612 63.5268 201.137 63.365 201.097 63.0009C200.086 54.8685 189.972 54.9089 184.146 58.2266C177.957 54.0188 162.664 52.0767 162.948 61.7061C162.948 62.6367 163.676 63.284 164.566 63.3245L164.566 63.365Z" fill="#913E12"/>
<path opacity="0.72" d="M112.014 301.793C113.592 303.574 115.817 304.585 118.163 304.99C122.533 305.759 129.248 304.707 132.04 300.903C132.525 300.256 131.878 299.083 131.028 299.164C127.468 299.609 124.313 301.187 120.591 301.106C116.343 301.025 114.158 298.638 112.823 294.834C112.459 293.823 110.841 293.621 110.558 294.834C109.951 297.545 109.991 299.487 112.014 301.753L112.014 301.793Z" fill="#913E12"/>
<path opacity="0.72" d="M133.617 301.713C137.906 301.955 140.454 301.146 144.459 300.013C150.528 298.354 154.088 300.175 159.873 302.238C166.184 304.464 170.674 303.412 175.691 299.973C180.546 306.082 190.417 307.458 195.797 301.793C202.23 306.608 215.742 304.221 214.73 295.158C214.65 294.43 214.043 293.823 213.274 294.066C208.743 295.401 201.785 303.857 197.618 296.938C196.728 295.482 194.381 295.32 193.532 296.938C190.255 303.371 180.748 301.632 178.159 295.805C177.714 294.794 176.055 294.389 175.165 295.037C165.051 301.915 160.763 296.21 150.325 295.886C144.055 295.684 139.645 300.418 133.617 301.551C133.496 301.551 133.536 301.713 133.617 301.713Z" fill="#913E12"/>
<path opacity="0.72" d="M214.892 287.228C219.949 286.662 225.532 285.205 227.272 292.609C227.474 293.499 228.566 294.147 229.416 293.823C233.178 292.528 237.911 290.222 240.622 296.696C240.905 297.383 241.391 297.788 242.159 297.869C244.627 298.071 246.974 298.152 249.482 297.99C249.684 297.99 249.805 297.869 249.886 297.707C251.99 290.748 261.052 287.147 267.727 288.442C273.593 289.534 276.506 293.904 279.338 298.597C280.309 300.216 282.372 299.042 282.17 297.424C280.511 285.812 262.953 279.743 254.539 288.24C251.869 290.91 250.008 300.458 244.061 294.632C243.09 293.661 243.333 290.708 241.714 289.292C238.235 286.297 233.623 287.107 230.023 289.292C227.514 283.061 220.03 280.39 214.205 285.488C213.557 286.055 214.043 287.39 214.933 287.309L214.892 287.228Z" fill="#913E12"/>
<g style="mix-blend-mode:multiply" opacity="0.72">
<path d="M328.653 162.896C317.568 112.119 278.367 69.6363 224.399 56.9724C149.557 39.4129 74.6333 85.8606 57.0757 160.711C47.9327 199.754 56.2261 238.838 76.8179 269.749C76.292 251.462 81.268 233.781 86.8509 216.181C108.05 149.18 190.983 103.744 258.989 121.101C283.06 127.251 309.113 142.544 328.653 162.896Z" fill="#9F9CAD"/>
</g>
<g style="mix-blend-mode:multiply" opacity="0.46">
<path d="M103.68 299.608C112.135 287.106 119.296 273.836 125.364 264.773C169.946 198.095 256.238 197.084 328.491 222.816C340.628 168.358 319.065 114.101 277.436 82.0975C242.564 64.6999 203.524 62.5151 165.294 72.3468C119.903 83.9992 89.5613 113.737 62.0516 151.405C60.6762 153.266 59.3816 155.087 58.1275 156.948C57.8038 158.202 57.4397 159.456 57.1565 160.751C44.6963 213.875 64.479 266.958 103.761 299.649L103.68 299.608Z" fill="#9F9CAD"/>
</g>
<g style="mix-blend-mode:overlay" opacity="0.3">
<path d="M201.987 320.971C225.856 315.105 250.857 310.29 271.651 294.915C290.949 280.633 322.099 250.167 323.272 224.839C326.671 150.07 235.727 157.919 186.857 181.628C132.727 207.887 79.9329 307.174 177.511 314.498L202.027 320.931L201.987 320.971Z" fill="#FAECCF"/>
</g>
<g style="mix-blend-mode:overlay" opacity="0.44">
<path d="M209.714 288.725C220.637 302.684 247.742 294.551 259.717 285.812C266.392 280.916 270.316 276.061 274.524 269.426C280.875 259.351 284.192 260.525 292.607 252.959C312.956 234.671 291.798 214.603 274.888 205.904C250.574 193.362 219.868 197.853 196.849 211.366C178.766 221.967 143.327 261.01 184.874 268.091C169.704 271.449 184.672 287.026 209.754 288.766L209.714 288.725Z" fill="#FAECCF"/>
</g>
<g style="mix-blend-mode:overlay" opacity="0.21">
<path d="M56.8329 222.209C57.4802 224.434 60.9594 224.07 60.9189 221.643C60.7166 207.441 60.1098 192.552 62.8608 178.553C65.3286 165.808 69.7787 153.428 74.6738 141.452C83.0885 120.817 94.6588 103.015 112.783 89.6633C131.918 75.5429 156.151 68.6243 179.534 66.1967C193.087 64.7806 207.125 64.8211 220.597 67.0059C231.6 68.8266 242.564 74.5314 253.568 75.1383C253.932 75.1383 254.215 74.6933 254.013 74.3696C247.621 65.0639 233.097 61.7057 222.619 59.5614C208.46 56.6887 193.896 56.0818 179.494 57.3361C154.007 59.5209 127.913 67.0464 107.159 82.421C88.9545 95.975 77.3438 116.893 68.4436 137.406C56.6711 164.554 48.2968 193.119 56.752 222.209L56.8329 222.209Z" fill="#05AFEA"/>
</g>
</svg>
