<svg width="278" height="276" viewBox="0 0 278 276" fill="none" xmlns="http://www.w3.org/2000/svg">
<path d="M0.184908 144.333C-3.82018 76.968 78.9112 0.0137956 146.35 0.0138015C213.79 0.0138074 281.35 68.1478 277.871 141.38C274.271 217.08 204.444 275.18 137.005 275.18C69.566 275.18 5.12055 228.246 0.144536 144.333L0.184908 144.333Z" fill="#F17241"/>
<path d="M43.7958 177.308C33.0751 178.198 31.6997 190.862 36.433 199.116C11.917 197.052 37.6465 263.406 70.2132 229.784C79.1134 220.6 77.2121 200.046 89.5105 195.191C106.097 188.636 111.761 212.144 100.717 210.04C105.369 218.738 87.3258 231.483 91.3309 244.026C88.9845 244.107 86.6382 244.592 84.3322 244.633C79.5989 257.377 96.5902 262.92 106.219 259.198C105.248 268.463 110.628 273.764 120.095 271.417C119.448 272.267 118.962 273.116 118.517 273.925C124.666 274.735 130.856 275.139 137.086 275.139C160.227 275.139 183.65 268.301 204.606 256.245C198.093 254.505 192.065 252.482 189.638 247.788C180.414 229.946 208.449 232.899 218.24 229.703C247.003 220.316 259.221 162.5 219.858 172.898C219.575 171.239 219.413 166.424 219.737 164.806C218.928 164.603 215.327 164.927 214.841 164.28C212.819 148.986 229.527 150.321 239.519 145.061C253.881 137.496 258.291 130.132 259.828 113.422C262.822 80.6093 215.044 43.1842 191.539 77.5748C188.343 65.7606 177.016 64.3445 169.329 72.1532C161.117 59.7726 146.553 62.7666 136.803 59.1657C120.054 52.9754 115.483 45.369 95.0934 49.5768C67.8669 55.2006 47.8009 86.395 69.7682 110.266C90.4814 132.762 116.049 115.121 138.704 107.515C150.194 103.671 169.37 96.8741 181.628 101.486C187.494 103.712 202.381 115.081 194.816 122.606C191.984 125.439 179.16 116.133 172.404 120.948C160.146 129.768 170.421 147.772 181.466 151.94C170.057 152.547 174.224 167.355 178.836 174.961C177.865 174.435 176.085 173.505 176.166 173.545C172.404 177.672 159.863 232.657 142.345 200.37C138.219 192.804 155.898 160.881 135.225 169.256C137.855 155.702 122.441 133.166 113.258 153.153C106.745 135.432 85.465 140.085 87.6091 158.939C80.1249 153.153 69.8492 152.061 64.7113 160.841C66.37 147.408 54.9616 151.373 51.4419 145.142C48.0437 139.114 48.0841 132.721 48.4078 125.479C49.0955 110.549 57.227 93.0709 36.352 88.2966C0.306209 80.0429 13.4542 166.626 43.8363 177.267L43.7958 177.308Z" fill="#FF4F24"/>
<path d="M273.623 103.793C272.288 98.9783 270.67 94.2445 268.809 89.6321C270.387 94.6086 271.965 99.5447 273.623 103.793Z" fill="#FF4F24"/>
<path d="M109.496 37.3988C125.961 39.5836 128.186 29.9947 145.299 40.0287C152.904 44.4792 151.771 48.8084 162.007 50.4268C169.086 51.5597 174.71 46.2595 178.229 46.7854C186.563 47.9588 188.222 54.9178 196.515 56.4553C204.364 57.9118 206.386 53.5017 213.142 52.6925C224.551 51.3169 238.387 50.4672 249.107 55.3224C237.82 40.676 223.904 28.0931 208.49 18.666C206.103 21.7004 203.514 24.3708 199.994 25.2609C191.458 27.4053 148.778 19.1515 141.941 14.9032C140.323 13.8917 137.248 6.40672 134.457 0.78283C120.702 2.52259 106.583 7.09452 92.9088 13.8917C90.7242 24.4517 97.0352 35.7399 109.536 37.3988L109.496 37.3988Z" fill="#FF4F24"/>
<g style="mix-blend-mode:soft-light" opacity="0.59">
<path d="M81.015 226.102C76.6458 230.512 73.733 241.436 82.4309 242.488C91.8166 243.621 89.0656 232.373 90.967 227.154C92.5852 222.784 104.479 215.623 94.7293 209.311C86.1123 203.687 78.2236 220.681 79.5181 227.559L81.015 226.062L81.015 226.102Z" fill="#7D0204"/>
</g>
<g style="mix-blend-mode:soft-light" opacity="0.59">
<path d="M145.703 131.953C137.733 143.807 144.045 152.344 150.72 161.448C153.187 164.765 158.851 161.205 161.157 166.303C163.139 170.672 156.141 176.863 158.325 180.828C164.353 191.833 170.866 188.151 170.866 174.637C170.866 167.921 162.937 156.673 158.528 151.859C164.555 147.206 165.405 144.212 159.054 139.195C186.401 109.336 117.142 109.214 145.663 133.773L145.663 131.953L145.703 131.953Z" fill="#7D0204"/>
</g>
<g style="mix-blend-mode:soft-light" opacity="0.59">
<path d="M87.7709 81.2566C88.0541 101.932 122.118 110.307 120.661 85.0194C126.649 92.2212 147.686 104.926 149.587 86.9615C159.62 87.1233 180.373 86.5973 189.557 88.8226C209.299 93.6373 202.058 109.336 213.587 122.161C224.187 133.976 250.119 137.212 250.928 113.867C251.454 99.2612 229.486 84.7362 216.581 89.6723C216.824 74.2571 181.304 84.8576 169.248 83.1178C158.689 81.5803 141.213 66.1652 133.041 73.3266C128.955 66.5293 122.522 64.5468 116.737 69.847C114.107 59.9344 97.5612 55.5648 89.1465 60.9459C79.1135 67.3385 81.2171 85.3026 87.7709 81.2971L87.7709 81.2566Z" fill="#7D0204"/>
</g>
<g style="mix-blend-mode:soft-light" opacity="0.59">
<path d="M129.44 249.649C123.169 265.024 163.868 274.33 162.29 244.471C173.536 249.366 188.181 239.373 182.598 226.304C202.381 234.841 246.397 208.259 221.395 186.735C195.908 164.806 169.127 211.698 163.382 231.362C158.811 229.662 155.331 229.946 151.124 229.055C147.443 221.57 140.929 222.137 136.682 216.189C132.677 210.565 140.646 199.115 127.741 198.792C108.282 198.347 111.801 239.251 129.44 249.649Z" fill="#7D0204"/>
</g>
<g style="mix-blend-mode:soft-light" opacity="0.59">
<path d="M62.4459 188.07C54.5975 194.26 38.9413 208.624 47.1133 219.79C56.0134 231.928 70.537 221.004 68.1501 208.3C80.6509 206.601 83.1591 193.977 82.6331 183.296C89.6724 185.562 96.914 185.359 102.659 180.99C113.218 191.226 142.629 192.966 130.249 170.753C120.944 154.124 91.0075 159.829 82.795 173.019C77.4953 163.349 61.4345 160.922 62.5268 174.84C58.3599 152.142 34.8553 184.145 64.226 186.249L62.4054 188.07L62.4459 188.07Z" fill="#7D0204"/>
</g>
<g style="mix-blend-mode:soft-light" opacity="0.59">
<path d="M82.3499 37.8029C70.9414 31.7744 57.1462 40.4328 48.8932 49.5362C42.7036 56.4143 30.122 86.3544 49.581 78.3839C46.466 81.3779 48.1651 81.8634 46.4255 84.5742C64.59 89.6721 67.1387 67.3384 60.7872 56.2525C68.3523 57.3449 75.958 55.2815 76.7266 47.5132C79.8012 48.2415 84.3322 47.6751 87.4878 48.4033C89.0655 42.9817 86.0718 43.5886 82.3499 41.4443L82.3499 37.8029Z" fill="#7D0204"/>
</g>
<g style="mix-blend-mode:soft-light" opacity="0.59">
<path d="M263.388 153.679C262.983 151.98 263.55 150.281 263.105 148.541C248.379 145.223 242.473 167.678 257.805 170.389C251.413 176.215 245.709 190.093 257.805 192.075C251.696 196.89 248.217 204.901 248.622 213.155C237.82 213.883 222.771 224.645 225.643 236.702C238.872 237.795 255.014 208.34 259.909 198.023C263.793 189.81 284.263 145.142 263.388 153.679Z" fill="#7D0204"/>
</g>
<g style="mix-blend-mode:soft-light" opacity="0.59">
<path d="M60.6254 112.046C51.6038 99.7465 44.8073 144.454 64.3877 141.703C65.48 152.425 78.5472 152.708 80.7722 141.703C96.5498 147.529 105.126 128.999 89.5915 122.93C82.9972 120.34 77.3335 126.652 71.0224 123.415C65.4396 120.543 68.0288 112.087 62.4459 108.445L60.6254 112.087L60.6254 112.046Z" fill="#7D0204"/>
</g>
<g style="mix-blend-mode:soft-light" opacity="0.59">
<path d="M9.93472 168.164C7.99285 174.111 7.42644 193.168 18.9967 191.914C35.8666 190.052 20.4531 170.875 19.4013 166.464C17.6212 159.101 21.0195 144.414 11.3507 141.379C-3.13237 136.848 11.3506 159.465 15.3557 162.742L9.93472 168.164Z" fill="#7D0204"/>
</g>
<g style="mix-blend-mode:soft-light" opacity="0.59">
<path d="M147.524 32.3817C149.304 44.3982 165.445 51.4787 169.572 36.2659C180.737 37.3987 197.324 48.9702 206.912 42.0516C213.951 58.8423 236.283 41.7279 224.348 29.7114C219.858 25.2204 195.989 28.0121 189.193 26.9197C176.368 24.8562 169.046 26.4746 156.424 26.596C144.328 26.6769 135.225 14.9436 126.082 19.4751C125.839 16.4406 123.857 13.8917 123.736 10.8572C111.235 7.45859 105.976 19.5965 113.056 28.7808C120.499 38.4102 133.85 32.139 147.524 32.3008L147.524 32.3817Z" fill="#7D0204"/>
</g>
<g style="mix-blend-mode:soft-light" opacity="0.59">
<path d="M31.6592 128.311C23.9727 140.571 31.6593 165.089 48.0033 154.327C48.5697 156.39 49.4597 158.494 50.0665 160.598C74.3803 164.078 48.327 144.697 46.1424 141.056C41.5304 133.328 39.9526 125.439 40.8831 116.335C41.5708 109.659 45.2119 99.059 38.9008 95.1748C19.9272 83.3606 28.3015 119.815 33.4798 126.491L31.6592 128.311Z" fill="#7D0204"/>
</g>
<path opacity="0.6" d="M196.394 204.375C171.716 222.825 227.706 236.986 214.72 209.797C224.834 206.358 238.508 196.607 219.939 191.59C206.589 187.989 202.745 201.705 194.614 207.976L196.434 204.375L196.394 204.375Z" fill="#750400"/>
<path opacity="0.66" d="M219.939 106.625C215.529 134.745 250.078 129.485 238.629 115.526C269.659 116.821 208.328 65.4373 219.939 108.405L219.939 106.585L219.939 106.625Z" fill="#750400"/>
<path opacity="0.6" d="M98.6534 72.1939C93.5561 77.9391 95.2957 93.071 105.895 92.3428C120.499 91.3313 110.952 73.2458 100.474 72.1939L98.6534 72.1939Z" fill="#750400"/>
<path opacity="0.6" d="M111.316 179.007C138.057 204.618 116.616 140.651 107.675 169.944L111.316 179.007Z" fill="#750400"/>
<path opacity="0.6" d="M133.041 236.945C136.924 244.471 151.488 268.908 152.985 245.078C153.552 235.691 137.855 215.704 131.261 231.524L133.081 236.945L133.041 236.945Z" fill="#750400"/>
<path opacity="0.6" d="M116.737 19.7179C116.899 38.2484 128.307 26.9197 134.821 28.5786C143.842 30.8848 150.113 37.9247 160.024 37.5606C153.673 27.122 143.842 30.6825 134.821 24.6944C127.903 20.082 126.082 9.6839 117.061 8.99609C115.321 12.7184 114.229 17.3713 114.876 21.5386L116.697 19.7179L116.737 19.7179Z" fill="#750400"/>
<path opacity="0.6" d="M17.1762 139.397C20.1295 136.606 25.8741 130.82 29.8792 125.641C27.6137 140.773 26.2787 164.563 42.5822 154.57C55.9325 146.397 43.5936 115.607 33.4393 109.983C30.5669 112.289 30.041 115.283 29.8792 119.248C24.9032 125.762 10.2988 134.987 17.2167 139.397L17.1762 139.397Z" fill="#750400"/>
<path opacity="0.21" d="M10.5011 170.875C16.3267 184.065 34.3293 211.173 38.9816 224.201C41.0853 230.067 42.2586 235.165 43.8768 240.02C69.2019 263.001 102.699 275.18 137.046 275.18C144.409 275.18 151.812 274.451 159.175 273.116C148.09 260.291 126.204 248.517 119.083 242.448C104.6 230.108 96.3071 213.6 104.439 195.312C107.796 187.746 113.582 185.359 114.997 176.822C116.252 169.095 110.264 160.76 111.316 151.778C113.662 131.508 138.624 96.9955 161.724 97.4001C174.022 97.6024 176.368 108.284 184.217 113.058C189.071 116.012 198.053 116.861 201.896 119.612C211.646 126.693 209.785 135.392 223.661 137.415C239.681 139.761 236.809 130.456 247.165 123.658C259.423 115.607 269.659 117.225 277.467 123.861C273.219 82.7942 247.732 45.0859 214.194 22.3071C189.557 14.2556 169.815 5.67819 147.038 8.14623C73.8139 15.9954 -22.7533 95.7008 10.582 170.875L10.5011 170.875Z" fill="#000072"/>
<path opacity="0.27" d="M64.7518 255.476C85.6268 245.887 71.8719 218.657 65.2776 204.942C56.6606 187.018 49.7832 164.482 55.447 144.738C60.0185 128.837 74.3801 128.149 82.3498 116.173C87.69 108.203 84.1704 101.284 85.8696 92.5043C89.3892 74.3379 103.953 54.9578 124.343 57.1831C129.764 57.79 137.976 62.8474 143.397 63.7375C146.067 64.1826 150.881 60.6626 155.938 61.7145C162.573 63.0902 167.63 71.3844 173.132 74.1761C192.146 83.765 217.876 81.5802 223.135 56.9403C231.914 15.6715 187.979 25.4627 165.931 19.9198C149.223 15.712 147.928 2.4412 126.123 11.0591C115.645 15.2264 99.4221 25.1795 100.15 37.7624C86.6382 26.5551 60.7063 36.3464 50.1878 46.7849C32.4279 64.3849 30.2432 85.7475 33.156 108.688C4.14945 108.688 16.1648 138.547 23.6491 154.286C0.953569 156.754 21.7072 202.474 27.9373 212.143L16.448 204.658C28.0183 226.547 44.8882 243.661 64.7113 255.516L64.7518 255.476Z" fill="#000072"/>
<g style="mix-blend-mode:color-dodge" opacity="0.37">
<path d="M138.462 256.892C153.43 275.058 198.255 265.267 198.457 239.049C219.534 239.697 228.435 232.009 238.993 214.328C244.212 205.589 243.201 203.89 250.604 195.272C258.574 186.007 267.15 177.267 270.67 164.563C276.01 145.142 269.416 120.907 246.194 119.37C236.687 118.722 234.462 128.311 224.834 121.554C220.303 118.358 219.777 106.463 212.697 101.648C184.621 82.5109 151.771 95.1343 148.98 128.149C132.96 119.248 118.355 124.832 111.195 142.836C108.646 149.229 106.825 162.661 108.525 169.175C110.183 175.487 118.558 180.423 118.719 186.33C118.922 194.422 68.2715 225.94 97.1163 228.004C93.4348 229.743 88.5397 239.98 94.4057 246.049C75.7962 263.649 125.192 258.753 138.462 256.932L138.462 256.892Z" fill="#FBB901"/>
</g>
<g style="mix-blend-mode:overlay" opacity="0.4">
<path d="M162.007 207.976C148.535 224.969 178.432 247.789 185.956 231.726C192.955 235.287 201.168 233.951 203.999 226.264C246.801 252.522 273.704 126.127 212.616 164.806C202.26 152.344 217.795 136.848 195.14 131.831C168.115 125.803 157.354 158.454 158.123 178.886C128.024 165.008 126.204 233.668 162.007 207.976Z" fill="#FFE4A1"/>
</g>
<path opacity="0.58" d="M200.035 225.374C200.561 225.374 200.723 224.524 200.156 224.443C196.151 223.675 192.915 220.397 191.944 216.513C191.539 214.854 191.418 212.912 191.822 211.253C192.025 210.444 195.302 204.739 195.908 206.52C196.232 207.491 197.243 207.693 198.012 207.086C200.884 204.78 201.896 201.584 203.635 198.468C207.56 191.347 213.507 189.81 221.112 191.995C221.355 192.076 221.557 191.752 221.355 191.59C217.431 188.313 212.05 188.394 207.64 190.862C202.3 193.815 201.41 199.925 197.648 204.011C197.648 203.971 197.648 203.93 197.608 203.89C197.405 203.404 196.637 203.162 196.151 203.323C184.783 207.127 188.02 226.183 200.075 225.455L200.035 225.374Z" fill="#FFE4A1"/>
<path opacity="0.58" d="M217.39 103.307C218.361 107.475 218.037 110.347 217.39 114.434C215.934 123.78 229.729 133.005 237.699 128.19C238.063 127.947 238.063 127.3 237.578 127.178C234.382 126.531 231.105 126.855 227.949 125.884C225.603 125.155 222.933 123.658 221.274 121.757C217.957 117.913 219.494 115.121 220.262 110.995C221.557 103.914 211.929 94.6489 222.973 90.3601C223.013 90.3601 223.013 90.2388 222.973 90.2388C219.211 90.1578 217.431 93.2328 216.783 96.6718C216.298 99.1803 216.864 100.961 217.39 103.307Z" fill="#FFE4A1"/>
<path opacity="0.58" d="M143.883 253.979C143.883 253.979 144.085 253.858 144.004 253.777C139.594 249.407 135.589 245.563 133.283 239.616C132.312 237.107 131.584 234.558 131.746 231.848C132.151 226.224 136.52 227.033 140.727 227.802C141.213 227.883 141.658 227.276 141.253 226.912C135.751 222.056 129.481 226.102 129.683 232.9C129.966 240.87 136.237 251.187 143.842 253.939L143.883 253.979Z" fill="#FFE4A1"/>
<path opacity="0.58" d="M109.172 174.111C111.114 179.29 115.806 184.671 121.551 185.238C121.794 185.238 121.794 184.914 121.592 184.874C117.182 183.498 113.379 179.493 111.397 175.406C110.426 173.424 109.576 170.875 110.062 168.649C110.75 165.493 113.379 165.17 115.685 163.632C116.009 163.43 115.847 163.025 115.523 162.985C109.253 162.176 107.432 169.539 109.172 174.111Z" fill="#FFE4A1"/>
<path opacity="0.58" d="M213.911 164.847C221.072 165.17 219.575 170.147 221.112 174.881C221.234 175.204 221.517 175.406 221.881 175.326C232.723 172.979 243.363 176.904 241.178 190.215C240.409 194.948 239.438 199.804 237.982 204.335C234.301 215.866 228.313 226.143 215.731 228.409C215.691 228.409 215.691 228.49 215.731 228.49C233.856 234.194 243.039 197.255 243.079 185.44C243.079 174.759 234.098 173.99 225.603 173.384C219.372 172.938 223.58 169.499 220.91 165.656C219.211 163.269 216.419 163.754 213.871 164.159C213.506 164.199 213.628 164.766 213.951 164.766L213.911 164.847Z" fill="#FFE4A1"/>
<path opacity="0.58" d="M159.134 208.097C159.134 208.097 159.094 207.693 158.932 207.814C152.742 211.658 144.732 213.398 140.161 206.196C137.329 201.745 137.329 196.728 139.069 191.995C140.606 187.868 142.912 183.498 145.986 180.302C147.24 178.967 148.94 177.348 150.841 177.024C153.673 176.539 154.846 178.683 156.99 179.978C157.314 180.18 157.637 179.857 157.597 179.533C156.707 174.233 150.517 174.152 146.917 176.579C141.819 180.059 138.421 186.654 136.641 192.399C132.191 206.884 147.24 219.588 159.134 208.097Z" fill="#FFE4A1"/>
<path opacity="0.58" d="M156.586 151.211L156.586 151.292C159.863 151.899 162.33 150.564 162.735 147.084C163.018 144.778 158.973 137.9 158.608 138.79C158.851 138.224 162.614 136.079 163.22 135.311C164.434 133.773 165.284 131.872 165.567 129.929C166.093 126.167 164.232 122.525 160.308 121.878C159.863 121.797 159.539 122.404 159.984 122.647C163.504 124.832 165.203 127.461 163.706 131.588C162.614 134.623 160.389 136.888 157.233 137.738C156.707 137.9 156.586 138.669 157.071 138.952C162.128 141.905 163.868 150.119 156.586 151.171L156.586 151.211Z" fill="#FFE4A1"/>
<path opacity="0.58" d="M96.6307 83.8058C97.7634 88.2563 101.809 94.6085 107.27 91.7763C107.594 91.6145 107.351 91.129 107.028 91.2099C101.688 92.2214 98.7749 88.3373 97.4803 83.563C96.4689 79.9217 96.0644 75.3093 99.9885 73.5695C100.15 73.4886 100.11 73.2458 99.9481 73.2054C95.1743 71.9511 96.1452 81.6614 96.6712 83.7653L96.6307 83.8058Z" fill="#FFE4A1"/>
<path opacity="0.3" d="M16.084 138.062C19.5227 141.582 25.7528 135.513 29.151 131.386C28.0992 140.287 25.5101 158.737 37.1613 156.956C37.4445 156.916 37.3635 156.511 37.1613 156.431C26.1169 152.506 31.3357 137.253 31.2548 128.352C31.2548 127.461 30.0006 127.097 29.5556 127.906C28.3015 130.172 26.3596 132.155 24.4582 133.854C23.7705 134.461 20.3722 137.86 19.0777 137.455C16.2053 136.565 19.199 131.993 20.0486 131.022C23.0018 127.502 29.7175 124.872 30.3648 119.855C30.4052 119.41 29.7175 119.127 29.4748 119.491C25.7933 124.184 20.4127 127.259 16.893 131.993C15.558 133.773 14.1422 136.079 16.084 138.062Z" fill="#FFE4A1"/>
<path opacity="0.3" d="M113.784 21.6599C113.905 21.9836 114.269 22.3072 114.633 22.1454C118.517 20.6484 117.829 29.9541 120.135 31.8962C124.262 35.3352 130.897 29.7923 135.428 30.035C135.509 30.035 135.589 29.8732 135.468 29.8327C132.474 28.4975 129.845 29.9541 126.932 30.8442C121.106 32.6244 120.014 29.5495 119.245 24.8562C119.003 23.3592 118.76 21.2957 117.223 20.4866C116.778 20.2438 116.009 20.4865 115.645 20.2842C114.188 19.5155 114.31 21.3362 114.391 17.2498C114.391 15.7932 114.714 14.4985 114.633 13.0015C114.633 12.6374 114.108 12.5565 113.986 12.9206C112.975 15.7932 112.732 18.7063 113.743 21.6194L113.784 21.6599Z" fill="#FFE4A1"/>
<path opacity="0.3" d="M47.0727 216.837C48.61 225.455 56.0538 227.883 61.8794 221.328C61.9603 221.247 61.8794 221.126 61.7581 221.207C53.5052 227.802 47.9224 221.409 48.2865 213.843C48.5292 209.392 50.9565 205.063 53.1007 201.22C56.2966 195.393 60.423 190.174 64.2663 184.793C64.7517 184.146 63.619 183.256 63.1335 183.903C56.6607 192.238 45.0095 205.225 47.0727 216.797L47.0727 216.837Z" fill="#FFE4A1"/>
<path opacity="0.3" d="M140.727 130.172C143.195 133.531 141.779 133.895 141.091 137.9C139.797 145.345 144.732 152.547 150.315 156.997C150.639 157.28 151.165 156.957 150.922 156.512C146.027 147.449 139.918 142.998 145.339 131.953C145.582 131.508 145.46 130.901 145.015 130.658C132.596 123.658 147.443 114.272 156.545 120.017C156.707 120.098 156.869 119.896 156.747 119.774C151.691 114.029 136.965 115.486 137.895 125.236C138.098 127.421 139.594 128.514 140.768 130.172L140.727 130.172Z" fill="#FFE4A1"/>
<path opacity="0.3" d="M55.4876 138.548C58.279 142.513 61.8391 144.617 66.006 142.877C65.7228 146.397 67.0983 150.281 71.0224 151.009C76.403 152.061 79.5989 145.83 80.6912 141.663C80.7317 141.461 80.4485 141.339 80.3271 141.501C81.0553 140.328 77.6571 145.426 77.8594 145.223C77.2121 146.033 76.5648 146.801 75.9175 147.611C69.121 147.853 66.4914 145.79 68.1096 141.461C68.3119 140.692 67.4624 139.964 66.7342 140.409C64.1855 140.287 61.6367 140.126 59.088 140.004C58.0766 139.074 57.2675 138.062 56.5798 136.889C55.083 134.461 54.0716 131.912 53.9097 128.999C53.7075 125.52 54.7998 122.121 54.8403 118.682C54.8403 118.399 54.4356 118.277 54.2738 118.52C51.0778 124.791 51.3611 132.721 55.4471 138.507L55.4876 138.548Z" fill="#FFE4A1"/>
<path opacity="0.3" d="M39.9122 77.3726C41.4495 81.7827 44.8478 82.4705 48.4079 81.0949C47.7606 82.2277 47.2346 83.3606 46.83 84.8171C46.7491 85.1408 46.9515 85.505 47.2751 85.5859C51.3207 86.7188 53.3839 84.979 56.499 82.5514C56.5799 82.4705 56.499 82.3491 56.3776 82.3896C54.3953 83.7652 52.7366 85.3027 50.5115 83.482C48.5696 81.8636 49.2575 81.8231 50.7139 79.8002C51.078 79.2742 50.3497 78.6268 49.8642 78.9505C43.0272 83.2392 39.3863 77.0489 40.4381 70.6563C41.0854 66.7722 43.5937 63.9804 45.7783 60.8651C45.9806 60.6223 45.576 60.3391 45.3737 60.5414C40.4786 64.7492 37.6871 70.9395 39.9122 77.3321L39.9122 77.3726Z" fill="#FFE4A1"/>
<path opacity="0.3" d="M141.981 95.0534C143.6 94.5678 145.096 93.6373 146.31 92.4235C147.038 91.6952 147.969 88.8226 148.656 88.4989C148.495 88.5798 151.731 89.0249 151.933 88.9844C156.06 88.4989 158.528 85.9904 163.099 87.8111C163.585 88.0134 164.029 87.2446 163.625 86.921C159.296 83.3605 152.014 89.5104 148.94 86.2332C148.454 85.7072 147.686 86.0309 147.483 86.6378C141.9 101.446 126.527 89.9959 119.933 82.9559C119.852 82.8345 119.609 82.9559 119.65 83.1178C122.805 90.6433 133.688 97.6428 142.022 95.0938L141.981 95.0534Z" fill="#FFE4A1"/>
<path opacity="0.3" d="M199.549 71.8295C208.611 66.4484 217.026 62.807 227.666 66.4888C237.658 69.9683 246.073 78.1412 251.899 86.7591C261.082 100.394 264.521 120.543 251.899 133.085C251.818 133.166 251.899 133.288 252.02 133.207C268.688 122.242 260.192 95.5388 250.726 82.8345C244.334 74.2571 235.272 66.0438 224.51 63.7376C215.974 61.8764 204.606 64.0208 199.266 71.4249C199.104 71.6272 199.428 71.9104 199.63 71.789L199.549 71.8295Z" fill="#FFE4A1"/>
</svg>
