<svg width="265" height="265" viewBox="0 0 265 265" fill="none" xmlns="http://www.w3.org/2000/svg">
<path d="M132.311 0.140247C59.4061 0.140241 0.304919 59.2475 0.304913 132.16C0.304906 205.072 59.4061 264.18 132.311 264.18C205.216 264.18 264.317 205.072 264.317 132.16C264.317 59.2475 205.216 0.140254 132.311 0.140247Z" fill="#8F5D17"/>
<path d="M132.311 0.140247C59.4061 0.140241 0.304919 59.2475 0.304913 132.16C0.304906 205.072 59.4061 264.18 132.311 264.18C205.216 264.18 264.317 205.072 264.317 132.16C264.317 59.2475 205.216 0.140254 132.311 0.140247Z" fill="#8F5D17"/>
<path opacity="0.44" d="M176.933 192.364C185.186 211.42 206.951 195.155 186.4 184.595C188.099 182.532 188.908 179.093 190.405 177.232C177.5 169.625 166.739 181.318 173.05 194.306L176.933 192.364Z" fill="#321C13"/>
<path opacity="0.44" d="M116.776 202.074C119.608 207.375 121.954 213.686 124.341 219.108C116.291 225.217 111.679 222.628 113.014 212.392C108.2 211.906 88.336 209.843 84.695 206.201C64.5482 186.093 110.182 156.315 118.678 196.248L116.736 202.074L116.776 202.074Z" fill="#321C13"/>
<path opacity="0.44" d="M157.515 155.465C154.319 153.806 152.013 152.754 148.089 153.806C145.823 163.152 151.325 172.094 161.398 170.597C175.922 168.412 169.773 155.829 172.807 147.616C175.234 141.061 183.568 143.651 180.615 131.715C178.552 123.299 167.588 118.04 159.902 118.525C138.946 119.86 142.425 141.264 151.689 153.563L157.515 155.505L157.515 155.465Z" fill="#321C13"/>
<path opacity="0.44" d="M130.369 161.291C137.449 151.864 137.408 139.605 122.925 140.252C118.678 148.627 122.116 157.124 128.427 163.233L130.369 161.291Z" fill="#321C13"/>
<path opacity="0.44" d="M85.7064 159.349C89.9138 168.735 97.843 166.105 101.727 157.407C108.159 142.882 93.6761 146.118 90.9656 138.552C87.2437 128.114 97.843 121.843 95.618 114.6C92.9479 105.861 81.0136 103.717 76.3612 112.658C76.6848 113.225 76.3612 107.641 76.2803 108.653C65.9237 111.971 72.4775 123.178 76.4826 124.068C66.4496 128.518 55.3648 150.286 70.1311 146.078C51.562 150.407 78.6267 174.359 87.6483 155.424L85.7064 159.308L85.7064 159.349Z" fill="#321C13"/>
<path opacity="0.44" d="M221.596 165.175C220.099 164.811 219.735 161.817 216.054 163.516C211.442 184.353 241.055 171.729 233.652 156.071C238.83 164.002 254.931 147.251 238.992 137.055C222.041 126.253 204.443 149.962 223.538 159.308L221.596 165.134L221.596 165.175Z" fill="#321C13"/>
<path opacity="0.44" d="M178.875 58.3617C198.901 39.1838 238.304 88.585 213.829 96.7983C201.288 101.006 203.068 84.8223 192.468 82.5565C187.088 81.4237 157.879 95.4632 171.351 72.563C154.642 84.9841 147.32 37.8082 178.875 58.3617Z" fill="#321C13"/>
<path opacity="0.44" d="M196.352 101.087C196.069 83.5276 179.361 95.3013 193.035 104.364C198.011 103.231 194.815 101.856 196.352 99.1449L196.352 101.087Z" fill="#321C13"/>
<path opacity="0.44" d="M120.66 104.971C126.971 97.8098 124.948 88.059 113.297 87.7354C109.575 92.2264 108.24 97.041 109.332 102.746C114.713 104.769 115.441 102.26 118.758 99.145L120.7 104.971L120.66 104.971Z" fill="#321C13"/>
<path opacity="0.44" d="M81.8226 35.057C80.7303 32.3462 82.7936 31.7393 80.0426 29.3926C70.8997 33.2363 68.6746 45.8596 81.8226 44.7672L81.8226 35.057Z" fill="#321C13"/>
<path opacity="0.44" d="M50.7528 93.3188C50.3483 91.4172 50.9551 89.6774 50.4696 87.7758C42.9449 89.5965 41.2053 95.6249 44.8059 102.867C49.4582 102.827 48.7705 100.075 50.7933 97.2029L50.7933 93.3188L50.7528 93.3188Z" fill="#321C13"/>
<path opacity="0.44" d="M39.3849 166.47L42.9854 167.117C43.6732 160.36 42.1359 154.251 37.6453 149.76C34.2066 156.274 34.1257 161.21 39.3849 166.47Z" fill="#321C13"/>
<path opacity="0.44" d="M153.833 238.367C154.723 239.5 156.22 240.471 157.717 240.309C158.364 240.268 159.052 240.309 159.699 240.309C159.618 240.309 159.538 240.309 159.457 240.309C159.659 240.309 159.861 240.349 160.104 240.39C160.225 240.39 160.306 240.39 160.428 240.39C162.491 240.349 163.907 239.176 165.363 237.881C166.455 236.91 167.588 236.02 167.993 234.523C168.357 233.228 168.276 231.448 167.912 230.153C167.184 227.564 164.797 225.743 162.127 225.662C161.722 225.662 161.358 225.662 160.953 225.703C160.832 225.703 160.711 225.703 160.549 225.703C159.214 225.42 157.879 225.622 156.787 226.674C155.694 227.281 154.804 228.333 154.359 229.668C153.914 231.124 153.146 232.54 152.903 234.078C152.62 235.696 152.741 237.072 153.793 238.407L153.833 238.367Z" fill="#321C13"/>
<path opacity="0.44" d="M147.482 202.924C149.505 204.421 153.307 203.207 153.307 200.132C153.307 197.057 149.464 195.843 147.482 197.34C144.245 198.028 144.245 202.276 147.482 202.964L147.482 202.924Z" fill="#321C13"/>
<path opacity="0.44" d="M118.718 253.903C122.925 253.903 122.925 247.348 118.718 247.348C114.511 247.348 114.511 253.903 118.718 253.903Z" fill="#321C13"/>
<path opacity="0.44" d="M79.8807 230.517C84.0072 230.517 84.0072 224.124 79.8807 224.124C75.7543 224.124 75.7543 230.517 79.8807 230.517Z" fill="#321C13"/>
<path opacity="0.44" d="M132.23 54.4773C134.455 58.321 139.593 56.2576 139.998 52.3735C140.119 51.0787 140.281 49.7436 140.402 48.368C141.413 47.4374 142.384 46.4258 143.072 45.0906C144.326 42.7035 142.829 39.6286 139.998 39.5477C139.795 38.7385 139.553 37.9293 139.229 37.1606C138.015 34.3284 133.403 35.2185 132.756 38.0102C132.473 39.1431 132.311 40.3569 132.19 41.5707C131.097 42.218 130.167 43.0273 129.601 44.0388C127.618 47.5992 130.491 51.5238 132.23 54.5178L132.23 54.4773Z" fill="#321C13"/>
<path opacity="0.44" d="M154.845 51.362C156.018 51.5238 156.584 51.807 157.353 52.7376C158.405 53.9919 160.508 53.83 161.601 52.7376C162.855 51.4834 162.612 49.7436 161.601 48.4894C160.144 46.6687 157.919 45.6571 155.613 45.8594C154.238 45.9808 153.024 46.8305 152.862 48.287C152.701 49.5413 153.469 51.1597 154.885 51.362L154.845 51.362Z" fill="#321C13"/>
<path opacity="0.44" d="M104.114 71.9563C104.275 75.719 109.818 75.719 109.98 71.9563C110.02 70.7425 109.98 69.731 109.373 68.6385C108.402 66.8988 105.691 66.8988 104.72 68.6385C104.114 69.6905 104.073 70.7425 104.114 71.9563Z" fill="#321C13"/>
<path opacity="0.44" d="M64.3459 74.9502C68.1891 74.9502 68.1891 68.9623 64.3459 68.9623C60.5026 68.9623 60.5026 74.9502 64.3459 74.9502Z" fill="#321C13"/>
<path opacity="0.44" d="M54.6366 109.867C58.4394 109.867 58.4394 103.96 54.6366 103.96C50.8338 103.96 50.8338 109.867 54.6366 109.867Z" fill="#321C13"/>
<path opacity="0.44" d="M20.1685 120.143C22.1104 119.253 24.2141 118.565 25.7514 117.028C27.6123 115.167 28.4619 112.416 29.4328 110.028C30.1206 108.289 28.9473 106.063 27.4505 105.173C27.2078 105.052 26.965 104.971 26.7223 104.89C25.7918 103.433 24.1736 102.503 22.3127 103.231C19.5617 104.283 15.5161 105.092 14.5857 108.289C14.3025 109.219 14.3834 110.028 14.4238 110.919C14.5047 112.942 14.3429 113.548 13.9788 115.288C13.1697 119.051 16.8107 121.64 20.209 120.062L20.1685 120.143Z" fill="#321C13"/>
<path opacity="0.44" d="M102.455 25.9938C102.334 26.5198 102.293 27.0459 102.374 27.6123C102.536 28.9475 102.859 30.3231 103.062 31.6583C103.385 33.6813 105.732 34.8141 107.633 34.45C108.321 34.6523 109.049 34.6927 109.858 34.5714C113.216 33.924 116.372 32.3865 117.828 29.1093C118.88 26.7626 119.001 24.0114 117.828 21.6647C117.666 21.3411 117.464 21.0983 117.221 20.8555C117.1 20.0463 116.978 19.2371 116.898 18.4684C116.453 15.4744 112.083 14.6652 110.222 16.6882C108.523 18.5493 106.298 20.3295 105.165 22.5952C105.165 22.6762 105.125 22.7167 105.085 22.7976C103.426 22.7976 101.848 24.0922 102.455 25.9938Z" fill="#321C13"/>
<path opacity="0.44" d="M184.944 43.9175C185.105 44.5244 185.267 45.0908 185.429 45.6977C185.874 47.2757 187.452 48.3276 189.07 48.0848C190.526 47.8825 192.145 46.5068 191.942 44.848C191.619 42.1372 191.336 38.7386 189.232 36.7561C187.897 35.5018 185.834 35.2186 184.215 36.1492C182.516 37.1607 181.667 39.0623 181.586 41.0044C181.505 43.1083 183.244 44.1197 184.944 43.9984L184.944 43.9175Z" fill="#321C13"/>
<path opacity="0.44" d="M84.7354 25.3469C85.0995 29.1096 90.1969 29.1096 90.561 25.3469C90.6824 24.0522 90.7228 23.162 90.0756 21.9887C89.0642 20.1275 86.1918 20.1275 85.1804 21.9887C84.5736 23.162 84.5736 24.0926 84.695 25.3469L84.7354 25.3469Z" fill="#321C13"/>
<path opacity="0.44" d="M144.69 99.4685C145.661 101.168 146.43 103.717 148.615 104.202C149.424 104.405 150.273 104.283 151.042 104.04C151.082 104.162 151.163 104.324 151.204 104.486C151.73 105.74 153.55 106.144 154.683 105.618C155.694 105.173 156.22 104.364 156.342 103.393C157.393 101.775 157.879 99.4281 157.393 97.7693C156.22 93.8042 151.204 93.8446 147.927 93.8042C145.014 93.8042 143.234 97.041 144.65 99.509L144.69 99.4685Z" fill="#321C13"/>
<path opacity="0.44" d="M209.136 119.132C209.298 119.415 209.5 119.618 209.702 119.86C209.702 119.86 209.702 119.901 209.743 119.901C209.985 120.184 210.228 120.508 210.471 120.75L210.471 120.912C210.471 120.912 210.511 120.953 210.511 121.034C210.511 121.115 210.511 121.155 210.511 121.196C210.511 121.196 210.511 121.196 210.511 121.276C210.309 122.167 210.511 123.34 211.037 124.068C212.211 125.808 215.447 126.455 216.539 124.19C216.539 124.19 216.539 124.149 216.58 124.109C216.701 123.866 216.822 123.623 216.984 123.421C217.227 123.299 217.47 123.218 217.712 123.057C218.845 122.167 219.492 120.224 218.522 118.93C217.955 118.161 217.429 117.554 216.661 116.988C216.58 116.907 216.458 116.826 216.337 116.745C215.852 116.057 215.285 115.41 214.638 114.884C213.262 113.791 211.482 113.427 209.985 114.601C208.691 115.653 208.084 117.635 209.095 119.173L209.136 119.132Z" fill="#321C13"/>
<path opacity="0.44" d="M216.58 124.109C216.58 124.109 216.58 124.149 216.539 124.19C216.135 124.958 216.499 124.311 216.58 124.109Z" fill="#321C13"/>
<path opacity="0.44" d="M243.159 123.744C244.454 125.646 247.69 126.334 249.187 124.311C250.401 125.241 252.464 124.877 253.111 123.097C256.145 114.884 253.556 105.861 246.598 100.642C245.101 99.509 242.593 100.359 241.743 101.896C237.9 109.017 238.668 117.028 243.159 123.704L243.159 123.744Z" fill="#321C13"/>
<path opacity="0.44" d="M49.9437 207.941C49.9437 207.941 50.0246 208.103 50.0651 208.184C49.4583 209.155 49.2964 210.449 49.9842 211.42C50.3078 211.906 50.6719 212.351 51.1169 212.756C51.6833 213.646 52.5733 214.172 53.5847 214.698C54.1106 215.628 54.5961 216.559 55.1625 217.489C57.0639 220.443 62.2017 219.472 62.0399 215.628C61.959 213.767 61.514 212.068 60.5026 210.692C59.3294 207.577 58.1157 204.745 54.7984 203.126C51.6429 201.589 48.2446 204.745 49.9842 207.941L49.9437 207.941Z" fill="#321C13"/>
<path opacity="0.44" d="M15.3544 172.336C15.7589 172.903 16.2444 173.429 16.7703 173.914C16.6894 174.238 16.6085 174.521 16.568 174.885C16.2444 177.677 19.5213 178.527 21.4631 177.313C22.96 177.394 24.295 175.856 23.8905 174.157C24.9828 172.458 25.9942 170.556 26.0751 168.776C26.2773 164.73 22.1104 162.99 18.8335 162.141C17.1344 161.696 15.3139 162.667 14.8689 164.406C14.1407 167.036 13.7766 169.949 15.3544 172.336Z" fill="#321C13"/>
<path opacity="0.44" d="M158.688 20.2891C159.335 22.919 163.179 25.0229 165.363 22.7976C167.062 21.0983 166.253 18.1043 164.311 17.0119C163.947 16.6073 163.543 16.2431 163.179 15.8385C161.318 13.9369 158.728 15.9195 159.052 18.1043C158.688 18.7516 158.486 19.5204 158.688 20.2891Z" fill="#321C13"/>
<path opacity="0.44" d="M218.805 54.1945C219.29 55.2869 220.261 56.1365 221.03 56.9862C224.104 60.3039 229.323 55.0847 226.006 52.0097C225.156 51.2005 224.307 50.2699 223.214 49.7844C220.18 48.4492 217.47 51.16 218.805 54.1945Z" fill="#321C13"/>
<path opacity="0.44" d="M192.954 228.656C193.318 231.893 197.768 232.864 198.82 229.465C198.982 228.899 199.063 228.252 199.103 227.645C201.409 229.061 204.16 225.46 202.056 223.599C202.056 223.599 201.975 223.518 201.935 223.477C201.935 223.194 201.773 222.83 201.733 222.587C201.611 221.819 201.49 221.09 201.045 220.362C199.508 217.773 196.352 218.218 193.925 219.027C192.792 219.391 191.74 220.524 191.821 221.819C191.983 224.084 192.711 226.633 192.913 228.697L192.954 228.656Z" fill="#321C13"/>
<path opacity="0.44" d="M222.405 195.156C223.376 198.109 227.058 201.913 230.092 198.757C231.063 197.745 231.386 196.046 230.699 194.792C230.577 193.861 230.375 192.85 230.092 191.636C229.445 189.046 225.439 189.127 224.711 191.312C223.053 191.676 221.677 193.133 222.365 195.156L222.405 195.156Z" fill="#321C13"/>
<path opacity="0.44" d="M105.975 127.871C106.055 128.923 106.622 130.137 107.552 130.744C107.552 130.865 107.552 130.946 107.552 131.067C106.42 134.345 110.344 136.732 113.095 135.316C114.025 134.709 114.915 134.102 115.846 133.495C116.533 133.657 116.857 133.576 117.626 133.495C118.718 133.333 119.972 132.079 120.134 130.987C120.296 129.773 120.013 128.761 119.487 127.871C119.325 126.698 118.678 125.808 117.747 125.201C117.14 124.351 116.372 123.704 115.401 123.299C113.944 121.802 112.043 120.143 110.141 120.953C109.777 121.114 109.494 121.276 109.211 121.438C108.645 121.519 108.119 121.721 107.674 122.085C105.975 123.421 105.813 125.929 105.934 127.912L105.975 127.871Z" fill="#321C13"/>
<path opacity="0.44" d="M73.327 97.1625C79.8404 98.1335 86.556 96.7579 91.7343 92.4691C93.9998 90.608 95.5775 88.2613 96.3462 85.7123C97.6812 83.8107 98.814 81.6664 99.6635 79.3198C100.432 77.2159 98.814 74.0195 96.4675 73.6958C95.9012 73.6149 95.3753 73.5744 94.8493 73.5339C93.4738 72.8057 92.0579 72.118 90.561 71.9966C88.2551 71.7943 86.3537 73.4531 84.695 74.9501C77.7771 77.5799 72.5584 83.4871 70.0906 91.4171C69.4028 93.602 70.8997 96.7983 73.3675 97.1625L73.327 97.1625Z" fill="#321C13"/>
<path opacity="0.44" d="M47.1119 64.107C49.4583 64.0261 51.562 62.9337 52.8161 60.8703C53.2207 60.2229 53.5443 59.4542 53.7871 58.7259C54.0702 58.5641 54.3534 58.3617 54.5962 58.1189C54.8389 57.8762 55.4457 56.9456 55.203 57.2693C54.8794 57.593 55.0412 57.4311 55.5671 56.7433C55.7694 56.4197 55.8907 56.096 55.9312 55.7318C56.0526 55.2463 56.1335 54.7204 56.093 54.2349C56.093 54.1135 56.093 53.9921 56.093 53.8302C55.9717 54.599 56.0121 54.4371 56.1335 53.3447C56.1335 52.8188 56.0121 52.2524 55.8098 51.7669C54.8389 49.2179 51.8856 48.2468 49.782 50.1889C47.2333 52.5356 45.3723 55.2059 43.6328 58.1594C42.1359 60.7084 44.0373 64.1879 47.031 64.107L47.1119 64.107Z" fill="#321C13"/>
<g style="mix-blend-mode:overlay" opacity="0.2">
<path d="M136.195 256.452C151.285 269.197 165.363 253.417 178.997 247.793C195.907 240.794 216.054 239.944 217.915 214.01C259.827 203.126 252.464 137.217 229.89 114.681C183.528 68.4764 108.847 102.503 122.399 170.475C110.991 166.025 96.8721 176.504 97.5598 189.855C81.6204 182.33 69.7265 198.595 70.2524 214.455C71.3042 246.62 106.986 256.169 136.195 256.371L136.195 256.452Z" fill="#F96974"/>
</g>
<g style="mix-blend-mode:multiply" opacity="0.3">
<path d="M132.311 0.140114C59.4103 0.140108 0.304922 59.2516 0.304916 132.16C0.304911 186.416 33.0334 233.026 79.8403 253.336C79.0312 251.111 77.9389 248.724 76.4825 246.215C71.3042 237.112 62.2422 230.113 57.6303 220.524C49.8628 204.38 55.0411 212.027 58.0753 196.248C60.7858 182.208 53.1397 176.787 52.6543 163.637C52.3306 154.858 59.3699 147.535 58.763 136.327C95.537 137.015 64.9527 92.3881 83.7241 83.8916C90.8442 80.6548 100.109 88.0183 108.2 87.4519C120.053 86.5618 126.607 84.9435 129.965 71.4704C140.281 74.1003 154.845 89.3131 157.96 68.1527C171.998 70.4185 185.146 67.3031 196.433 77.1348C204.079 83.8106 202.704 91.9025 211.846 96.1912C222.567 101.208 234.866 92.914 244.939 96.5553C254.567 100.075 254.972 110.312 263.023 113.629C254.001 49.4604 198.941 0.0996206 132.311 0.0996148L132.311 0.140114Z" fill="#50005B"/>
</g>
<g style="mix-blend-mode:overlay" opacity="0.2">
<path d="M0.264454 132.16C0.264452 154.696 5.92821 175.897 15.8803 194.468C14.3834 187.954 12.7652 181.682 12.2797 176.868C9.93331 152.268 12.4011 129.004 22.0295 106.589C51.1574 38.8196 120.903 5.19774 191.497 24.3351C198.415 26.1963 210.633 31.6988 222.122 35.4615C198.537 13.5324 166.981 0.140248 132.271 0.140245C59.3699 0.140239 0.26446 59.2517 0.264454 132.16Z" fill="#F96974"/>
</g>
<g style="mix-blend-mode:screen" opacity="0.2">
<path d="M130.369 223.437C125.15 252.77 165.97 253.094 171.512 229.506C203.027 245.406 243.24 201.467 234.946 168.938C215.973 94.411 108.2 144.176 130.369 223.437Z" fill="#FFB6BF"/>
</g>
<g style="mix-blend-mode:screen" opacity="0.17">
<path d="M174.991 190.422C143.922 214.698 178.997 247.268 208.165 215.669C245.424 175.29 178.43 136.408 167.224 190.422L174.991 190.422Z" fill="#FFB6BF"/>
</g>
<g style="mix-blend-mode:screen" opacity="0.17">
<path d="M219.048 173.793C219.371 173.793 219.573 173.307 219.209 173.145C216.661 171.851 215.366 169.99 215.892 167.036C216.377 164.163 218.522 162.14 221.192 164.285C221.515 164.568 222.082 164.487 222.203 164.002C222.648 162.262 223.255 160.563 222.769 158.823C222.769 158.742 222.648 158.742 222.608 158.823C221.96 160.077 221.637 161.493 221.273 162.869C214.436 158.054 211.037 174.44 219.048 173.793Z" fill="#FFB6BF"/>
</g>
<g style="mix-blend-mode:screen" opacity="0.17">
<path d="M216.863 156.152C217.106 156.597 217.753 156.274 217.672 155.829C217.227 153.604 215.811 152.066 215.083 149.962C213.222 144.379 218.036 138.391 222.608 135.639C228.19 132.281 237.738 133.778 242.714 137.784C242.714 137.784 242.795 137.784 242.754 137.743C238.466 132.039 227.826 130.906 221.879 134.426C218.036 136.691 214.112 141.182 213.181 145.673C212.332 149.76 215.164 152.673 216.863 156.152Z" fill="#FFB6BF"/>
</g>
<g style="mix-blend-mode:screen" opacity="0.17">
<path d="M172.483 193.416C172.766 193.74 173.292 193.456 173.292 193.092C173.131 188.278 169.935 184.434 172.888 179.579C177.217 172.417 184.741 173.914 191.012 177.151C191.093 177.192 191.214 177.07 191.133 176.989C185.631 172.175 178.228 171.123 172.928 176.868C169.045 181.076 168.802 188.965 172.524 193.375L172.483 193.416Z" fill="#FFB6BF"/>
</g>
<g style="mix-blend-mode:screen" opacity="0.17">
<path d="M180.453 200.253C182.759 201.831 185.712 202.6 188.463 202.276C188.585 202.276 188.625 202.114 188.463 202.074C186.198 201.548 183.932 200.982 181.95 199.727C180.858 199.04 179.927 198.19 179.239 197.097C178.633 196.086 178.511 194.953 177.904 193.942C177.702 193.577 177.176 193.699 177.055 194.063C176.246 196.41 178.592 199.039 180.413 200.253L180.453 200.253Z" fill="#FFB6BF"/>
</g>
<g style="mix-blend-mode:screen" opacity="0.17">
<path d="M111.031 219.189C111.881 221.373 113.985 222.547 116.048 223.356C116.129 223.356 116.129 223.275 116.088 223.235C114.349 222.021 112.528 220.605 112.002 218.46C111.476 216.356 112.731 214.738 112.852 212.715C112.852 212.351 112.367 212.149 112.124 212.391C110.546 213.929 110.303 217.125 111.031 219.148L111.031 219.189Z" fill="#FFB6BF"/>
</g>
<g style="mix-blend-mode:screen" opacity="0.17">
<path d="M88.7001 209.195C88.7001 209.195 88.8619 209.073 88.781 209.033C82.1867 202.883 76.1993 196.126 82.4699 186.942C86.3132 181.359 92.6647 179.619 98.4903 176.908C99.2589 176.544 98.6521 175.573 97.9643 175.694C89.7923 176.908 80.9731 182.249 78.5053 190.543C76.0375 198.837 81.0135 206.12 88.6191 209.195L88.7001 209.195Z" fill="#FFB6BF"/>
</g>
<g style="mix-blend-mode:screen" opacity="0.17">
<path d="M160.428 240.916C160.428 240.916 160.589 240.673 160.428 240.632C158.081 240.349 155.128 239.944 153.833 237.679C153.186 236.586 153.065 234.968 153.429 233.754C153.752 232.621 154.723 232.298 155.168 231.367C156.18 229.223 154.723 227.078 157.757 225.703C159.618 224.813 162.45 225.541 164.311 226.026C164.837 226.148 165.242 225.5 164.837 225.096C162.976 223.356 158.688 223.477 156.503 224.529C153.833 225.865 154.4 228.899 153.186 231.124C150.071 236.748 154.319 241.684 160.468 240.875L160.428 240.916Z" fill="#FFB6BF"/>
</g>
<g style="mix-blend-mode:screen" opacity="0.17">
<path d="M145.783 203.248C146.106 203.288 146.39 202.924 146.106 202.681C145.419 201.993 144.65 201.508 144.407 200.496C144.164 199.525 144.448 198.514 145.176 197.826C146.754 196.289 149.383 197.219 151.325 197.3C151.568 197.3 151.608 196.936 151.366 196.896C148.857 195.965 145.419 195.034 143.719 197.867C142.587 199.728 143.396 202.883 145.783 203.288L145.783 203.248Z" fill="#FFB6BF"/>
</g>
<g style="mix-blend-mode:screen" opacity="0.17">
<path d="M194.248 232.459C194.248 232.459 194.37 232.459 194.329 232.379C192.509 229.789 191.174 225.177 192.023 222.021C193.116 217.854 197.687 218.865 200.843 218.946C201.207 218.946 201.328 218.42 201.045 218.258C198.092 216.437 192.913 217.408 191.336 220.686C189.596 224.327 191.497 229.83 194.248 232.459Z" fill="#FFB6BF"/>
</g>
<g style="mix-blend-mode:screen" opacity="0.17">
<path d="M229.242 200.82C229.242 200.82 229.364 200.698 229.242 200.658C227.139 199.566 224.428 197.826 223.336 195.681C221.879 192.687 225.682 189.329 228.474 189.329C229.161 189.329 229.283 188.318 228.635 188.115C225.359 187.144 221.637 191.271 221.718 194.387C221.798 197.704 226.208 200.618 229.202 200.82L229.242 200.82Z" fill="#FFB6BF"/>
</g>
<g style="mix-blend-mode:screen" opacity="0.17">
<path d="M244.737 125.646C245.06 125.808 245.465 125.403 245.141 125.12C240.044 120.67 239.397 116.3 239.963 109.826C240.165 107.439 240.084 104.405 241.096 102.18C244.049 95.9893 250.643 103.515 252.828 106.468C252.868 106.549 252.99 106.468 252.949 106.387C250.239 101.613 241.905 94.2495 239.639 103.353C237.9 110.433 236.767 121.964 244.696 125.646L244.737 125.646Z" fill="#FFB6BF"/>
</g>
<g style="mix-blend-mode:screen" opacity="0.17">
<path d="M209.864 120.143C208.246 122.247 209.5 124.796 211.846 126.212C212.291 126.495 212.979 125.929 212.615 125.444C211.442 123.906 209.055 122.53 211.401 120.427C211.806 120.062 211.563 119.456 211.118 119.294C208.57 118.363 209.379 115.005 211.725 114.358C214.314 113.629 216.499 116.34 217.955 118.08C216.256 115.329 213.101 111.283 209.702 114.115C207.518 115.895 207.76 118.768 209.864 120.184L209.864 120.143Z" fill="#FFB6BF"/>
</g>
<g style="mix-blend-mode:screen" opacity="0.17">
<path d="M145.783 143.691C146.43 145.552 147.118 147.534 148.17 149.193C150.556 152.997 149.747 150.731 149.06 151.823C148.574 152.592 147.32 152.592 146.713 153.765C144.974 157.326 148.17 163.597 149.666 166.793C149.99 167.481 151.163 166.996 150.921 166.267C150.314 164.447 145.459 152.268 151.042 153.684C151.73 153.846 152.296 153.118 151.932 152.511C146.915 144.055 142.344 132.443 149.181 123.461C154.197 116.866 162.046 118.97 169.206 119.172C169.287 119.172 169.287 119.091 169.206 119.051C163.381 117.149 155.654 115.936 150.354 119.901C143.355 125.16 143.194 136.084 145.783 143.61L145.783 143.691Z" fill="#FFB6BF"/>
</g>
<g style="mix-blend-mode:screen" opacity="0.17">
<path d="M128.751 162.626C128.751 162.626 128.994 162.464 128.872 162.343C124.058 159.106 121.59 155.181 121.226 149.315C121.064 146.725 120.862 143.853 123.047 142.194C125.474 140.414 127.821 142.315 130.571 142.275C131.097 142.275 131.421 141.466 130.855 141.182C128.427 140.009 124.584 138.472 121.995 140.049C119.568 141.546 119.446 144.945 119.406 147.454C119.365 154.291 121.833 160.401 128.67 162.585L128.751 162.626Z" fill="#FFB6BF"/>
</g>
<g style="mix-blend-mode:screen" opacity="0.17">
<path d="M104.639 127.993C104.923 129.206 105.651 129.732 106.379 130.663C107.269 131.715 106.945 130.582 106.865 131.796C106.865 132.2 106.541 132.645 106.5 133.05C106.217 135.154 107.552 136.044 109.494 135.559C109.494 135.559 109.494 135.518 109.494 135.478C106.743 135.033 107.229 132.807 108.361 131.189C108.523 130.987 108.402 130.622 108.2 130.501C105.53 129.085 104.963 126.415 106.905 124.068C108.523 122.086 110.748 121.762 113.176 122.045C113.58 122.086 113.742 121.438 113.378 121.276C109.332 119.213 103.669 123.34 104.68 127.912L104.639 127.993Z" fill="#FFB6BF"/>
</g>
<g style="mix-blend-mode:screen" opacity="0.17">
<path d="M72.437 124.149C73.5293 131.755 54.3939 141.506 65.0336 148.991C62.6872 150.65 62.4445 153.199 64.0222 156.314C67.1373 162.424 74.2575 162.909 80.3663 162.585C80.4876 162.585 80.4876 162.424 80.3663 162.383C77.2512 162.019 72.0729 161.412 69.2815 159.672C67.0969 158.297 61.6354 152.228 67.1373 149.962C67.8655 149.679 68.1487 148.627 67.3801 148.182C57.7517 142.76 71.2638 132.807 74.1766 127.386C75.0261 125.848 75.5925 124.756 75.3498 122.935C75.2284 121.883 73.9338 121.681 73.4888 120.912C71.2638 118.404 70.6165 115.693 71.4256 112.78C72.1133 109.664 74.2979 108.329 77.9389 108.774C78.5862 109.341 79.7999 108.572 79.193 107.803C76.4825 104.162 73.2056 105.74 70.9401 109.179C69.4028 111.526 68.7555 114.277 69.241 117.068C69.7669 119.86 71.992 121.478 72.3965 124.108L72.437 124.149Z" fill="#FFB6BF"/>
</g>
<g style="mix-blend-mode:screen" opacity="0.17">
<path d="M116.331 254.308C116.331 254.308 116.493 254.227 116.453 254.146C115.117 252.77 114.956 249.938 115.967 248.32C117.343 246.216 119.163 247.43 121.105 247.47C121.307 247.47 121.388 247.187 121.226 247.106C119.123 246.013 116.574 245.892 115.32 248.198C114.349 250.019 114.632 253.013 116.372 254.267L116.331 254.308Z" fill="#FFB6BF"/>
</g>
<g style="mix-blend-mode:screen" opacity="0.17">
<path d="M76.8466 229.182C76.968 229.465 77.3321 229.344 77.2916 229.061C77.0489 227.483 77.2512 225.703 77.9389 224.286C78.9503 222.263 80.5281 222.304 82.1058 223.72C82.1463 223.72 82.2272 223.72 82.1867 223.639C81.0944 222.021 79.3144 221.454 77.9389 223.032C76.5634 224.61 75.997 227.24 76.8061 229.182L76.8466 229.182Z" fill="#FFB6BF"/>
</g>
<g style="mix-blend-mode:screen" opacity="0.17">
<path d="M49.0133 206.403C49.2964 207.415 49.2964 208.467 49.4987 209.478C50.0651 212.108 51.6024 214.293 53.8679 215.709C54.3938 216.033 54.8793 215.304 54.5152 214.9C52.9374 213.119 51.4001 211.946 50.8337 209.478C50.5506 208.264 50.2269 206.727 50.1055 205.513C49.9842 203.733 51.3192 202.114 53.1397 202.56C54.1511 202.802 55.0816 203.652 55.8098 204.34C56.9021 205.351 57.8325 206.646 59.208 207.334C59.2889 207.334 59.3698 207.293 59.2889 207.212C57.3875 205.715 56.3761 203.288 54.3534 201.912C52.3306 200.537 50.1055 201.508 49.0133 203.531C48.3255 204.744 48.7301 205.189 49.0537 206.403L49.0133 206.403Z" fill="#FFB6BF"/>
</g>
<g style="mix-blend-mode:screen" opacity="0.17">
<path d="M45.2914 102.26C45.2914 102.26 45.6959 102.179 45.5745 101.977C43.9968 99.1854 42.7427 97.2838 43.5518 93.8447C44.3204 90.4866 46.5455 88.2613 49.8224 87.3711C50.0651 87.2902 50.0246 86.8857 49.7415 86.8857C46.2623 87.1284 43.835 90.1629 42.9449 93.3187C42.1763 95.9486 42.2167 100.925 45.2914 102.22L45.2914 102.26Z" fill="#FFB6BF"/>
</g>
<g style="mix-blend-mode:screen" opacity="0.17">
<path d="M17.5389 119.82C17.8221 119.617 17.6603 119.132 17.2962 119.253C12.6843 120.791 14.0193 112.901 14.3834 110.312C14.7475 107.52 15.597 105.254 18.5098 104.324C20.5326 103.676 22.6767 103.636 24.6995 102.867C24.7804 102.867 24.74 102.746 24.6995 102.746C21.8676 103.231 18.1053 102.948 15.7993 104.931C13.9384 106.549 13.7361 109.179 13.4934 111.485C13.2506 113.751 12.6438 123.34 17.6198 119.82L17.5389 119.82Z" fill="#FFB6BF"/>
</g>
<g style="mix-blend-mode:screen" opacity="0.17">
<path d="M33.7211 161.251C34.4493 163.678 36.3912 168.21 39.6276 166.915C39.7085 166.915 39.6681 166.753 39.6276 166.794C36.3507 167.279 34.692 162.262 34.3279 159.754C33.802 155.789 35.8248 152.107 38.4949 149.355C38.8994 148.91 38.2926 148.344 37.8476 148.708C34.2875 151.5 32.4265 156.921 33.7616 161.251L33.7211 161.251Z" fill="#FFB6BF"/>
</g>
<g style="mix-blend-mode:screen" opacity="0.17">
<path d="M14.788 174.845C15.1521 177.232 16.0826 178.203 18.429 178.648C18.6312 178.688 18.6717 178.365 18.429 178.365C14.5857 178.527 16.4871 174.966 16.2039 173.348C16.1635 173.024 15.7993 172.741 15.7184 172.458C15.1521 170.677 14.343 169.585 14.1811 167.602C13.9384 164.487 16.0421 161.655 19.5617 162.585C21.2204 163.03 22.515 164.73 24.1332 165.418C24.4568 165.539 24.74 165.054 24.4973 164.811C22.5554 163.111 20.6945 161.129 17.9435 161.372C15.3543 161.614 13.5339 163.03 13.1698 165.579C12.6843 168.735 14.262 171.891 14.7475 174.845L14.788 174.845Z" fill="#FFB6BF"/>
</g>
<g style="mix-blend-mode:screen" opacity="0.17">
<path d="M111.8 104.324C112.326 104.162 112.164 103.514 111.679 103.433C107.552 102.907 109.575 98.1737 109.899 95.5034C110.061 94.0873 110.061 92.9139 110.789 91.6192C111.274 90.7695 111.881 90.2841 112.447 89.5558C112.973 88.868 113.216 88.2611 113.337 87.4924C116.897 87.9779 120.134 88.0993 123.289 90.1627C123.37 90.2436 123.492 90.0818 123.411 90.0008C120.174 87.1687 117.059 87.0473 112.973 86.2786C112.569 86.1977 112.286 86.4404 112.245 86.845C111.921 89.313 109.251 90.5673 108.806 93.2781C108.442 95.5033 108.038 97.85 107.835 100.116C107.552 102.827 108.725 105.254 111.841 104.364L111.8 104.324Z" fill="#FFB6BF"/>
</g>
<g style="mix-blend-mode:screen" opacity="0.17">
<path d="M119.325 103.717C119.77 104.647 120.538 105.052 121.509 105.173C121.671 105.173 121.752 104.971 121.631 104.85C120.943 104.283 120.417 103.636 120.255 102.746C120.093 101.977 120.377 101.249 120.093 100.521C119.972 100.156 119.568 100.116 119.325 100.44C118.678 101.289 118.88 102.827 119.325 103.757L119.325 103.717Z" fill="#FFB6BF"/>
</g>
<g style="mix-blend-mode:screen" opacity="0.17">
<path d="M70.8187 98.8615C71.3851 99.4684 72.1942 98.5783 71.7088 97.9714C66.3282 91.0528 74.1361 83.2441 78.8694 78.4294C81.7417 75.5164 84.9377 72.7246 89.2664 72.4819C93.1502 72.2796 96.9934 73.6956 100.715 74.5452C100.918 74.5857 101.079 74.3025 100.877 74.1811C96.7911 72.1581 92.1792 70.297 87.5268 71.1466C82.7936 71.9963 79.4762 75.4759 76.3207 78.8341C71.4256 84.0129 64.8313 92.1452 70.8592 98.821L70.8187 98.8615Z" fill="#FFB6BF"/>
</g>
<g style="mix-blend-mode:screen" opacity="0.17">
<path d="M160.347 75.1523C162.531 76.447 168.114 73.6148 168.68 75.7187C168.923 76.6088 166.375 78.7532 166.334 80.1288C166.294 81.7876 166.577 81.9091 167.71 83.2038C168.155 83.6893 168.923 83.0823 168.6 82.5159C167.184 79.9669 170.541 76.2447 170.946 73.5744C171.027 73.1698 170.784 72.6034 170.258 72.6439C168.6 72.8057 167.224 73.4935 165.606 73.7767C157.677 75.031 157.677 66.8177 158.971 61.6388C160.185 56.7028 162.45 54.1942 168.033 54.1942C172.079 54.1942 176.448 55.6103 179.563 58.1997C179.846 58.4425 180.17 58.483 180.493 58.3211C194.167 50.917 203.27 60.3846 213.95 67.5459C213.95 67.5459 214.031 67.5459 213.991 67.5054C204.281 59.2112 197.647 51.8881 184.013 55.0439C181.626 55.6103 180.655 56.1767 178.349 55.3675C175.72 54.437 173.859 53.2637 170.986 52.7782C168.033 52.2927 163.947 51.8071 161.318 53.7087C156.625 57.0668 154.602 71.7941 160.387 75.2332L160.347 75.1523Z" fill="#FFB6BF"/>
</g>
<g style="mix-blend-mode:screen" opacity="0.17">
<path d="M221.596 57.957C221.92 57.957 222.041 57.5119 221.758 57.35C219.412 56.0958 217.348 53.3446 218.562 50.5934C220.504 46.2237 224.792 50.5934 226.613 52.6163C226.694 52.6973 226.815 52.6163 226.774 52.495C224.873 49.9055 220.625 45.2932 217.996 49.8651C216.418 52.6164 218.198 57.6334 221.637 57.957L221.596 57.957Z" fill="#FFB6BF"/>
</g>
<g style="mix-blend-mode:screen" opacity="0.17">
<path d="M180.615 42.9466C181.222 43.8772 181.99 44.7269 183.042 45.091C184.215 45.536 185.024 45.7384 185.834 46.7903C186.279 47.3163 186.602 47.7209 187.169 48.1255C187.533 48.3682 187.897 47.8423 187.614 47.5186C186.198 45.9811 185.753 44.9292 183.77 44.2819C180.696 43.3108 180.089 40.074 181.303 37.4037C183.366 32.7913 188.018 35.3808 190.607 37.9702C190.607 37.9702 190.688 37.9701 190.688 37.9297C188.706 34.8952 183.892 32.063 181.141 35.9067C179.725 37.8892 179.239 40.7619 180.615 42.8658L180.615 42.9466Z" fill="#FFB6BF"/>
</g>
<g style="mix-blend-mode:screen" opacity="0.17">
<path d="M152.862 51.0382C154.4 52.252 155.937 53.1826 157.191 54.7201C157.474 55.0438 158 54.7606 158 54.3965C158.081 51.6047 153.55 50.9169 152.458 48.7725C151.932 47.8015 152.458 46.5472 153.348 45.9808C154.319 45.3739 155.694 45.5762 156.746 45.738C158.486 46.0213 160.144 46.5473 161.924 46.0618C162.005 46.0618 162.005 45.8999 161.924 45.8999C158.809 45.293 152.053 42.0967 151.001 47.316C150.678 48.8939 151.689 50.1077 152.862 51.0382Z" fill="#FFB6BF"/>
</g>
<g style="mix-blend-mode:screen" opacity="0.17">
<path d="M128.63 51.6051C129.398 54.4372 130.329 57.1075 133.484 57.7549C133.606 57.7549 133.646 57.6336 133.565 57.5931C131.178 55.8129 130.329 54.154 129.681 51.3218C129.439 50.3508 129.034 49.2584 128.994 48.2873C128.63 47.2354 128.913 46.2239 129.843 45.2529C129.843 43.7559 130.45 42.8253 131.664 42.4612C131.987 42.0161 132.392 41.5711 132.716 41.126C132.999 40.7619 132.716 40.155 132.958 39.7504C134.496 38.658 136.033 37.5656 137.611 36.4732C138.541 37.2419 139.431 38.0915 140.2 39.0221C140.524 39.3862 141.049 38.9412 140.847 38.5366C139.674 36.2708 137.449 34.0455 134.738 34.9761C133.525 35.3807 132.554 36.5136 132.109 37.6464C131.826 38.2938 132.028 39.1435 131.785 39.7504C130.329 43.4323 130.652 40.8833 129.358 42.2994C126.728 45.253 127.74 47.9232 128.711 51.6051L128.63 51.6051Z" fill="#FFB6BF"/>
</g>
<g style="mix-blend-mode:screen" opacity="0.17">
<path d="M159.093 22.919C159.335 23.1213 159.78 22.9189 159.659 22.5953C159.052 20.4914 157.393 18.347 158.364 16.0408C159.74 12.7231 163.3 16.5263 165.12 17.2951C165.201 17.2951 165.282 17.2142 165.201 17.1737C163.462 15.7172 160.225 12.2781 158.041 15.0698C156.584 16.931 157.272 21.4624 159.052 22.9594L159.093 22.919Z" fill="#FFB6BF"/>
</g>
<g style="mix-blend-mode:screen" opacity="0.17">
<path d="M103.75 33.8834C104.073 34.1666 104.599 33.8025 104.356 33.3979C103.021 31.1321 101.767 28.0976 102.738 25.4273C103.385 23.6875 105.408 22.9593 106.581 21.6241C107.593 20.4508 108.159 18.9942 109.13 17.8209C111.355 15.1101 115.401 14.4223 117.707 17.3759C117.868 17.5782 118.152 17.3759 118.111 17.1331C117.504 14.8674 115.32 14.2604 113.135 14.5032C109.899 14.8673 108.523 16.688 106.865 19.1965C105.408 21.4218 102.374 22.4737 101.524 25.0227C100.513 28.0167 101.363 31.7795 103.79 33.8025L103.75 33.8834Z" fill="#FFB6BF"/>
</g>
<g style="mix-blend-mode:screen" opacity="0.17">
<path d="M85.6659 27.693C85.9491 27.8549 86.2323 27.5312 86.1109 27.248C85.3827 25.5892 84.7759 24.3348 85.3827 22.4737C85.6255 21.7454 86.03 20.9362 86.7178 20.5721C87.6078 20.0866 88.5383 20.6126 89.3878 21.0172C89.5901 21.0981 89.7519 20.8958 89.6306 20.6935C88.1337 18.8323 85.8277 19.5202 84.8568 21.5027C84.0477 23.1615 83.7241 26.6411 85.7064 27.693L85.6659 27.693Z" fill="#FFB6BF"/>
</g>
<g style="mix-blend-mode:screen" opacity="0.17">
<path d="M76.8062 45.2124C77.0894 45.1719 77.0894 44.646 76.8062 44.6055C67.2587 43.1894 75.1071 25.2658 81.054 28.9476C81.135 28.9881 81.1754 28.9072 81.1349 28.8263C77.5749 24.6185 73.408 31.9012 72.437 34.7738C71.1829 38.4557 70.8997 46.0216 76.8062 45.2124Z" fill="#FFB6BF"/>
</g>
<g style="mix-blend-mode:screen" opacity="0.17">
<path d="M46.2219 64.8757C46.5455 64.7543 46.505 64.2688 46.1409 64.2688C41.8122 63.9452 44.8059 56.622 45.9387 54.3967C48.1233 50.0675 51.5215 46.9521 56.2953 49.7034C56.3357 49.7034 56.3762 49.7034 56.3357 49.6225C52.0879 44.2009 46.4646 50.7149 44.6846 54.8013C44.0373 56.2579 41.1649 66.8178 46.2219 64.8757Z" fill="#FFB6BF"/>
</g>
<g style="mix-blend-mode:screen" opacity="0.17">
<path d="M191.255 103.717C191.457 103.838 191.74 103.515 191.538 103.353C189.353 101.411 187.128 98.7405 187.169 95.6251C187.169 93.1166 189.272 90.8104 191.942 91.4578C193.884 91.9028 195.462 93.5211 196.433 95.18C196.473 95.2609 196.595 95.18 196.554 95.0991C194.774 91.66 189.879 88.7065 187.209 93.1166C185.024 96.7175 188.14 101.775 191.255 103.717Z" fill="#FFB6BF"/>
</g>
<g style="mix-blend-mode:screen" opacity="0.17">
<path d="M143.76 99.7921C144.367 101.613 145.459 104.283 147.158 105.335C147.522 105.578 147.886 105.133 147.725 104.769C146.39 101.936 142.668 98.2142 144.731 94.7346C146.47 91.7811 152.498 93.7636 154.966 94.856C155.047 94.856 155.128 94.7751 155.047 94.7346C152.579 92.7926 146.511 90.729 144.124 93.7635C142.749 95.4628 143.072 97.8905 143.76 99.7921Z" fill="#FFB6BF"/>
</g>
<g style="mix-blend-mode:screen" opacity="0.17">
<path d="M104.64 74.2217C104.64 74.2217 105.085 74.1004 104.963 73.8981C104.033 72.5224 103.871 71.0253 104.478 69.4878C104.761 68.8 105.165 68.0313 105.853 67.6267C106.5 67.2221 107.107 67.5054 107.795 67.384C107.997 67.384 108.078 67.1008 107.997 66.939C106.743 65.1588 104.397 67.5459 103.83 68.7192C103.062 70.3376 102.779 73.2911 104.68 74.2217L104.64 74.2217Z" fill="#FFB6BF"/>
</g>
<g style="mix-blend-mode:screen" opacity="0.17">
<path d="M62.8086 74.5454C62.8086 74.5454 63.1727 74.4241 63.0513 74.3027C62.2422 73.2507 61.3117 71.9965 61.6354 70.54C62.1209 68.3552 64.8718 68.8003 66.49 69.4476C66.6923 69.5285 66.7732 69.1644 66.49 69.1644C65.3573 69.0834 64.4673 68.3147 63.2941 68.4361C62.4445 68.517 61.7163 69.043 61.3522 69.8117C60.624 71.3492 61.4331 73.6958 62.7681 74.5859L62.8086 74.5454Z" fill="#FFB6BF"/>
</g>
<g style="mix-blend-mode:screen" opacity="0.17">
<path d="M202.582 221.171C210.471 214.455 216.418 204.218 217.753 193.901C218.845 185.486 215.811 174.359 207.275 170.839C206.547 170.556 205.94 171.648 206.506 172.134C221.718 184.96 215.528 205.918 202.582 218.258C195.988 224.529 172.726 233.835 167.952 221.05C167.831 220.766 167.467 220.888 167.507 221.171C169.813 235.898 195.664 227.078 202.582 221.171Z" fill="#FFB6BF"/>
</g>
<g style="mix-blend-mode:screen" opacity="0.17">
<path d="M173.171 231.043C179.887 231.893 184.62 234.037 191.578 232.985C198.092 232.014 204.362 229.02 209.581 225.096C219.857 217.408 227.26 204.623 232.115 192.971C236.888 181.48 235.998 169.666 231.225 158.256C226.329 146.604 217.267 139.847 205.94 134.952C205.131 134.628 204.484 135.639 205.252 136.125C209.864 139.2 215.042 141.304 219.29 144.864C224.266 149.032 227.826 154.817 230.092 160.846C234.704 173.267 234.097 184.596 228.312 196.41C223.376 206.525 216.984 217.408 207.76 224.125C202.218 228.171 195.664 231.084 188.787 231.852C183.406 232.459 178.43 230.477 173.171 230.841C173.05 230.841 173.05 231.003 173.171 231.043Z" fill="#FFB6BF"/>
</g>
<g style="mix-blend-mode:screen" opacity="0.17">
<path d="M205.859 104.647C216.701 108.896 225.439 113.063 232.479 122.652C238.102 130.339 243.361 138.35 246.314 147.535C252.585 167.117 247.609 189.451 233.976 204.744C233.935 204.785 233.976 204.866 234.056 204.825C248.863 190.179 254.284 166.955 248.014 147.09C244.696 136.53 238.385 126.779 231.467 118.201C224.752 109.867 215.932 107.034 206.061 103.919C205.535 103.757 205.374 104.526 205.859 104.728L205.859 104.647Z" fill="#FFB6BF"/>
</g>
<g style="mix-blend-mode:screen" opacity="0.17">
<path d="M51.8047 156.557C49.701 160.806 48.9324 166.065 49.6201 170.759C49.7819 171.77 51.562 171.568 51.4406 170.516C50.7529 163.314 53.3015 158.459 57.3875 152.875C60.0981 149.234 59.5721 146.968 60.0576 142.599C60.2599 140.737 62.0804 135.599 63.5368 134.264C64.6695 133.212 66.8137 132.848 68.2701 132.12C69.5242 131.513 70.8188 130.946 71.9111 130.016C74.4193 127.831 75.5925 124.594 76.6039 121.519C79.1121 113.751 78.5862 107.156 78.1412 99.1855C77.9389 95.4228 77.5344 90.6485 79.6785 87.3308C83.4004 81.5046 93.3929 83.1231 98.9353 84.9033C102.738 86.1171 104.842 87.9781 108.928 87.4521C113.297 86.8857 118.273 85.2269 122.238 83.3253C127.82 80.6145 129.277 73.0485 137.328 75.9616C141.09 77.2968 143.436 80.1694 147.805 80.0076C150.395 79.9267 151.811 78.9557 153.672 77.2969C156.746 74.5456 157.879 72.1989 162.208 71.4707C164.878 71.0256 167.912 71.2279 170.582 71.2279C177.54 71.1875 184.579 71.9157 190.81 75.2334C196.109 78.0251 199.265 82.3948 202.744 87.1285C208.812 95.3418 214.517 98.9023 224.994 98.0122C232.6 97.3648 240.813 95.18 247.771 99.5092C252.99 102.746 256.347 108.37 260.838 112.456C261 112.618 261.243 112.375 261.081 112.214C255.296 105.619 250.4 97.203 241.096 95.5846C234.097 94.3708 227.139 96.7984 220.18 96.4747C211.482 96.0701 207.518 90.5271 202.784 84.0941C196.918 76.0831 189.758 71.2683 179.725 69.8927C171.836 68.8003 160.913 67.4651 154.642 73.0485C149.586 77.5396 147.482 79.9267 141.252 76.4068C139.674 75.5166 138.258 74.1815 136.559 73.4937C133.242 72.1585 130.491 72.8463 127.942 75.3548C125.798 77.4182 125.029 79.8458 122.238 81.4237C119.608 82.8803 116.331 83.7299 113.459 84.5391C106.217 86.6429 100.432 82.5971 93.3524 81.7474C87.1223 80.9787 80.164 81.1809 77.3321 87.6949C74.2575 94.7753 77.2107 103.029 76.8871 110.393C76.5634 118.525 73.8529 127.426 66.1259 130.906C62.849 132.403 59.7744 133.819 58.5608 137.46C57.6707 140.171 58.5608 143.003 58.1967 145.714C57.3876 151.298 53.9488 152.43 51.8856 156.598L51.8047 156.557Z" fill="#FFB6BF"/>
</g>
<g style="mix-blend-mode:screen" opacity="0.17">
<path d="M251.695 147.939C254.77 149.517 256.833 146.321 257.237 143.003C257.966 141.628 258.047 140.131 256.954 139.119C256.954 138.917 257.035 138.714 256.995 138.553C256.995 137.865 256.469 137.339 255.781 137.298C255.053 136.732 254.001 136.611 253.232 137.46C252.828 137.905 252.464 138.431 252.18 138.957C249.551 141.466 248.216 146.24 251.655 147.98L251.695 147.939Z" fill="#FFB6BF"/>
</g>
<g style="mix-blend-mode:screen" opacity="0.17">
<path d="M255.255 154.696C255.255 154.696 255.377 154.817 255.417 154.898C255.579 155.141 256.064 155.1 256.226 154.898L256.388 154.696C257.682 153.037 253.961 153.037 255.255 154.696Z" fill="#FFB6BF"/>
</g>
<g style="mix-blend-mode:screen" opacity="0.17">
<path d="M200.195 236.95C200.398 237.355 200.802 237.679 201.328 237.76C201.328 237.76 201.368 237.76 201.409 237.76C201.773 237.921 202.178 237.962 202.623 237.76C202.825 237.679 202.987 237.598 203.149 237.476C203.553 237.314 203.958 237.112 204.362 236.829C204.443 236.789 204.443 236.708 204.524 236.627C205.212 236.222 205.293 235.332 204.726 234.846C204.686 234.765 204.564 234.725 204.484 234.685C204.443 234.685 204.403 234.604 204.322 234.563C204.241 234.523 204.16 234.401 204.039 234.361C202.663 233.916 201.773 234.159 200.519 234.846C199.831 235.211 199.588 236.343 200.195 236.91L200.195 236.95Z" fill="#FFB6BF"/>
</g>
<g style="mix-blend-mode:screen" opacity="0.17">
<path d="M166.455 246.499C167.386 246.701 168.276 246.661 169.126 246.458C169.854 246.377 170.582 246.216 171.108 245.973C173.292 245.002 175.194 242.372 174.142 240.106C174.304 239.904 174.466 239.702 174.668 239.499C175.437 238.65 174.708 237.072 173.495 237.476C172.969 237.638 172.483 237.881 171.998 238.124C171.796 238.124 171.634 238.124 171.431 238.124C169.935 238.447 168.6 239.742 167.629 240.835C166.779 241.725 165.889 242.898 165.889 244.193C165.808 244.314 165.727 244.395 165.687 244.516C165.242 245.245 165.687 246.297 166.496 246.499L166.455 246.499Z" fill="#FFB6BF"/>
</g>
<g style="mix-blend-mode:screen" opacity="0.17">
<path d="M141.252 188.561C141.454 188.682 141.656 188.763 141.859 188.844C141.98 189.087 142.101 189.329 142.263 189.572C142.789 190.26 143.679 190.665 144.488 190.179C145.985 189.248 146.673 187.994 146.673 186.214C146.673 185.89 146.592 185.607 146.43 185.364C146.43 185.243 146.43 185.162 146.39 185.041C146.39 184.838 146.39 184.636 146.39 184.393C146.349 184.151 146.228 183.948 146.066 183.746C145.54 182.654 144.448 181.763 143.153 182.128C141.292 182.654 140.807 185.283 140.564 186.861C140.443 187.549 140.645 188.156 141.252 188.561Z" fill="#FFB6BF"/>
</g>
<g style="mix-blend-mode:screen" opacity="0.17">
<path d="M186.279 153.32C187.33 153.32 187.533 152.026 186.764 151.459C186.724 151.459 186.683 151.378 186.602 151.338C186.4 151.216 186.076 151.216 185.874 151.338C185.834 151.338 185.793 151.419 185.712 151.459C184.944 152.026 185.146 153.32 186.198 153.32L186.279 153.32Z" fill="#FFB6BF"/>
</g>
<g style="mix-blend-mode:screen" opacity="0.17">
<path d="M198.739 156.8C199.265 157.569 200.074 157.731 200.883 157.366C202.704 156.557 203.877 154.737 204.241 152.795C204.888 151.298 205.009 149.477 204.564 148.02C204.403 147.494 203.877 147.09 203.31 147.09C198.82 147.09 196.312 153.28 198.739 156.8Z" fill="#FFB6BF"/>
</g>
<g style="mix-blend-mode:screen" opacity="0.17">
<path d="M190.729 144.581C191.376 144.581 191.983 144.5 192.63 144.338C193.196 144.176 193.641 143.489 193.439 142.922C193.358 142.72 193.277 142.599 193.196 142.437C193.803 141.83 193.358 140.657 192.306 140.859C190.85 141.142 190.567 141.87 189.798 143.003C189.313 143.691 189.96 144.622 190.729 144.622L190.729 144.581Z" fill="#FFB6BF"/>
</g>
<g style="mix-blend-mode:screen" opacity="0.17">
<path d="M155.249 187.792C155.411 188.156 155.735 188.358 156.099 188.52C157.151 189.572 159.093 189.248 159.497 187.67C159.78 187.347 159.942 186.942 159.942 186.416C159.942 185.809 159.942 185.202 159.942 184.595C160.832 181.48 160.792 174.359 156.22 176.059C152.256 177.515 154.036 184.96 155.29 187.792L155.249 187.792Z" fill="#FFB6BF"/>
</g>
<g style="mix-blend-mode:screen" opacity="0.17">
<path d="M164.837 181.763C164.837 181.763 164.716 181.642 164.635 181.601C164.514 181.48 164.352 181.48 164.23 181.601C164.149 181.642 164.109 181.723 164.028 181.763C162.936 182.815 165.889 182.815 164.797 181.763L164.837 181.763Z" fill="#FFB6BF"/>
</g>
<g style="mix-blend-mode:screen" opacity="0.17">
<path d="M131.259 216.235C131.583 218.784 133.08 221.738 136.154 220.524C138.865 219.472 139.714 215.507 139.633 212.958C139.633 211.785 139.35 210.53 138.622 209.64C138.339 208.184 137.732 206.889 136.559 205.958C135.426 205.068 134.132 205.19 133.242 206.403C132.999 206.727 132.797 207.172 132.635 207.577C129.722 209.195 129.722 213.282 131.259 216.235Z" fill="#FFB6BF"/>
</g>
<g style="mix-blend-mode:screen" opacity="0.17">
<path d="M152.336 216.033C153.955 216.599 156.342 215.587 155.816 213.564C155.694 213.119 155.411 212.755 155.087 212.432C154.926 212.148 154.723 211.825 154.4 211.501C154.036 211.137 153.388 211.016 152.943 211.299C151.406 212.391 149.586 215.102 152.336 216.033Z" fill="#FFB6BF"/>
</g>
<g style="mix-blend-mode:screen" opacity="0.17">
<path d="M136.397 238.933C136.923 239.58 138.015 239.661 138.743 239.338C139.027 239.216 139.229 239.014 139.472 238.852C139.755 238.731 140.038 238.65 140.321 238.488C140.402 238.447 140.443 238.366 140.523 238.326C140.726 238.447 140.968 238.488 141.171 238.245C141.778 237.598 142.263 236.789 142.708 235.979C143.436 234.847 143.922 233.552 143.962 232.298C144.003 231.933 144.084 231.61 144.124 231.246C144.286 228.697 142.546 226.633 139.917 227.726C137.206 228.818 134.334 231.933 133.767 234.847C133.363 237.031 134.657 238.447 136.357 238.973L136.397 238.933Z" fill="#FFB6BF"/>
</g>
<g style="mix-blend-mode:screen" opacity="0.17">
<path d="M204.119 199.444C204.484 199.97 205.252 200.294 205.859 199.889C206.385 199.566 206.83 199.161 207.194 198.675C208.367 198.069 209.055 196.45 208.893 194.953C209.015 194.144 208.974 193.335 208.772 192.526C208.57 191.716 207.477 191.191 206.749 191.716C206.061 192.202 205.131 193.294 204.484 194.468C203.27 195.722 203.027 197.907 204.119 199.444Z" fill="#FFB6BF"/>
</g>
<g style="mix-blend-mode:screen" opacity="0.17">
<path d="M194.653 183.26C194.653 184.029 194.653 184.798 194.693 185.526C194.693 186.619 195.826 187.671 196.999 187.266C197.08 187.266 197.161 187.185 197.242 187.145C198.173 187.266 199.103 186.861 199.71 186.133C200.398 185.243 200.681 183.989 200.681 182.694C202.056 180.428 200.6 175.978 197.728 176.827C197.363 176.868 196.999 177.03 196.716 177.272C196.676 177.313 196.635 177.353 196.595 177.394C196.554 177.434 196.473 177.475 196.433 177.515C194.734 178.85 194.451 181.197 194.653 183.26Z" fill="#FFB6BF"/>
</g>
<g style="mix-blend-mode:screen" opacity="0.17">
<path d="M179.725 209.195C181.262 209.195 181.262 206.808 179.725 206.808C178.188 206.808 178.188 209.195 179.725 209.195Z" fill="#FFB6BF"/>
</g>
<g style="mix-blend-mode:screen" opacity="0.17">
<path d="M198.982 192.283C199.103 192.728 199.588 193.214 200.114 193.133C201.045 193.011 201.53 192.647 201.894 191.959C201.894 191.959 201.894 191.959 201.894 191.919C201.975 191.757 202.056 191.555 202.137 191.352C202.461 190.422 201.288 189.572 200.519 189.977C200.317 189.896 200.074 189.815 199.791 189.815C198.982 189.775 198.577 190.584 198.698 191.272C198.779 191.636 198.86 191.959 198.941 192.283L198.982 192.283Z" fill="#FFB6BF"/>
</g>
<g style="mix-blend-mode:screen" opacity="0.17">
<path d="M168.478 206.444C168.802 206.525 169.085 206.484 169.368 206.484C169.611 207.374 170.137 208.103 171.27 208.345C173.252 208.75 175.477 207.01 175.437 204.987C175.437 203.612 174.466 202.438 173.292 202.115C173.292 201.67 173.292 201.265 173.131 200.82C172.807 199.687 170.946 199.242 170.42 200.456C170.339 200.658 170.218 200.901 170.137 201.184C168.842 201.548 167.831 203.49 167.507 204.744C167.345 205.432 167.75 206.282 168.478 206.444Z" fill="#FFB6BF"/>
</g>
<g style="mix-blend-mode:screen" opacity="0.17">
<path d="M171.998 220.362C174.142 220.362 175.598 217.772 175.072 215.79C175.072 215.304 175.072 214.778 174.87 214.293C174.546 213.524 173.697 213.403 173.171 213.969C172.443 213.807 171.674 213.929 171.027 214.252C170.825 214.252 170.582 214.171 170.38 214.171C169.975 214.171 169.49 214.374 169.328 214.778C168.357 216.963 169.125 220.281 172.038 220.321L171.998 220.362Z" fill="#FFB6BF"/>
</g>
<g style="mix-blend-mode:screen" opacity="0.17">
<path d="M192.185 209.357C192.104 209.802 192.428 210.328 192.913 210.328C192.994 210.53 193.237 210.611 193.439 210.49C193.682 210.53 193.965 210.571 194.248 210.611C195.219 210.692 195.705 209.317 195.017 208.71C194.37 208.103 193.763 207.981 192.913 208.184C192.226 208.346 192.064 208.912 192.226 209.398L192.185 209.357Z" fill="#FFB6BF"/>
</g>
<g style="mix-blend-mode:screen" opacity="0.17">
<path d="M182.152 225.339C183.932 225.055 186.076 222.628 184.66 220.929C184.377 220.564 183.851 220.686 183.568 220.929C183.083 221.293 183.083 221.697 182.84 222.223C182.557 221.9 181.95 221.738 181.667 222.142C181.1 222.83 181.141 223.356 180.898 224.125C180.655 224.934 181.424 225.501 182.152 225.379L182.152 225.339Z" fill="#FFB6BF"/>
</g>
<g style="mix-blend-mode:screen" opacity="0.17">
<path d="M174.749 163.071C174.749 163.071 174.749 163.233 174.83 163.354C174.992 163.84 175.396 164.245 175.882 164.487C176.124 164.69 176.448 164.851 176.772 164.973C177.338 165.175 178.066 164.811 178.349 164.325C178.592 163.921 178.754 163.516 178.916 163.071C178.956 163.031 179.037 162.99 179.078 162.95C179.927 161.817 180.413 160.401 180.413 158.985C180.413 158.985 180.413 158.904 180.413 158.863C180.736 157.083 180.574 153.644 178.066 153.685C175.72 153.685 174.708 156.759 174.385 158.661C174.142 160.118 174.142 161.776 174.749 163.112L174.749 163.071Z" fill="#FFB6BF"/>
</g>
<g style="mix-blend-mode:screen" opacity="0.17">
<path d="M142.465 170.313C142.465 170.313 142.546 170.394 142.587 170.435C143.234 170.92 144.245 170.677 144.245 169.747C144.245 168.169 143.76 167.683 142.384 167.036C141.697 166.712 141.009 166.996 140.766 167.683C140.564 168.331 140.443 168.897 140.443 169.585C140.443 170.596 141.858 171.122 142.465 170.313Z" fill="#FFB6BF"/>
</g>
<g style="mix-blend-mode:screen" opacity="0.17">
<path d="M188.463 119.698C188.463 119.698 188.463 119.82 188.423 119.86C188.18 120.912 188.908 122.004 190.041 121.964C190.162 121.964 190.243 121.924 190.365 121.924C191.376 122.45 192.59 122.45 193.844 121.438C195.098 120.467 195.988 118.849 195.988 117.271C195.988 116.34 195.664 115.207 195.017 114.479C194.936 114.196 194.855 113.913 194.734 113.67C194.167 112.618 192.792 112.577 191.983 113.306C191.781 113.467 191.619 113.71 191.457 113.913C189.92 114.196 188.585 115.531 188.261 117.109C188.059 117.999 188.18 118.889 188.504 119.698L188.463 119.698Z" fill="#FFB6BF"/>
</g>
<g style="mix-blend-mode:screen" opacity="0.17">
<path d="M228.11 180.509C228.11 180.509 228.352 180.226 228.474 180.064C228.878 179.983 229.08 179.457 229.121 178.972C229.121 178.567 228.676 178.203 228.312 178.365C228.271 178.365 228.231 178.365 228.19 178.405C227.907 178.203 227.543 178.162 227.3 178.405C226.977 178.769 226.977 179.093 226.774 179.457C226.168 180.307 227.462 181.197 228.15 180.509L228.11 180.509Z" fill="#FFB6BF"/>
</g>
<g style="mix-blend-mode:screen" opacity="0.17">
<path d="M100.351 249.979C100.351 249.979 100.553 249.817 100.392 249.776C87.2841 245.528 94.2424 224.853 106.865 228.656C111.193 229.951 114.875 233.916 113.863 238.69C112.892 243.262 108.361 247.065 103.669 246.58C97.5598 245.973 95.9415 239.742 99.8657 235.413C101.484 233.633 110.425 229.425 109.494 236.02C109.211 238.002 106.662 239.621 105.165 240.632C104.68 240.956 104.963 241.846 105.57 241.644C108.28 240.673 111.679 237.476 110.951 234.28C110.101 230.598 104.923 230.558 102.212 231.853C93.9592 235.777 94.2424 247.996 104.437 248.117C113.378 248.239 119.123 236.384 112.205 230.153C106.581 225.055 98.2475 226.269 94.202 232.581C89.7923 239.499 92.1387 247.834 100.27 249.979L100.351 249.979Z" fill="#FFB6BF"/>
</g>
<g style="mix-blend-mode:screen" opacity="0.17">
<path d="M108.159 163.961C110.303 164.608 113.742 164.204 115.037 162.1C116.452 159.875 114.066 158.175 112.083 157.811C111.679 157.73 111.476 158.216 111.8 158.459C112.812 159.187 113.621 159.389 113.661 160.724C113.702 161.898 113.54 161.979 112.569 162.505C111.315 163.111 109.777 163.233 108.442 162.869C105.206 161.938 103.183 158.58 105.691 155.788C108.402 152.794 114.389 152.592 116.897 155.95C118.637 158.297 118.475 161.695 117.059 164.123C115.077 167.522 111.274 168.29 107.633 167.441C107.471 167.441 107.431 167.643 107.552 167.683C111.396 169.099 115.562 168.533 117.868 164.851C119.689 161.979 119.851 157.892 117.747 155.1C115.077 151.58 109.251 151.459 105.853 153.968C101.605 157.123 103.264 162.464 108.078 163.88L108.159 163.961Z" fill="#FFB6BF"/>
</g>
<g style="mix-blend-mode:screen" opacity="0.17">
<path d="M165.363 110.959C167.669 111.849 170.42 110.595 172.686 110.11C174.87 109.665 178.39 109.503 176.488 113.185C175.841 114.479 174.344 115.41 173.09 116.017C172.2 116.502 171.229 116.786 170.177 116.826C167.871 116.826 167.669 115.936 169.611 114.237C170.056 114.075 170.056 113.225 169.49 113.306C164.271 113.994 166.941 118.728 171.189 118.04C174.263 117.554 182.031 111.081 176.407 108.734C174.547 107.965 171.998 109.058 170.177 109.503C167.831 110.069 165.444 110.757 163.947 108.249C162.45 105.781 164.19 102.706 166.536 101.411C170.096 99.4284 175.517 101.573 178.552 103.798C180.655 105.335 182.476 107.601 182.395 110.352C182.274 114.277 178.835 118.08 174.911 118.444C174.789 118.444 174.789 118.606 174.911 118.606C181.262 119.173 185.591 111.323 182.354 106.064C179.644 101.613 171.674 97.7695 166.577 99.9948C162.289 101.856 159.74 108.896 165.282 111.04L165.363 110.959Z" fill="#FFB6BF"/>
</g>
<g style="mix-blend-mode:screen" opacity="0.17">
<path d="M229.728 91.3769C235.311 89.4753 233.733 79.5626 228.312 78.5916C227.584 78.4702 227.3 79.4818 227.988 79.7246C230.577 80.5742 231.872 82.4758 231.831 85.227C231.831 87.3309 230.699 90.7295 227.988 90.244C223.053 89.3943 222.243 78.9962 224.226 75.5976C226.653 71.3898 231.508 73.4129 234.218 75.9214C236.605 78.1467 237.94 80.9787 237.9 84.2964C237.859 90.4463 230.699 100.885 223.457 96.5962C226.491 99.2261 231.022 97.8909 233.895 95.5847C237.9 92.4288 240.125 86.8454 239.235 81.7879C238.142 75.6381 227.381 66.2515 223.053 74.9099C221.07 78.8749 222.365 93.845 229.809 91.3365L229.728 91.3769Z" fill="#FFB6BF"/>
</g>
<g style="mix-blend-mode:screen" opacity="0.17">
<path d="M58.8035 180.873C63.4154 188.196 68.7556 179.417 63.82 177.07C63.4963 176.908 63.0513 177.272 63.2941 177.596C64.4673 179.457 65.0337 179.457 62.3231 180.145C59.6531 180.833 59.734 180.185 58.844 177.879C58.1562 176.099 57.6303 174.116 57.5494 172.215C57.3067 167.522 61.7972 167.36 64.9932 169.706C67.7442 171.77 69.2006 174.845 69.7669 178.162C70.4142 182.249 69.7669 189.532 64.9527 190.988C59.1676 192.768 58.5203 185.364 56.8212 181.804L56.7403 181.804C57.9135 184.838 57.6303 189.572 60.8263 191.433C63.4964 193.011 66.8137 191.797 68.6342 189.572C74.1766 182.653 70.9402 169.99 62.6872 166.915C53.6252 163.516 56.2144 176.625 58.8844 180.914L58.8035 180.873Z" fill="#FFB6BF"/>
</g>
<g style="mix-blend-mode:screen" opacity="0.17">
<path d="M117.423 77.1752C122.076 81.6662 128.225 78.3485 128.104 72.0368C127.982 65.7251 120.579 60.2631 118.071 68.4359C117.909 69.0024 118.718 69.3261 119.001 68.8405C126.081 57.5523 130.369 82.3945 120.053 77.1347C115.198 74.6667 114.227 65.6847 117.585 61.7196C122.076 56.4194 127.861 62.5287 128.872 67.1007C129.762 71.2276 129.479 76.3255 126.809 79.8051C126.728 79.886 126.89 80.0074 126.971 79.9264C130.733 75.7996 131.623 69.1237 129.56 63.9853C127.618 59.2516 121.186 55.6911 116.857 59.9394C112.65 64.1067 113.337 73.2102 117.423 77.1752Z" fill="#FFB6BF"/>
</g>
<g style="mix-blend-mode:screen" opacity="0.17">
<path d="M44.6441 134.304C49.0538 139.645 58.6012 139.079 63.3345 134.547C63.4154 134.466 63.3345 134.264 63.1727 134.345C57.7517 138.148 45.615 138.027 44.5632 129.692C43.835 123.866 49.9842 120.305 55.203 121.641C58.844 122.571 61.9995 126.9 56.538 128.762C55.648 129.085 54.4748 129.449 53.5443 129.247C52.007 129.409 51.3193 128.236 51.5215 125.687C52.1688 125.687 52.7757 125.606 53.4229 125.525C53.9893 125.484 54.1916 124.797 53.7061 124.473C51.7238 123.178 48.2447 124.594 48.2447 127.184C48.2447 130.663 52.6947 131.189 55.203 130.825C58.1967 130.38 62.3231 128.316 61.3118 124.635C60.3813 121.276 56.2144 119.658 53.0993 119.618C45.5746 119.496 39.1422 127.669 44.6037 134.264L44.6441 134.304Z" fill="#FFB6BF"/>
</g>
<g style="mix-blend-mode:screen" opacity="0.17">
<path d="M28.7451 203.814C31.4151 207.01 34.8943 206.565 37.3621 203.49C41.4076 198.392 42.4595 185.243 35.7034 181.602C28.7451 177.879 29.4733 190.543 30.2419 194.023C30.6869 195.965 31.6579 200.456 34.5707 198.999C37.9285 197.34 36.2293 191.352 34.5707 189.168C34.1256 188.561 33.2761 189.046 33.5593 189.734C34.1256 191.029 35.0966 192.688 34.9347 194.185C35.4607 195.763 34.5302 196.41 32.1433 196.127C31.9411 195.601 31.7792 195.034 31.6579 194.468C31.2938 193.011 31.051 191.514 30.9297 190.017C30.8083 188.197 30.7678 186.133 31.4151 184.434C33.2761 179.457 37.2003 184.596 38.0498 187.104C39.5467 191.555 39.668 196.855 37.4025 201.063C36.7553 202.236 35.8652 203.814 34.5707 204.38C31.5365 205.716 29.1901 203.126 28.2596 200.658C27.2078 197.866 27.1268 194.225 27.5718 191.312C27.5718 191.231 27.4909 191.231 27.4505 191.312C25.8727 195.237 25.8727 200.456 28.7046 203.855L28.7451 203.814Z" fill="#FFB6BF"/>
</g>
<g style="mix-blend-mode:screen" opacity="0.17">
<path d="M146.794 258.596C147.037 259.122 147.886 259.446 148.412 259.244C149.626 258.799 150.921 258.151 151.325 256.816C151.406 256.533 151.446 256.25 151.446 255.967C151.811 255.117 151.811 254.186 151.001 253.499C150.637 253.175 150.152 253.094 149.707 253.337C149.666 253.337 149.666 253.418 149.626 253.418C149.464 253.418 149.343 253.458 149.181 253.499C148.695 253.499 148.17 253.579 147.725 253.944C147.401 254.186 147.199 254.51 147.077 254.834C146.349 255.805 146.187 257.14 146.794 258.596Z" fill="#FFB6BF"/>
</g>
<g style="mix-blend-mode:screen" opacity="0.17">
<path d="M131.461 250.666C131.461 250.666 131.623 250.788 131.745 250.828C132.958 251.597 132.958 248.927 131.745 249.695C131.664 249.736 131.583 249.817 131.461 249.857C131.178 250.059 131.178 250.464 131.461 250.666Z" fill="#FFB6BF"/>
</g>
<g style="mix-blend-mode:screen" opacity="0.17">
<path d="M121.307 234.644C124.301 234.806 126.324 230.558 124.705 228.211C123.815 226.957 122.197 227.078 121.105 227.968C121.064 227.968 121.024 228.049 120.984 228.09C120.458 228.17 120.013 228.373 119.608 228.737C117.949 230.355 118.799 234.482 121.307 234.604L121.307 234.644Z" fill="#FFB6BF"/>
</g>
<g style="mix-blend-mode:screen" opacity="0.17">
<path d="M119.648 178.486C120.741 177.434 118.678 175.978 118.071 177.272C117.585 178.243 118.799 179.336 119.648 178.486Z" fill="#FFB6BF"/>
</g>
<g style="mix-blend-mode:screen" opacity="0.17">
<path d="M134.698 130.663C135.628 131.27 136.761 130.785 137.328 129.975C137.732 129.449 138.056 128.842 138.379 128.195C138.541 127.912 138.663 127.588 138.743 127.265C139.269 125.889 139.512 124.432 139.188 123.057C139.027 122.409 138.663 122.045 138.218 121.843C137.813 120.993 136.559 120.751 135.75 121.398C135.345 121.438 134.941 121.6 134.698 121.883C132.594 124.351 131.502 128.6 134.698 130.623L134.698 130.663Z" fill="#FFB6BF"/>
</g>
<g style="mix-blend-mode:screen" opacity="0.17">
<path d="M129.924 99.8328C130.005 100.602 130.531 101.33 131.381 101.289C134.577 101.087 135.831 97.4862 135.305 94.6945C135.022 93.2784 132.797 93.3188 132.473 94.6945C132.473 94.8158 132.432 94.9372 132.392 95.0586C132.19 95.0586 131.987 95.0586 131.826 95.18C130.167 96.1105 129.722 98.0122 129.884 99.7924L129.924 99.8328Z" fill="#FFB6BF"/>
</g>
<g style="mix-blend-mode:screen" opacity="0.17">
<path d="M247.73 87.6141C247.973 88.747 248.499 89.7585 249.349 90.6081C249.915 91.1746 251.21 91.1746 251.574 90.325C252.585 87.8974 251.25 85.0652 248.742 84.1751C248.499 83.9728 248.297 83.8109 248.095 83.6491C247.285 83.0017 246.072 84.0537 246.395 84.9843C246.719 85.9553 247.204 86.8455 247.771 87.6546L247.73 87.6141Z" fill="#FFB6BF"/>
</g>
<g style="mix-blend-mode:screen" opacity="0.17">
<path d="M205.293 52.9806C205.94 53.1424 206.749 52.7783 206.911 52.05C207.275 50.3507 206.709 48.3277 204.767 48.004C204.403 47.9636 203.998 48.1254 203.796 48.4086C203.594 48.2063 203.432 48.0446 203.229 47.8423C202.461 47.0735 201.288 47.8423 201.53 48.8538C201.975 50.8767 203.31 52.4546 205.333 52.9806L205.293 52.9806Z" fill="#FFB6BF"/>
</g>
<g style="mix-blend-mode:screen" opacity="0.17">
<path d="M77.7366 175.128C79.3953 173.955 79.9212 172.053 79.0312 170.192C78.4648 169.019 76.7252 169.706 76.7252 170.839C76.442 170.961 76.1993 171.122 76.1589 171.446C75.9566 172.336 75.997 173.226 75.9566 174.117C75.9161 174.966 77.0084 175.654 77.7366 175.128Z" fill="#FFB6BF"/>
</g>
<g style="mix-blend-mode:screen" opacity="0.17">
<path d="M25.8323 134.507C25.8323 134.507 25.8323 134.75 25.8323 134.831C25.8323 135.033 25.9132 135.195 26.0346 135.276C26.3582 136.125 27.4101 136.53 28.1383 135.802C29.3115 134.628 29.9992 132.443 28.6642 131.149C28.3001 130.785 27.7742 130.785 27.4101 131.027C26.7628 130.744 25.8323 130.946 25.6705 131.998C25.5491 132.888 25.7109 133.657 25.8323 134.466L25.8323 134.507Z" fill="#FFB6BF"/>
</g>
<g style="mix-blend-mode:screen" opacity="0.17">
<path d="M30.1206 70.4994C30.1206 71.1872 30.2824 71.7942 30.3228 72.482C30.4442 74.1004 33.0738 74.1004 32.8715 72.482C32.8715 72.3606 32.8715 72.2392 32.8311 72.1583C32.8311 71.956 32.7906 71.7132 32.7502 71.5109C32.7502 71.3086 32.6288 71.1468 32.5074 71.0254C32.4265 70.7826 32.3456 70.5399 32.3052 70.2567C32.0624 68.962 30.2419 69.3666 30.161 70.5399L30.1206 70.4994Z" fill="#FFB6BF"/>
</g>
<g style="mix-blend-mode:screen" opacity="0.17">
<path d="M8.47691 138.714C8.84101 138.795 8.96235 138.836 9.36691 138.795C10.2569 138.755 10.2569 137.5 9.36691 137.42C8.96235 137.42 8.84101 137.42 8.47692 137.501C7.91054 137.662 7.91054 138.552 8.47691 138.674L8.47691 138.714Z" fill="#FFB6BF"/>
</g>
<g style="mix-blend-mode:screen" opacity="0.17">
<path d="M170.218 39.1838C171.31 39.0625 171.957 38.2533 171.755 37.1609C171.512 35.6639 170.865 34.4096 169.935 33.2363C169.935 33.2363 169.773 32.9936 169.651 32.9127C169.287 32.5081 168.761 32.3866 168.276 32.4675C167.79 32.0629 167.224 31.7798 166.658 31.6179C165.97 31.4561 165.039 31.8202 164.918 32.5889C164.352 35.8257 166.577 39.5884 170.218 39.1838Z" fill="#FFB6BF"/>
</g>
<g style="mix-blend-mode:screen" opacity="0.17">
<path d="M128.751 6.97771C128.751 6.97771 128.63 6.97771 128.549 6.97771C128.306 6.97771 128.063 7.30141 128.023 7.5037L128.023 7.70595C127.456 11.4687 132.513 6.37078 128.751 6.93721L128.751 6.97771Z" fill="#FFB6BF"/>
</g>
<g style="mix-blend-mode:screen" opacity="0.17">
<path d="M189.272 20.0061C190.365 20.8153 191.538 21.3412 192.832 21.7863C194.127 22.2313 195.543 20.532 194.693 19.3587C194.006 18.3877 192.711 17.2952 191.416 17.5785C191.093 17.4975 190.729 17.4166 190.405 17.3357C188.706 16.9311 187.978 19.035 189.272 20.0061Z" fill="#FFB6BF"/>
</g>
<g style="mix-blend-mode:screen" opacity="0.17">
<path d="M88.781 60.6677C92.3006 60.1013 95.2134 56.905 96.4675 53.7087C96.7507 53.0613 96.3057 51.9689 95.6584 51.6857C92.5838 50.3101 88.7405 53.0209 88.1337 56.2981C87.6887 56.9455 87.2841 57.6333 86.92 58.2806C86.1514 59.6158 87.4055 60.9105 88.781 60.6677Z" fill="#FFB6BF"/>
</g>
<g style="mix-blend-mode:screen" opacity="0.17">
<path d="M21.1799 89.4344C21.1799 90.0413 21.3013 90.5673 21.3822 91.1742C21.3822 91.2956 21.4631 91.3765 21.544 91.4574C21.544 91.5383 21.544 91.6192 21.544 91.6597C21.6654 92.1047 22.0699 92.1452 22.3936 91.9429C22.7172 91.9429 23.0813 91.862 23.2836 91.6597C24.1332 90.8505 24.1736 89.6367 23.405 88.7466C23.1622 88.4634 22.8386 88.5038 22.5149 88.5847C21.989 88.342 21.2608 88.7062 21.1799 89.4344C21.1799 89.4344 21.1799 89.4344 21.1395 89.4344L21.1799 89.4344Z" fill="#FFB6BF"/>
</g>
<g style="mix-blend-mode:screen" opacity="0.17">
<path d="M20.2494 155.1C21.2608 155.546 22.1913 155.181 22.5958 154.17C23.3645 152.147 22.5958 150.245 21.7463 148.384C21.4631 147.737 20.9372 147.494 20.4112 147.535C20.4112 147.535 20.3303 147.535 20.2899 147.535C19.5617 146.685 17.903 147.009 17.7412 148.425C17.458 150.771 17.7412 154.008 20.2494 155.1Z" fill="#FFB6BF"/>
</g>
<g style="mix-blend-mode:screen" opacity="0.17">
<path d="M49.7819 226.795C50.3078 227.807 51.1169 228.656 52.1283 228.778C52.5329 229.02 52.9374 229.223 53.342 229.385C54.232 229.749 55.2029 228.859 55.2029 227.969C55.2029 225.662 53.9488 222.83 51.6024 222.304C51.1574 221.697 50.6315 221.09 50.0247 220.605C49.3774 220.079 48.1232 220.16 47.921 221.171C47.5164 223.194 48.4064 225.217 49.7819 226.795Z" fill="#FFB6BF"/>
</g>
<g style="mix-blend-mode:screen" opacity="0.17">
<path d="M61.6758 235.292C61.6758 235.292 61.8781 235.211 61.959 235.17C62.6467 234.847 62.6467 233.633 61.959 233.309C61.8781 233.269 61.7567 233.228 61.6758 233.188C59.3698 232.136 59.3698 236.384 61.6758 235.332L61.6758 235.292Z" fill="#FFB6BF"/>
</g>
<g style="mix-blend-mode:screen" opacity="0.17">
<path d="M47.1928 183.139C47.1119 183.503 47.476 183.787 47.7996 183.625C48.3255 183.827 49.0133 183.665 49.2964 183.139C49.9033 181.885 50.1056 180.712 49.7415 179.376C49.6201 178.972 49.2964 178.567 48.8514 178.486L48.7301 178.486C48.7301 178.486 48.7301 178.365 48.6896 178.284C48.3255 177.434 47.3546 177.273 46.7882 178.041C45.6555 179.66 45.8982 181.723 47.1928 183.139Z" fill="#FFB6BF"/>
</g>
<g style="mix-blend-mode:screen" opacity="0.17">
<path d="M116.21 44.8886C116.21 44.8886 116.372 44.6863 116.453 44.6054C117.626 44.7672 118.516 44.2008 118.839 42.9465C118.961 42.5015 118.758 42.1778 118.475 41.9755C118.475 41.8542 118.435 41.6923 118.313 41.5709C118.03 41.2472 117.747 40.9236 117.464 40.5594C117.221 40.2762 116.695 40.2358 116.372 40.3977C114.996 41.2069 114.349 42.4611 114.268 44.039C114.227 45.091 115.562 45.536 116.291 44.8886L116.21 44.8886Z" fill="#FFB6BF"/>
</g>
<g style="mix-blend-mode:screen" opacity="0.17">
<path d="M221.92 222.223C222.082 222.425 222.284 222.627 222.486 222.789C222.931 223.113 223.579 223.194 224.024 222.951C224.145 222.87 224.226 222.83 224.307 222.708C225.156 222.021 225.844 221.171 226.006 220.038C226.127 219.229 225.965 218.298 225.359 217.772C225.359 217.449 225.035 217.206 224.711 217.206C224.347 217.044 223.902 217.085 223.538 217.489C222.608 218.501 222.001 219.674 221.515 220.969C221.394 221.333 221.515 221.818 221.798 222.182L221.92 222.223Z" fill="#FFB6BF"/>
</g>
<g style="mix-blend-mode:screen" opacity="0.17">
<path d="M90.6419 247.834C103.304 255.966 116.978 255.319 131.34 257.14C133.282 257.383 135.022 257.059 136.923 257.828C139.229 258.799 140.564 260.255 143.072 260.862C148.331 262.157 153.752 260.296 158.648 258.434C164.716 256.128 170.582 253.094 176.124 249.695C180.129 247.268 184.094 244.435 188.585 243.06C191.902 242.048 195.462 241.927 198.86 241.28C208.529 239.499 217.712 231.407 215.892 220.686C215.892 220.564 215.69 220.605 215.69 220.686C214.678 229.223 210.592 236.627 201.935 239.257C196.716 240.835 191.214 240.47 186.076 242.493C175.517 246.62 166.82 254.146 155.897 257.828C153.307 258.718 150.435 259.648 147.684 259.77C142.425 259.972 140.523 257.099 136.154 255.238C133.727 254.186 130.126 254.995 127.335 254.753C120.619 254.186 113.904 254.469 107.269 253.094C101.444 251.88 96.4675 249.371 91.2083 246.742C90.561 246.418 90.0351 247.308 90.6419 247.713L90.6419 247.834Z" fill="#FFB6BF"/>
</g>
<g style="mix-blend-mode:multiply" opacity="0.3">
<path d="M169.368 164.002C170.582 161.372 171.067 158.459 171.593 155.626C172.686 149.76 172.888 146.483 177.459 142.396C181.667 138.633 181.869 133.293 177.419 129.53C177.217 129.328 176.852 129.57 177.014 129.854C181.06 136.61 174.992 140.252 172.16 144.864C170.42 147.737 170.461 151.945 169.813 155.141C169.166 158.539 168.64 162.505 166.375 165.256C160.792 172.134 152.175 167.441 150.597 160.117C150.435 159.308 149.181 159.51 149.181 160.32C148.736 172.296 164.797 173.874 169.409 164.002L169.368 164.002Z" fill="#321C13"/>
</g>
<g style="mix-blend-mode:multiply" opacity="0.3">
<path d="M125.393 143.286C127.214 143.772 129.075 143.65 130.693 144.783C132.635 146.159 133.241 148.344 133.12 150.65C132.958 154.291 131.3 158.054 128.63 160.482C128.427 160.643 128.63 160.927 128.872 160.886C133.12 159.996 135.062 152.471 134.657 148.789C134.172 144.5 129.762 140.818 125.434 142.396C125.029 142.558 124.989 143.124 125.434 143.246L125.393 143.286Z" fill="#321C13"/>
</g>
<g style="mix-blend-mode:multiply" opacity="0.3">
<path d="M98.9353 178.689C104.397 178.972 108.564 180.833 112.245 184.879C116.857 189.896 116.978 193.74 115.846 199.889C115.32 202.843 115.562 205.068 116.736 207.981C118.354 212.068 124.786 217.489 119.648 221.009C119.568 221.05 119.648 221.212 119.729 221.171C122.44 220.038 123.775 219.593 123.209 216.437C122.844 214.414 120.943 212.958 119.972 211.299C117.949 207.901 116.533 204.34 117.302 200.294C117.747 197.907 118.678 196.491 118.475 193.942C117.747 185.648 107.674 175.29 98.8544 177.637C98.2475 177.799 98.4093 178.689 99.0162 178.729L98.9353 178.689Z" fill="#321C13"/>
</g>
<g style="mix-blend-mode:multiply" opacity="0.3">
<path d="M187.816 197.907C185.065 197.745 183.366 195.965 181.222 194.508L181.181 194.508C181.788 199.242 190.162 201.467 192.913 197.462C194.734 194.832 193.925 190.988 191.74 188.844C189.758 186.902 186.926 185.931 187.695 182.573C188.14 180.469 189.475 179.012 188.868 176.828C188.665 176.018 187.614 176.14 187.33 176.828C186.481 179.053 184.782 182.451 185.308 184.919C185.874 187.59 188.544 188.601 190.284 190.341C193.075 193.133 192.226 198.19 187.775 197.907L187.816 197.907Z" fill="#321C13"/>
</g>
<g style="mix-blend-mode:multiply" opacity="0.3">
<path d="M220.504 173.672C226.289 173.105 232.924 169.059 234.501 163.152C235.027 161.21 234.421 158.459 236.362 157.043C236.241 157.124 239.639 156.436 239.801 156.355C241.743 155.424 242.997 153.725 243.928 151.904C248.701 142.275 236.807 129.045 227.098 135.356C226.451 135.761 226.855 136.813 227.624 136.611C232.115 135.397 236.807 136.368 240.368 139.564C245.06 143.772 244.696 156.638 235.108 155.262C234.663 155.181 234.259 155.384 234.097 155.829C233.45 157.771 233.652 159.47 233.207 161.412C231.791 167.967 226.532 171.891 220.423 173.226C220.14 173.267 220.221 173.752 220.504 173.712L220.504 173.672Z" fill="#321C13"/>
</g>
<g style="mix-blend-mode:multiply" opacity="0.3">
<path d="M75.8353 161.736C77.9389 162.019 86.1109 161.574 84.3714 157.528C84.2905 157.286 83.9264 157.245 83.7241 157.366C82.5913 158.095 82.1463 159.268 80.7708 159.794C79.2335 160.441 77.3321 160.401 75.6734 160.199C71.7897 159.754 69.1601 158.135 67.2587 154.777C67.2587 154.737 67.1373 154.777 67.1373 154.777C65.4787 158.904 73.1652 161.291 75.7948 161.655L75.8353 161.736Z" fill="#321C13"/>
</g>
<g style="mix-blend-mode:multiply" opacity="0.3">
<path d="M86.3537 110.676C91.451 109.745 93.8379 112.132 93.5547 117.797C92.7861 119.698 91.977 121.559 91.006 123.38C90.3992 124.796 89.7519 125.97 89.226 127.426C88.1337 130.663 87.3246 134.79 88.5787 138.108C89.4687 140.414 91.2083 141.87 93.1097 143.367C96.953 146.442 100.675 147.413 99.623 154.575C99.0162 158.54 94.202 166.551 88.9023 161.615C88.6596 161.372 88.2955 161.655 88.4573 161.979C90.8442 167.077 96.2652 164.244 98.8948 160.684C103.345 154.696 102.374 148.384 97.0339 143.731C95.1325 142.113 92.5029 140.94 91.2488 138.674C88.7001 134.062 90.8847 128.802 92.867 124.513C94.3638 121.317 96.7103 117.756 95.7798 114.034C94.7279 109.786 89.3069 106.549 85.6659 109.664C85.1805 110.069 85.6659 110.878 86.2727 110.716L86.3537 110.676Z" fill="#321C13"/>
</g>
<g style="mix-blend-mode:multiply" opacity="0.3">
<path d="M72.882 94.3705C75.7139 99.1447 85.4232 96.0294 89.1046 94.0064C92.7051 91.9834 93.8379 88.3824 95.9011 85.0647C97.6003 82.3539 99.1376 80.4524 97.5193 77.2965C97.5193 77.2156 97.3575 77.2965 97.3575 77.3369C97.4789 81.1401 96.0225 82.6776 94.202 85.7121C92.5433 88.4633 91.3701 91.2955 88.4169 92.9139C84.25 95.1796 77.7771 96.4743 73.7315 93.5613C73.2056 93.1971 72.5583 93.9254 72.882 94.4109L72.882 94.3705Z" fill="#321C13"/>
</g>
<g style="mix-blend-mode:multiply" opacity="0.3">
<path d="M16.123 119.456C18.9953 121.519 22.8791 119.537 25.1041 117.352C27.5719 114.924 28.9069 111.728 27.2887 108.572C27.2078 108.451 27.046 108.572 27.046 108.653C27.6932 111.566 26.1155 114.722 23.9713 116.624C21.7867 118.606 19.1167 119.213 16.2444 118.849C15.8803 118.849 15.8398 119.294 16.0825 119.456L16.123 119.456Z" fill="#321C13"/>
</g>
<g style="mix-blend-mode:multiply" opacity="0.3">
<path d="M37.7667 152.147C39.6681 156.598 42.2977 159.43 41.084 164.609C41.0031 165.013 41.5695 165.175 41.6908 164.771C43.3495 160.158 41.1245 155.505 38.4544 151.743C38.1712 151.297 37.5644 151.662 37.7667 152.147Z" fill="#321C13"/>
</g>
<g style="mix-blend-mode:multiply" opacity="0.3">
<path d="M77.4939 145.714C74.9047 149.477 79.7594 151.419 82.8745 150.65C87.81 149.436 86.5155 144.055 82.6317 142.194C77.1702 139.564 69.4432 144.5 71.466 150.812C73.5292 157.285 82.4294 156.8 86.8795 153.401C89.9137 151.054 91.5319 147.292 89.2664 143.853C86.7582 140.049 82.1058 138.917 77.858 139.362C77.6557 139.362 77.5343 139.766 77.8175 139.766C80.8112 140.171 83.8858 140.616 86.1918 142.76C89.3878 145.714 89.1855 149.477 85.6659 152.025C83.279 153.765 80.2853 154.534 77.3725 153.603C74.4597 152.673 72.356 149.841 73.8529 146.806C74.9856 144.5 78.1007 143.327 80.528 143.812C81.944 144.095 84.9781 146.078 83.8454 147.899C82.6722 149.76 77.858 149.274 78.9503 146.361C79.2739 145.471 77.9793 145.026 77.4939 145.754L77.4939 145.714Z" fill="#321C13"/>
</g>
<g style="mix-blend-mode:multiply" opacity="0.3">
<path d="M151.851 142.356C154.076 148.303 159.457 150.974 162.329 143.448C163.502 140.414 163.664 132.322 159.214 131.432C155.654 130.703 155.047 136.53 155.047 138.836C155.047 139.564 156.22 139.766 156.342 138.998C156.422 138.31 156.503 136.085 157.029 135.559C160.266 134.952 161.722 136.085 161.358 138.917C161.439 140.292 161.196 141.587 160.589 142.801C158.688 147.454 155.856 146.847 154.036 143.003C152.256 139.281 151.042 134.102 152.377 130.097C153.995 125.201 159.214 122.692 163.179 126.86C166.172 130.016 167.265 134.871 167.265 139.038C167.265 142.882 166.375 147.332 164.594 150.771C161.844 155.991 158.283 154.858 153.955 152.511C153.874 152.471 153.752 152.592 153.833 152.673C156.018 154.615 158.89 156.962 162.005 155.869C166.455 154.291 168.155 147.17 168.761 143.205C169.773 136.57 166.981 119.658 156.503 123.097C148.534 125.686 149.626 136.206 151.891 142.275L151.851 142.356Z" fill="#321C13"/>
</g>
<g style="mix-blend-mode:multiply" opacity="0.3">
<path d="M95.0111 204.259C101.282 206.079 111.76 204.623 110.627 195.965C110.627 195.843 110.465 195.843 110.465 195.965C109.777 213.605 74.7834 197.583 90.9251 186.699C95.2539 183.786 103.749 182.653 107.795 186.699C114.349 193.294 98.733 201.305 95.9011 191.433C95.6584 190.664 94.6875 190.907 94.5661 191.595C93.5952 199.039 105.004 198.837 108.887 195.398C114.268 190.664 109.494 184.191 103.952 182.856C97.843 181.359 89.1451 183.22 86.1514 189.329C82.7936 196.167 88.6192 202.438 94.9707 204.259L95.0111 204.259Z" fill="#321C13"/>
</g>
<g style="mix-blend-mode:multiply" opacity="0.3">
<path d="M177.742 186.174C178.268 186.942 179.199 187.59 180.17 187.387C181.383 187.145 181.99 185.728 182.395 184.717C182.395 184.636 182.314 184.636 182.273 184.677C181.748 185.607 180.736 187.104 179.482 186.416C178.835 186.052 178.471 185.122 178.268 184.434C177.742 182.411 178.633 180.064 180.372 178.891C181.303 178.243 182.961 177.839 183.973 178.608C185.227 179.579 183.487 181.116 182.759 181.804C182.395 182.168 182.84 182.694 183.285 182.492C184.984 181.642 186.966 179.417 185.024 177.677C183.366 176.18 180.655 176.868 179.118 178.203C177.014 180.024 176.084 183.705 177.742 186.093L177.742 186.174Z" fill="#321C13"/>
</g>
<g style="mix-blend-mode:multiply" opacity="0.3">
<path d="M173.05 86.4811C177.176 87.2094 181.95 84.2963 185.753 83.2848C195.138 80.8572 197.687 87.2904 203.391 92.7119C207.558 96.677 213.262 98.5786 217.308 93.3188C220.544 89.0706 220.868 82.3947 217.308 78.3487C217.227 78.2678 217.106 78.3487 217.146 78.4701C220.383 85.4291 216.701 99.9947 206.749 92.8738C202.259 89.6775 200.033 83.7703 195.057 81.1404C191.052 79.0365 187.25 80.3313 183.204 81.7474C181.667 82.2734 175.315 85.0651 173.697 84.2154C171.957 83.2848 173.454 79.077 173.818 77.8632C174.021 77.2563 175.032 75.3953 175.275 74.667C175.639 73.5341 173.818 72.7653 173.333 73.8577C171.715 77.4587 165.808 85.1864 173.009 86.4811L173.05 86.4811Z" fill="#321C13"/>
</g>
<g style="mix-blend-mode:multiply" opacity="0.3">
<path d="M242.997 122.935C243.887 123.785 244.858 124.594 246.193 124.513C247.245 124.472 247.69 123.663 248.58 123.461C249.43 123.259 249.955 123.866 250.926 123.38C251.816 122.935 252.302 122.004 252.666 121.114C254.891 115.733 253.435 107.196 248.459 103.838C248.054 103.555 247.488 104.121 247.771 104.526C250.117 107.844 252.059 110.999 252.14 115.207C252.18 117.513 251.938 123.38 248.337 122.004C248.054 121.883 247.771 122.085 247.609 122.288C246.476 123.825 244.494 123.097 243.159 122.692C243.038 122.652 242.916 122.854 242.997 122.935Z" fill="#321C13"/>
</g>
<g style="mix-blend-mode:multiply" opacity="0.3">
<path d="M159.173 239.702C161.52 239.783 164.23 238.731 165.849 236.991C168.802 233.795 168.397 225.905 162.612 226.876C162.531 226.876 162.531 226.997 162.612 227.038C164.554 227.726 166.091 229.061 166.294 231.205C166.455 232.945 165.768 234.968 164.473 236.141C163.259 237.274 161.439 237.962 159.78 238.043C157.717 238.124 156.948 237.072 155.654 235.737C155.452 235.534 155.007 235.615 154.966 235.939C154.642 238.326 157.151 239.661 159.214 239.702L159.173 239.702Z" fill="#321C13"/>
</g>
<g style="mix-blend-mode:multiply" opacity="0.3">
<path d="M196.514 231.205C199.063 231.205 199.103 228.939 199.103 226.997C199.872 227.321 200.64 227.604 201.449 227.887C201.652 227.968 201.935 227.887 202.097 227.726C204.2 225.46 201.854 217.813 198.577 220.645C198.496 220.726 198.577 220.928 198.698 220.888C200.64 220.726 201.368 222.223 201.652 223.922C201.733 224.489 201.894 225.541 201.571 226.107C201.207 226.714 201.571 226.39 201.004 226.309C200.236 226.188 199.427 225.703 198.779 225.258C198.294 224.934 197.727 225.379 197.687 225.864C197.647 226.916 198.011 230.962 195.745 229.303C194.855 228.656 194.532 227.24 194.087 226.309C193.844 225.824 193.075 226.067 193.075 226.593C193.075 228.494 194.329 231.205 196.554 231.205L196.514 231.205Z" fill="#321C13"/>
</g>
<g style="mix-blend-mode:multiply" opacity="0.3">
<path d="M119.487 252.77C120.943 252.204 123.087 249.291 120.903 248.198C120.7 248.117 120.498 248.198 120.498 248.441C120.417 249.129 120.781 249.736 120.579 250.424C120.417 250.99 119.972 251.435 119.487 251.759C118.273 252.528 117.423 252.123 117.504 250.626C117.504 250.626 117.504 250.626 117.464 250.626C116.169 252.325 117.747 253.458 119.446 252.77L119.487 252.77Z" fill="#321C13"/>
</g>
<g style="mix-blend-mode:multiply" opacity="0.3">
<path d="M81.0944 229.668C82.8744 228.737 83.6836 225.945 81.6608 224.772C81.3371 224.57 80.973 224.893 81.054 225.258C81.3371 226.431 81.7417 227.645 80.528 228.454C79.193 229.344 78.6671 228.09 77.9389 227.24C77.858 227.159 77.7366 227.24 77.6962 227.28C77.0084 229.344 79.4762 230.517 81.0944 229.668Z" fill="#321C13"/>
</g>
<g style="mix-blend-mode:multiply" opacity="0.3">
<path d="M57.6303 219.148C59.1676 220.119 60.9881 219.472 61.959 218.015C64.1032 214.819 61.0285 209.033 58.6012 206.808C58.0348 206.282 57.2662 206.929 57.5494 207.617C58.7226 210.126 60.8667 212.553 60.9476 215.466C60.9476 216.275 60.7453 217.166 60.0576 217.692C59.0867 218.501 58.1967 217.975 57.428 217.247C56.5784 216.437 55.7289 215.345 54.9198 214.455C54.8389 214.333 54.6366 214.455 54.677 214.617C55.2839 216.356 55.8907 218.137 57.5898 219.189L57.6303 219.148Z" fill="#321C13"/>
</g>
<g style="mix-blend-mode:multiply" opacity="0.3">
<path d="M21.1799 178.001C23.3645 176.949 24.6186 174.521 23.3645 172.458C24.3354 171.648 25.1445 170.556 25.2659 169.261C25.3872 168.169 24.9018 166.551 23.5263 166.712C23.4049 166.712 23.324 166.834 23.3645 166.955C23.6072 167.845 24.3354 168.331 24.0927 169.383C23.85 170.394 23.1218 171.244 22.2722 171.851C21.9485 172.094 21.9081 172.498 22.1508 172.781C23.4049 174.319 22.1508 176.139 20.6135 176.868C18.5098 177.839 17.4985 176.301 17.1344 174.4C17.013 173.793 16.2039 173.995 16.1634 174.521C15.8398 177.596 18.4289 179.336 21.1799 178.001Z" fill="#321C13"/>
</g>
<g style="mix-blend-mode:multiply" opacity="0.3">
<path d="M225.359 196.936C226.046 197.502 226.734 198.109 227.543 198.514C229.08 199.323 230.496 198.837 231.71 197.664C231.872 197.502 231.872 197.3 231.791 197.138C231.184 195.763 230.577 194.266 229.728 193.011C229.687 192.93 229.525 193.011 229.566 193.092C229.768 193.861 230.051 194.549 230.294 195.277C230.415 195.641 230.901 196.531 230.82 196.936C230.537 198.433 228.474 197.664 227.745 197.179C226.532 196.369 225.359 194.508 223.821 194.468C223.498 194.468 223.255 194.872 223.457 195.156C223.902 195.924 224.752 196.369 225.399 196.936L225.359 196.936Z" fill="#321C13"/>
</g>
</svg>
