<svg width="340" height="340" viewBox="0 0 340 340" fill="none" xmlns="http://www.w3.org/2000/svg">
<path d="M39.3436 131.774C18.1846 204.067 59.6303 279.826 131.915 300.987C204.2 322.148 279.951 280.698 301.11 208.406C322.269 136.113 280.823 60.3543 208.539 39.1931C136.254 18.032 60.5025 59.482 39.3436 131.774Z" fill="#3264AE"/>
<g style="mix-blend-mode:multiply">
<path d="M208.471 238.035C193.182 235.749 178.057 232.128 162.522 231.703C146.826 231.318 133.511 235.549 118.98 240.951C111.775 243.652 104.328 246.232 96.6004 246.748C87.2948 247.383 79.3703 243.812 71.1222 240.16C64.0467 236.995 57.3737 235.327 50.4556 235.48C50.6574 235.844 50.8592 236.168 51.061 236.532C54.4189 236.456 57.7359 236.784 60.769 237.597C71.6073 240.484 80.7812 247.617 92.3103 248.118C104.77 248.62 116.55 243.173 127.964 238.981C142.859 233.498 157.586 232.02 173.362 233.74C186.751 235.174 199.894 238.752 213.283 239.943C231.324 241.585 249.5 233.274 266.215 227.753C275.969 224.53 286.573 221.307 296.93 220.349C297.133 219.783 297.377 219.258 297.58 218.691C268.571 220.757 235.773 242.157 208.471 238.075L208.471 238.035Z" fill="#3264AE"/>
</g>
<g style="mix-blend-mode:multiply">
<path d="M269.893 77.0866C258.08 77.3137 246.265 78.7951 234.651 80.6814C226.801 81.9658 218.91 84.0593 210.979 84.858C199.084 86.0561 188.531 81.5916 177.735 77.3696C154.404 68.3163 131.625 70.5519 107.588 75.5372C92.9386 78.5928 78.1685 81.4864 63.519 84.987C63.0327 85.5933 62.5466 86.1995 62.1007 86.8058C72.4607 84.2705 82.9417 81.9782 93.463 79.8072C118.957 74.5811 145.181 67.5758 170.778 76.187C180.119 79.3147 189.013 84.0198 198.801 85.6915C206.81 87.0373 214.417 85.6717 222.267 84.1851C238.332 81.1314 254.599 78.5634 270.984 78.2613C270.62 77.8562 270.256 77.4916 269.893 77.127L269.893 77.0866Z" fill="#3264AE"/>
</g>
<g style="mix-blend-mode:screen" opacity="0.47">
<path d="M106.314 121.255C108.701 120.813 107.775 117.251 105.591 117.208C92.8476 116.989 80.0614 118.712 67.4417 116.834C73.7991 112.392 83.8717 113.052 91.1161 110.837C102.691 107.251 112.045 101.073 124.664 102.951C132.107 104.053 138.254 105.235 145.781 103.828C158.244 101.539 164.679 99.4838 176.363 105.123C191.565 112.466 208.075 109.17 224.259 107.776C226.97 107.537 254.884 107.857 254.444 103.972C254.444 103.648 254.364 103.324 254.324 103.001C254.204 101.949 253.679 100.856 252.669 100.409C237.304 93.8748 219.701 97.493 203.559 97.6335C187.579 97.7743 171.976 88.4075 156.476 92.2307C152.025 93.3172 147.895 95.4156 143.404 96.3807C136.12 97.9491 129.973 95.9989 122.894 95.3422C115.047 94.6035 108.41 96.4559 101.124 99.4403C91.0853 103.594 82.5462 105.808 72.1459 108.303C66.0756 109.752 62.4718 112.255 59.0264 117.308C57.932 118.925 59.3045 121.152 61.0031 121.559C75.7649 124.937 91.6652 123.946 106.435 121.215L106.314 121.255Z" fill="#60BFEE"/>
</g>
<g style="mix-blend-mode:screen" opacity="0.47">
<path d="M118.234 223.39C132.277 219.808 146.068 223.104 160.19 221.018C172.572 219.173 181.691 206.643 194.352 207.874C203.817 208.817 213.158 211.823 222.826 212.645C233.303 213.549 244.225 213.766 254.625 212.12C267.937 210.034 294.929 203.758 296.691 186.889C296.896 184.745 295.12 182.315 292.691 183.242C285.891 185.863 280.221 190.549 273.34 193.17C264.84 196.436 255.817 197.637 246.955 199.406C237.81 201.215 228.705 202.942 219.439 203.901C209.769 204.9 200.591 200.963 191.123 202.164C183.233 203.165 179.14 207.853 172.864 212.053C160.676 220.169 147.047 217.198 133.413 217.503C110.07 217.999 87.7555 235.488 66.0117 219.356C64.4355 218.181 62.4911 220.201 63.9455 221.66C79.1365 237.014 100.469 227.898 118.275 223.35L118.234 223.39Z" fill="#60BFEE"/>
</g>
<g style="mix-blend-mode:screen" opacity="0.47">
<path d="M102.643 174.657C112.678 172.606 119.686 165.859 130.448 164.902C141.089 163.945 151.969 165.821 162.65 165.754C184.577 165.621 205.014 159.943 226.179 155.035C249.772 149.563 273.239 147.329 297.232 144.811C301.764 144.332 302.947 137.213 297.972 136.397C274.472 132.441 250.273 137.588 227.892 144.76C202.515 152.9 179.688 160.759 152.503 160.4C142.025 160.264 131.104 158.834 120.945 162.219C109.208 166.088 101.31 172.996 87.8815 170.753C71.6219 168.061 55.8118 162.012 42.4847 175.103C41.3504 176.235 43.0468 178.26 44.3023 177.25C63.944 161.497 81.681 178.918 102.643 174.657Z" fill="#60BFEE"/>
</g>
<g style="mix-blend-mode:screen" opacity="0.47">
<path d="M158.587 270.417C166.397 269.214 170.491 263.191 176.686 258.991C192.559 248.331 208.852 256.444 225.841 257.923C238.502 258.992 250.48 256.944 262.339 252.712C262.5 252.671 262.42 252.429 262.258 252.469C243.802 258.716 227.419 257.561 208.531 254.178C198.339 252.344 188.429 251.158 179.157 256.688C174.784 259.312 171.623 263.395 167.412 266.181C159.921 271.148 151.912 270.571 143.663 267.93C132.744 264.476 125.021 261.472 115.423 269.066C115.261 269.187 115.423 269.389 115.585 269.268C129.842 256.704 143.333 272.784 158.547 270.417L158.587 270.417Z" fill="#60BFEE"/>
</g>
<g style="mix-blend-mode:screen" opacity="0.47">
<path d="M99.2628 68.6481C105.429 55.4259 116.347 59.6077 127.555 57.9231C137.469 56.4392 143.953 48.1536 153.423 45.5362C167.709 41.5496 179.349 50.1828 193.181 52.3454C203.293 53.9367 213.771 54.0719 223.967 53.1548C224.129 53.155 224.129 52.8718 223.967 52.912C206.853 54.3864 191.564 51.8578 175.389 46.5362C166.573 43.6519 158.242 41.9821 149.538 46.0166C143.831 48.6389 139.415 53.286 133.546 55.6249C126.989 58.2461 121.043 57.1863 114.246 57.6628C106.397 58.2189 102.266 61.2479 99.1011 68.5669C99.0199 68.7287 99.2625 68.8504 99.3436 68.6886L99.2628 68.6481Z" fill="#60BFEE"/>
</g>
<g style="mix-blend-mode:screen" opacity="0.3">
<path d="M269.266 184.587C273.232 183.054 275.098 179.051 273.809 175.247C273.691 172.657 272.198 169.985 269.975 168.485C265.165 165.161 258.735 163.048 252.586 163.202C245.872 161.656 238.71 162.941 234.373 168.842C231.982 172.116 231.896 175.96 234.845 178.958C243.532 187.83 258.094 188.861 269.225 184.587L269.266 184.587Z" fill="#60BFEE"/>
</g>
<g style="mix-blend-mode:screen" opacity="0.3">
<path d="M215.147 176.181C214.951 171.932 208.316 172.207 208.512 176.496C208.709 180.744 215.344 180.47 215.147 176.181Z" fill="#60BFEE"/>
</g>
<g style="mix-blend-mode:screen" opacity="0.3">
<path d="M104.864 208.322C115.053 212.462 131.156 211.189 128.746 197.915C126.497 185.329 110.112 185.793 98.9016 188.974C86.212 178.802 61.5317 180.793 65.2266 201.23C68.6804 220.412 95.6615 222.39 104.823 208.322L104.864 208.322Z" fill="#60BFEE"/>
</g>
<g style="mix-blend-mode:screen" opacity="0.3">
<path d="M106.911 220.301C108.287 219.615 108.451 217.956 107.927 216.62C107.282 215.001 104.733 214.917 104.367 216.778C104.367 216.778 104.286 216.858 104.286 216.899C104.164 216.98 104.043 217.101 103.962 217.141C103.719 217.343 103.557 217.586 103.395 217.869C103.07 218.354 103.191 219.042 103.473 219.528C104.2 220.661 105.697 220.866 106.87 220.301L106.911 220.301Z" fill="#60BFEE"/>
</g>
<g style="mix-blend-mode:screen" opacity="0.3">
<path d="M153.457 142.396C154.307 141.871 154.996 141.185 155.563 140.457C158.477 139.166 161.109 137.389 163.338 135.005C164.107 134.157 164.554 133.267 164.838 132.337C165.324 132.095 165.81 131.812 166.336 131.449C166.7 131.166 167.065 130.681 166.985 130.195C165.863 122.183 155.959 115.939 148.153 114.796C139.538 113.571 129.698 120.314 128.715 129.255C127.896 136.86 134.686 141.481 141.441 142.421C142.169 142.503 142.898 142.544 143.585 142.586C146.78 143.965 150.218 144.455 153.497 142.396L153.457 142.396Z" fill="#60BFEE"/>
</g>
<g style="mix-blend-mode:screen" opacity="0.3">
<path d="M73.1412 151.03C73.0224 149.047 72.5391 147.347 71.6514 145.566C71.4093 145.12 71.1672 144.675 70.925 144.23C70.7635 143.987 70.6021 143.703 70.4406 143.46C70.3196 143.217 69.795 142.165 70.2791 143.177C69.19 140.788 66.442 138.478 63.568 139.769C61.0178 140.939 58.8311 142.555 57.4524 144.98C56.4387 146.719 56.8402 149.066 58.0924 150.524C59.0214 151.618 60.1535 152.064 61.4075 152.188C62.4564 154.414 64.8823 155.51 67.3092 155.837C70.3025 156.205 73.2986 154.307 73.1008 150.949L73.1412 151.03Z" fill="#60BFEE"/>
</g>
<g style="mix-blend-mode:screen" opacity="0.3">
<path d="M281.183 105.383C280.984 103.279 280.541 101.296 279.856 99.3931C279.055 93.404 274.49 88.6237 268.424 86.9164C268.302 86.9162 268.14 86.8756 267.979 86.8349C265.512 86.0225 262.882 85.9785 260.372 87.189C257.417 88.6417 257.978 92.6074 259.756 94.5923C260.564 95.4835 261.574 96.0917 262.666 96.6191C263.75 102.568 267.385 107.59 273.369 110.309C276.846 111.891 281.501 109.591 281.143 105.342L281.183 105.383Z" fill="#60BFEE"/>
</g>
<g style="mix-blend-mode:screen" opacity="0.3">
<path d="M198.131 287.099C200.438 286.333 202.18 284.677 204.123 283.344C206.593 281.607 207.327 277.603 204.74 275.536C202.841 273.996 200.699 272.658 198.109 272.816C196.086 272.935 194.548 273.823 192.888 274.833C191.835 275.478 191.105 276.57 190.861 277.743C189.081 277.822 187.462 278.831 186.852 280.61C186.203 282.511 186.846 285.304 188.949 286.075C191.901 287.171 194.974 288.147 198.09 287.099L198.131 287.099Z" fill="#60BFEE"/>
</g>
<g style="mix-blend-mode:screen" opacity="0.3">
<path d="M161.923 195.288C161.726 191.485 155.819 191.76 155.976 195.564C156.173 199.367 162.08 199.092 161.923 195.288Z" fill="#60BFEE"/>
</g>
<g style="mix-blend-mode:screen" opacity="0.3">
<path d="M107.605 276.703L107.283 275.893C105.75 272.209 100.814 272.445 99.6765 276.247L99.4327 277.096C98.6201 279.766 101.206 282.399 103.795 282.281C106.425 282.163 108.735 279.294 107.646 276.703L107.605 276.703Z" fill="#60BFEE"/>
</g>
<g style="mix-blend-mode:screen" opacity="0.3">
<path d="M148.37 287.357C149.504 286.468 150.396 285.296 149.912 283.758C149.429 282.301 147.933 281.611 146.476 281.852C144.412 282.213 143.722 284.316 144.691 285.653C144.731 286.057 144.892 286.462 145.215 286.867C145.942 287.718 147.358 288.084 148.33 287.357L148.37 287.357Z" fill="#60BFEE"/>
</g>
<g style="mix-blend-mode:screen" opacity="0.3">
<path d="M198.415 71.4895C183.498 63.5802 158.993 55.3345 142.236 61.26C139.727 62.1468 140.005 65.6267 142.472 66.3178C151.288 68.757 161 67.3537 170.14 68.9841C179.2 70.6145 187.935 73.5391 196.791 75.8974C199.42 76.5887 200.76 72.7468 198.415 71.4895Z" fill="#60BFEE"/>
</g>
<g style="mix-blend-mode:screen" opacity="0.26">
<path d="M99.8242 286.929C122.178 300.391 148.586 307.627 176.623 306.329C251.875 302.747 309.973 238.857 306.391 163.637C305.761 150.204 303.149 137.334 298.957 125.272C269.243 109.494 231.136 108.513 198.233 118.058C117.695 141.459 74.3793 224.344 99.7836 286.969L99.8242 286.929Z" fill="#60BFEE"/>
</g>
<g style="mix-blend-mode:multiply" opacity="0.47">
<path d="M65.1529 257.104C65.4368 256.538 65.7207 255.972 66.0047 255.366C72.7409 239.717 71.475 217.988 78.6988 200.762C92.213 168.574 111.952 140.359 143.408 123.61C194.823 96.2055 243.132 91.6974 289.68 104.301C265.344 60.1682 217.442 31.2572 163.714 33.8162C88.4619 37.3987 30.3645 101.289 33.9466 176.508C35.4029 207.259 46.9365 235.111 65.1529 257.104Z" fill="#329693"/>
</g>
<g style="mix-blend-mode:multiply" opacity="0.47">
<path d="M33.9063 176.508C34.6937 192.936 38.3546 208.558 44.3635 222.889C49.8482 205.296 51.6126 186.444 58.4723 169.217C68.6602 143.741 84.8689 123.694 106.616 107.013C131.561 87.8684 166.449 76.424 196.76 68.9789C219.665 63.3448 238.923 62.9656 257.731 65.5394C253.407 61.8923 248.84 58.5686 244.07 55.4874C205.445 47.9109 164.864 51.3773 128.798 66.7044C91.1532 82.7172 60.9466 103.069 43.4594 141.604C41.3902 146.173 37.4935 155.959 33.7561 167.688C33.7118 170.601 33.7483 173.554 33.8658 176.508L33.9063 176.508Z" fill="#329693"/>
</g>
<g style="mix-blend-mode:screen" opacity="0.26">
<path d="M172.768 285.325C191.116 299.227 226.743 279.854 242.534 269.031C267.68 251.788 296.255 210.921 279.144 178.936C263.93 150.594 226.103 151.677 201.409 163.297C177.081 174.714 157.157 189.375 145.311 214.404C132.613 241.171 135.111 279.895 172.808 285.366L172.768 285.325Z" fill="#60BFEE"/>
</g>
<g style="mix-blend-mode:screen" opacity="0.26">
<path d="M233.387 272.539C262.405 264.081 291.54 197.038 241.006 201.219C189.945 205.44 195.903 289.362 233.387 272.539Z" fill="#60BFEE"/>
</g>
</svg>
