<svg width="285" height="292" viewBox="0 0 285 292" fill="none" xmlns="http://www.w3.org/2000/svg">
<path d="M119.931 263.224C127.172 275.402 137.448 287.257 151.972 290.412C172.685 294.903 176.407 278.356 187.572 275.281C218.521 266.784 222.566 261.767 252.341 235.752C275.806 215.239 287.133 179.675 277.019 150.018C272.367 136.464 288.67 135.412 283.169 124.366C276.089 110.044 284.139 103.449 279.487 88.4381C277.626 82.4096 263.588 81.6409 260.149 75.6528C256.387 69.1388 261.646 57.2842 257.318 49.435C250.4 36.9735 225.762 24.8356 211.927 24.7142C198.01 -19.5891 158.404 11.0389 132.31 13.1023C119.122 14.1543 109.291 2.82555 95.5362 3.79658C70.5347 5.61726 73.2452 21.5988 57.4271 35.962C43.3082 48.7877 22.7164 45.1059 16.3245 70.6359C13.6544 81.3577 24.0109 88.6809 22.595 96.8132C20.9363 106.281 11.0248 107.09 8.47609 115.02C1.51775 136.504 -10.538 200.268 21.8668 205.609C24.5369 242.913 79.0303 286.245 119.931 263.143L119.931 263.224Z" fill="#CCB672"/>
<path opacity="0.5" d="M245.019 101.507C259.623 79.982 249.51 41.7881 222.243 37.2971C207.193 34.8291 201.651 50.8511 186.885 45.1867C179.158 42.2332 183.446 24.2691 168.882 18.9689C158.283 15.1252 143.031 25.402 132.108 26.0493C118.555 26.8585 109.089 19.8185 93.9584 24.876C67.541 33.6962 54.5952 72.6184 83.2781 86.2533C108.846 98.4316 139.714 41.6668 147.885 82.6928C157.959 81.034 162.935 84.6349 171.026 77.433C176.609 94.5475 192.912 105.593 207.76 92.6863C201.934 142.249 259.017 139.094 244.979 101.547L245.019 101.507Z" fill="#655538"/>
<path opacity="0.5" d="M83.3187 214.389C94.9698 294.499 186.116 232.798 163.704 205.002C195.825 203.06 159.739 161.751 132.512 174.334C158.323 120.482 44.0769 116.76 70.7775 177.125C32.2639 175.467 53.2198 244.814 89.387 208.279L83.2782 214.389L83.3187 214.389Z" fill="#655538"/>
<path opacity="0.5" d="M275.522 165.594C272.003 154.751 264.114 148.156 254.041 154.913C241.135 163.571 253.353 177.732 250.44 186.957C240.893 216.897 216.741 198.852 201.004 225.151C178.632 262.576 218.885 246.19 236.038 236.399C261.565 221.793 273.459 209.898 272.488 174.738L275.522 165.594Z" fill="#655538"/>
<path opacity="0.5" d="M101.604 193.026C152.174 215.927 54.9189 280.662 64.5473 196.546C40.1527 201.118 26.5597 176.438 39.5459 156.249C16.9717 143.989 33.3157 105.755 43.551 87.71C61.1896 56.637 96.1835 43.9732 130.854 50.9727C164.432 57.7294 199.304 87.0627 193.236 125.135C188.988 151.717 161.802 171.623 138.257 149.937C131.339 154.428 124.664 158.676 117.139 162.965C128.224 177.894 121.145 190.113 101.645 193.026L101.604 193.026Z" fill="#655538"/>
<path opacity="0.5" d="M61.0682 87.4266C41.8518 102.923 35.2171 109.194 37.5231 134.764C39.9099 161.225 40.5168 156.127 58.9645 162.52C67.0151 165.311 86.8787 151.191 91.8952 169.317C95.1721 181.131 66.0846 189.466 59.5713 202.211C47.2728 226.284 67.2983 256.305 95.4957 257.357C110.302 257.883 114.712 249.184 126.768 250.883C134.94 252.057 139.916 266.784 156.058 263.709C158.08 300.123 208.69 246.392 212.048 218.88C219.573 216.695 226.248 209.776 227.138 199.621C259.3 202.494 264.761 153.659 230.253 152.85C238.789 127.603 213.545 112.795 197.807 139.539C190.768 151.474 202.055 163.329 199.345 174.9C197.646 182.102 187.815 192.541 183.972 199.136C190.526 180.686 151.446 213.377 139.43 223.452C140.968 218.718 139.552 212.406 140.725 208.603C128.467 212.406 113.013 211.638 98.9344 210.869C97.2758 205.366 97.3567 192.581 98.9344 187.362C110.343 185.986 133.483 171.34 129.559 156.815C126.525 145.608 110.95 153.376 107.551 146.538C91.5311 114.535 136.72 129.383 149.18 99.9286C163.542 66.0235 125.756 52.4695 98.7322 50.2038C84.33 48.99 62.7673 45.7936 52.5321 59.2262C42.6609 72.1733 45.5737 87.7503 61.1086 87.4266L61.0682 87.4266Z" fill="#E3DBB1"/>
<path opacity="0.27" d="M8.4356 115.101C1.47726 136.585 -10.5785 200.349 21.8263 205.69C24.4964 242.994 78.9899 286.326 119.89 263.224C121.064 265.166 122.277 267.108 123.612 268.969C116.613 252.502 92.4616 235.954 83.6827 222.885C90.3984 216.048 96.1026 206.095 98.1658 196.708C87.8497 189.304 76.3199 185.743 65.3564 180.241C68.3906 177.206 70.6965 169.034 74.4184 165.594C61.4322 154.751 52.1275 147.226 47.2729 129.14C43.0655 113.523 47.8797 66.5089 66.4488 60.4399C93.473 51.6602 82.5904 90.2991 98.449 96.2872C118.029 103.691 132.472 80.9125 129.559 62.908C148.695 77.5544 145.458 53.7236 156.341 50.0823C168.113 46.1577 181.261 46.5218 194.531 49.3135C212.938 53.2381 226.369 60.9659 246.152 63.1912C250.926 63.7576 255.092 61.3705 259.098 59.5498C259.219 55.9489 258.936 52.3885 257.277 49.3945C250.359 36.9329 225.722 24.795 211.886 24.6737C197.969 -19.6296 158.363 10.9983 132.27 13.0617C119.081 14.1136 109.251 2.78498 95.4958 3.75601C70.4943 5.57669 73.2048 21.5582 57.3867 35.9214C43.2678 48.7471 22.6759 45.0652 16.284 70.5953C13.6139 81.3171 23.9705 88.6807 22.5546 96.7726C20.8959 106.24 10.9843 107.049 8.4356 114.979L8.4356 115.101Z" fill="#21004C"/>
<path opacity="0.17" d="M194.652 70.9594C224.184 35.2335 136.518 -6.92535 109.21 28.5173C94.5248 17.5932 77.2908 21.2345 63.455 31.2281C43.551 45.5912 53.5839 57.2031 45.3714 74.1557C32.6684 100.374 -3.82236 120.441 23.4042 155.56C-1.19276 174.617 24.4155 221.874 44.4005 233.526C73.3261 250.438 137.367 239.757 101.402 191.408C89.9938 176.073 71.8698 180.929 70.0493 160.213C68.1479 138.284 94.2416 135.573 78.7068 108.223C69.1188 91.351 41.69 97.0559 72.6384 73.2252C88.0115 61.3705 114.591 73.0633 112.932 43.811C135.951 64.6072 142.748 73.0229 194.693 70.9999L194.652 70.9594Z" fill="#21004C"/>
<g style="mix-blend-mode:overlay" opacity="0.4">
<path d="M183.972 189.992C170.257 202.008 165.888 220.781 169.246 238.26C188.826 247.525 208.083 221.793 208.811 202.413C224.589 215.845 234.137 197.072 236.362 181.131C258.005 191.529 267.715 134.602 218.035 137.637C213.504 120.28 195.825 117.124 187.734 134.441C168.073 97.7033 128.871 179.351 183.931 186.917L183.931 189.951L183.972 189.992Z" fill="#FFE4A1"/>
</g>
<path opacity="0.68" d="M237.13 240.768C249.469 234.578 261.039 227.7 267.917 215.198C276.736 199.095 279.608 177.571 280.701 159.485C280.863 156.977 277.303 156.774 276.534 158.919C266.865 186.553 271.032 214.227 241.985 230.815C232.842 236.035 222.89 241.214 212.574 243.641C205.413 245.34 197.079 244.208 198.576 234.457C199.588 227.983 205.494 223.249 210.511 219.729C221.798 211.799 241.014 208.279 248.741 196.384C253.11 189.628 254.283 180.443 255.982 172.756C257.277 166.808 258.329 147.63 267.836 152.283C268.766 152.728 269.778 151.798 269.252 150.867C258.936 131.366 249.186 182.304 248.094 185.662C240.003 210.545 199.871 205.69 193.074 232.191C185.388 262.01 225.075 246.797 237.049 240.809L237.13 240.768Z" fill="#E6D4A3"/>
<path opacity="0.68" d="M138.379 210.505C138.379 213.782 138.702 216.978 138.743 220.377C138.743 222.44 140.927 224.423 143.071 223.654C149.585 221.267 153.671 218.192 154.844 211.031C155.329 208.198 152.052 206.863 150.313 209.129C148.978 211.273 147.279 213.054 145.296 214.591C145.135 211.921 145.054 209.25 145.418 206.459C145.741 203.991 142.99 202.898 141.089 203.141C131.987 204.436 90.6006 213.337 101.038 193.188C107.026 181.616 121.064 187.847 129.276 179.755C131.582 177.49 132.108 174.941 133.524 172.23C134.252 170.814 133.888 168.427 134.859 167.213C139.511 161.306 141.615 166.039 142.06 170.976C142.141 171.987 142.788 173.241 143.921 173.444C155.572 175.305 182.515 177.651 171.876 195.616C171.228 196.667 172.644 197.598 173.534 196.87C180.088 191.367 181.625 184.61 174.869 178.501C171.188 175.183 165.645 173.484 161.034 172.068C158.121 171.178 154.48 170.976 151.729 169.762C146.348 167.334 147.036 169.195 146.672 161.872C146.631 160.78 145.863 159.525 144.69 159.283C139.997 158.393 135.021 157.3 131.056 160.78C125.271 165.878 128.224 173.403 119.122 176.519C112.042 178.946 104.881 176.802 99.0154 182.668C95.2126 186.472 91.7739 194.118 91.8952 199.621C92.3402 219.284 123.046 213.256 138.338 210.505L138.379 210.505Z" fill="#E6D4A3"/>
<path opacity="0.68" d="M185.711 99.2812C186.197 100.738 187.734 102.316 189.433 102.113C195.178 101.466 200.842 100.212 206.546 99.2812C204.28 116.193 211.32 133.267 232.073 129.95C242.834 128.21 264.842 109.72 248.62 99.6049C247.932 99.1598 247.082 99.7262 247.042 100.495C246.88 105.876 249.226 110.327 245.99 115.425C242.956 120.158 236.888 122.829 231.507 123.557C213.787 125.904 211.36 109.356 215.001 95.7612C215.567 93.5764 213.828 90.6228 211.32 90.9061C204.928 91.6343 198.657 93.1314 192.306 94.0215C190.445 85.6059 192.832 78.6063 200.437 72.942C202.015 71.7687 203.067 69.5839 201.813 67.7227C194.49 57.0009 212.21 47.1287 220.665 45.4294C227.016 44.1752 233.692 45.0249 238.384 49.88C245.545 57.2841 243.158 67.7632 245.99 76.7048C246.678 78.8896 249.388 78.6064 250.197 76.7048C258.936 55.8681 239.922 33.9389 218.723 38.4299C206.141 41.1003 187.37 54.2901 193.641 68.7342C184.498 76.7452 181.666 86.9815 185.711 99.3217L185.711 99.2812Z" fill="#E6D4A3"/>
<path opacity="0.68" d="M136.234 279.205C140.685 285.072 152.659 290.008 157.676 282.199C158.283 281.269 157.474 280.298 156.503 280.176C153.145 279.772 149.868 281.026 146.551 280.095C143.597 279.246 141.129 277.182 139.592 274.552C135.749 267.917 139.43 261.484 146.186 259.056C152.983 256.629 165.443 256.143 168.558 264.559C171.431 272.246 162.409 275.726 156.462 276.494C155.451 276.616 155.006 278.153 156.219 278.436C163.299 280.095 171.35 277.83 173.292 269.94C175.112 262.657 169.691 256.305 163.178 253.958C154.723 250.924 142.141 252.461 136.032 259.582C131.177 265.287 131.784 273.46 136.154 279.246L136.234 279.205Z" fill="#E6D4A3"/>
<path opacity="0.68" d="M37.8871 184.975C38.8176 185.703 40.0313 184.489 39.7886 183.518C38.7367 179.351 36.188 175.75 35.2576 171.582C34.5698 168.629 33.4371 154.751 39.3031 155.156C41.4472 155.318 43.9555 160.052 46.7874 160.658C58.6813 163.167 76.1985 149.087 84.33 164.097C85.0178 165.352 86.636 164.421 86.4742 163.207C85.1796 154.67 77.1289 152.728 69.5638 152.971C64.1832 153.133 58.9644 154.428 53.7052 155.358C47.7583 156.37 47.5155 155.601 43.0654 152.364C38.1299 148.804 35.0958 149.734 32.3043 155.399C27.652 164.826 29.3106 178.38 37.9681 184.975L37.8871 184.975Z" fill="#E6D4A3"/>
<path opacity="0.68" d="M8.96153 165.473C8.39515 178.784 5.07781 193.39 21.5432 198.731C24.5773 199.702 26.236 195.332 23.6469 193.714C17.8617 190.113 14.504 184.125 14.3017 177.247C14.1803 173.039 17.0122 169.56 17.1335 165.797C17.2549 161.994 15.758 159.404 15.1916 155.358C13.3711 142.249 19.9654 129.707 17.174 116.476C16.9313 115.425 15.4749 115.546 15.1512 116.476C11.8339 126.632 9.60884 137.394 8.35473 147.995C7.62653 154.104 9.20428 159.809 8.9211 165.473L8.96153 165.473Z" fill="#E6D4A3"/>
<path opacity="0.68" d="M64.426 254.323C68.5525 256.669 72.8812 255.496 77.3313 255.334C81.4982 255.172 84.6133 255.617 88.0924 258.126C89.6702 259.299 90.8838 261.12 92.7043 262.01C97.3163 264.235 101.362 261.363 104.72 258.207C105.974 257.033 104.356 255.01 102.899 255.86C94.8485 260.472 94.4439 256.346 89.1847 252.664C86.636 250.883 83.7637 250.155 80.6486 249.953C77.2504 249.71 73.488 250.924 70.1707 250.358C64.871 249.467 63.091 243.682 59.7736 240C59.0454 239.191 57.7104 239.838 57.6699 240.85C57.5081 246.15 59.5714 251.571 64.426 254.323Z" fill="#E6D4A3"/>
<path opacity="0.68" d="M170.257 7.80198C172.442 9.25852 173.858 9.74401 176.407 9.98677C180.331 10.3509 182.07 11.0387 184.821 14.1945C185.671 15.1656 187.572 15.1656 188.381 14.1945C191.132 10.9578 194.976 8.20655 197.727 13.0212C199.304 15.813 199.588 20.0207 198.414 22.9338C198.05 23.8644 199.547 24.4713 199.992 23.5812C202.784 18.3215 204.847 12.2121 199.709 7.39736C195.38 3.31094 190.283 5.29344 186.561 8.77297C181.989 4.80793 176.73 4.48424 170.5 5.85987C169.57 6.06217 169.529 7.31642 170.257 7.76148L170.257 7.80198Z" fill="#E6D4A3"/>
<path opacity="0.68" d="M271.275 114.09C271.558 118.621 271.275 123.638 272.165 128.048C272.286 128.534 274.309 132.863 274.309 132.903C274.187 133.106 274.471 133.348 274.632 133.146C278.112 128.655 277.626 124.973 277.424 119.026C277.06 108.911 278.071 97.8248 275.765 87.9122C275.482 86.7389 273.945 86.6984 273.378 87.5885C268.645 94.6689 270.83 106.159 271.315 114.09L271.275 114.09Z" fill="#E6D4A3"/>
<path opacity="0.68" d="M86.191 92.7267C93.2303 127.401 145.58 94.6687 130.368 73.832C130.166 73.5893 129.762 73.6297 129.762 73.9939C129.559 87.2646 117.18 107.211 100.391 103.449C89.5893 101.021 91.1266 88.3975 89.3465 80.5079C86.9192 69.7861 80.325 57.4459 86.3529 46.6432C91.693 37.1352 106.864 29.0433 117.382 31.0663C119.365 31.4304 120.74 28.7601 118.798 27.7081C107.026 21.0727 90.4793 32.1991 83.3592 41.4643C72.1125 56.1107 82.995 76.9475 86.191 92.7672L86.191 92.7267Z" fill="#E6D4A3"/>
</svg>
