<svg width="500" height="358" viewBox="0 0 500 358" fill="none" xmlns="http://www.w3.org/2000/svg">
<path d="M145.102 107.884C105.934 167.223 122.282 247.082 181.615 286.253C240.948 325.425 320.799 309.076 359.966 249.737C399.134 190.397 382.787 110.539 323.453 71.3669C264.12 32.1953 184.27 48.5443 145.102 107.884Z" fill="#E5B883"/>
<path d="M145.102 107.884C105.934 167.223 122.282 247.082 181.615 286.253C240.948 325.425 320.799 309.076 359.966 249.737C399.134 190.397 382.787 110.539 323.453 71.3669C264.12 32.1953 184.27 48.5443 145.102 107.884Z" fill="#E5B883"/>
<g style="mix-blend-mode:multiply" opacity="0.41">
<path d="M296.103 133.012C321.63 130.098 345.863 128.116 370.298 126.902C360.993 105.782 346.348 87.9396 328.305 74.7902C292.462 65.6463 250.671 62.976 237.442 79.6454C254.838 80.2118 273.165 82.0729 289.225 89.1534C276.522 84.3387 231.495 86.0785 222.272 97.0025C225.953 97.4071 229.27 98.7019 232.911 99.2278C208.881 103.193 150.423 104.69 136.789 126.295C150.868 127.752 164.906 117.313 177.771 125.162C165.715 132.809 147.429 133.376 131.004 136.491C129.103 141.872 127.606 147.415 126.433 153.08C164.299 144.947 206.696 116.099 240.719 131.15C224.942 138.716 200.992 134.468 189.058 149.276C205.564 152.554 226.074 139.809 242.297 135.318C268.27 128.156 298.854 118.77 325.838 120.752C316.169 122.452 302.94 127.024 296.103 133.012Z" fill="#AC2024"/>
</g>
<g style="mix-blend-mode:multiply" opacity="0.41">
<path d="M373.899 221.74C374.182 220.93 374.465 220.162 374.748 219.352C357.555 223.196 333.929 237.317 316.088 242.293C291.086 249.293 266.611 247.593 241.245 249.495C255.041 248.564 266.044 239.825 277.615 234.161C262.363 231.652 245.898 239.704 231.495 244.154C205.563 252.125 178.903 260.864 156.936 265.031C158.837 267.135 160.86 269.199 162.883 271.181C201.801 274.418 240.355 272.112 279.557 268.106C319.001 264.06 341.534 236.912 373.858 221.74L373.899 221.74Z" fill="#AC2024"/>
</g>
<g style="mix-blend-mode:multiply" opacity="0.41">
<path d="M378.753 153.727C363.056 154.334 337.974 164.246 328.588 165.622C316.047 167.443 301.038 169.223 286.636 169.385C281.62 167.645 276.077 166.876 271.465 167.079C268.714 167.2 265.963 167.443 263.212 167.807C262.322 167.645 261.392 167.524 260.502 167.321L262.929 167.847C244.724 170.275 226.6 177.638 210.499 184.233C185.578 194.429 153.335 199.891 128.496 213.243C129.022 215.064 129.548 216.884 130.155 218.665C161.912 204.544 194.519 192.811 227.935 182.453C239.141 178.974 258.641 168.98 272.962 169.992L279.395 171.367C312.042 184.557 261.109 208.914 257.953 188.077C260.259 194.389 279.435 189.857 274.944 177.8C263.981 178.812 246.99 181.725 241.852 192.325C255.93 199.284 286.555 211.058 297.681 193.054C302.818 184.759 300.715 178.529 295.577 174.199C320.902 173.795 355.815 174.321 380.25 162.588C379.967 160.322 379.603 158.056 379.198 155.79C379.077 155.102 378.915 154.415 378.753 153.727Z" fill="#AC2024"/>
</g>
<path opacity="0.82" d="M336.841 265.072C340.037 264.101 345.297 262.887 351.324 261.35C357.352 254.107 362.571 246.258 366.9 237.883C358.202 241.484 350.192 245.651 347.845 246.825C330.854 255.281 311.799 264.384 292.826 269.522C265.802 276.805 238.009 273.164 211.065 277.331C219.966 281.498 234.044 279.394 241.852 284.25C225.427 295.174 199.252 284.978 176.678 282.753C183.92 288.053 191.728 292.584 199.94 296.307C212.684 296.145 225.063 295.174 234.53 294.405C266.368 291.775 294.808 281.215 336.841 265.072Z" fill="#FFEACC"/>
<path opacity="0.82" d="M210.62 175.899C201.801 175.696 192.86 178.326 183.839 177.193C202.772 161.374 238.777 159.958 262.565 158.016C299.46 155.022 339.592 150.166 375.436 140.618C375.436 140.537 375.355 140.416 375.355 140.335C333.929 139.566 288.214 156.276 246.747 151.623C251.48 141.629 268.229 140.011 277.453 133.092C258.56 124.313 222.069 148.872 204.026 156.033C179.793 165.662 148.845 173.188 124.086 186.095C124.288 189.938 124.693 193.782 125.259 197.625C153.942 190.505 187.197 188.522 210.661 175.899L210.62 175.899Z" fill="#FFEACC"/>
<path opacity="0.82" d="M196.582 228.051C201.356 211.908 220.775 215.387 232.75 209.44C221.665 205.96 210.256 215.266 199.495 213.203C202.853 205.434 212.724 201.024 219.278 194.793C200.183 197.181 182.625 207.134 166.079 216.439C157.745 221.133 146.134 226.473 135.495 232.583C137.517 236.952 139.742 241.16 142.21 245.247C152.931 244.761 164.258 245.044 175.02 243.305C191.525 240.634 207.95 236.75 224.052 232.542C249.943 225.785 275.228 224.653 300.634 218.705C296.588 218.139 292.988 215.954 289.185 215.145C305.853 194.227 364.392 204.666 380.978 186.095C381.059 184.759 381.14 183.465 381.181 182.13C318.96 190.748 258.762 223.641 196.542 228.092L196.582 228.051Z" fill="#FFEACC"/>
<path opacity="0.82" d="M186.752 83.7319C198.565 84.622 228.825 70.7039 235.662 62.0456C219.197 54.601 157.381 86.0381 151.798 102.546C166.281 105.58 203.298 90.9337 215.637 81.6685C212.36 80.4142 210.216 81.5876 206.534 81.9922L186.711 83.7723L186.752 83.7319Z" fill="#FFEACC"/>
<g style="mix-blend-mode:screen" opacity="0.23">
<path d="M275.551 305.491C345.499 292.786 391.901 225.745 379.158 155.79C378.551 152.432 377.782 149.114 376.892 145.878C373.332 142.641 369.287 139.647 364.756 136.895C320.052 109.747 271.951 120.267 232.83 151.178C203.622 174.321 182.221 209.278 183.232 247.431C183.92 272.961 193.993 289.55 209.65 300.231C230.08 307.473 252.613 309.658 275.47 305.491L275.551 305.491Z" fill="#FFEACC"/>
</g>
<g style="mix-blend-mode:screen" opacity="0.28">
<path d="M294.849 285.949C346.591 287.001 375.921 201.51 334.293 171.529C240.841 104.326 193.063 319.328 294.849 285.949Z" fill="#FFEACC"/>
</g>
<g style="mix-blend-mode:multiply" opacity="0.21">
<path d="M125.907 201.833C130.68 228.092 143.1 251.032 160.456 268.753C160.213 267.297 159.97 265.881 159.808 264.465C156.855 241.241 159.849 216.965 168.304 194.672C195.247 123.625 268.957 86.2806 341.858 102.222C346.753 103.274 353.145 105.499 360.022 107.846C332.472 66.1721 281.862 42.6246 229.554 52.1326C159.606 64.837 113.204 131.879 125.947 201.833L125.907 201.833Z" fill="#AC2024"/>
</g>
<g style="mix-blend-mode:multiply" opacity="0.28">
<path d="M125.907 201.833C128.172 214.254 132.177 225.907 137.558 236.628C141.523 220.323 142.696 203.006 145.123 186.823C149.411 158.258 161.184 143.976 183.556 124.879C211.875 100.684 248.891 78.5932 287.203 78.8764C303.951 78.9978 320.093 83.246 336.113 80.8589C323.613 70.218 309.129 62.0048 293.473 56.7046C278.424 56.4618 264.426 57.5137 257.225 58.242C193.063 64.9178 147.793 104.083 125.421 158.501C123.196 172.5 123.237 187.065 125.907 201.793L125.907 201.833Z" fill="#AC2024"/>
</g>
<g style="mix-blend-mode:screen" opacity="0.74">
<path d="M184.324 287.891C179.753 285.018 175.384 281.862 171.217 278.464C109.239 287.608 63.1198 280.568 54.6242 256.777C41.6784 220.485 121.052 158.946 231.94 119.296C342.829 79.6856 443.239 76.9748 456.225 113.267C464.802 137.219 433.085 172.217 378.632 204.584C377.62 209.48 376.366 214.254 374.789 218.948C458.208 175.13 509.505 124.515 497.611 91.2166C481.631 46.4683 357.878 49.7859 221.22 98.6207C84.5612 147.455 -13.2601 223.277 2.67938 268.025C14.816 302.052 89.254 308.242 184.324 287.85L184.324 287.891Z" fill="#FFE4CC"/>
</g>
<g style="mix-blend-mode:screen" opacity="0.74">
<path d="M233.559 122.047C127.565 160.282 51.9541 218.827 64.6976 252.894C72.546 273.811 111.95 280.568 165.796 273.811C162.074 270.413 158.514 266.771 155.197 262.928C128.294 262.685 109.725 256.414 105.032 243.912C94.7155 216.278 156.046 168.738 242.054 137.746C328.063 106.753 406.182 104.002 416.498 131.596C421.879 145.959 407.8 165.703 381.019 185.731C380.816 189.898 380.371 194.025 379.765 198.111C428.675 168.009 456.67 136.249 448.539 114.481C435.795 80.4547 339.552 83.8128 233.559 122.047Z" fill="#EDCBAE"/>
</g>
</svg>
