<svg width="263" height="239" viewBox="0 0 263 239" fill="none" xmlns="http://www.w3.org/2000/svg">
<path style="mix-blend-mode:hard-light" opacity="0.22" d="M55.4492 379.75C154.348 379.75 234.522 302.478 234.522 207.158C234.522 111.838 154.348 34.5663 55.4492 34.5663C-43.4497 34.5663 -123.623 111.838 -123.623 207.158C-123.623 302.478 -43.4497 379.75 55.4492 379.75Z" fill="url(#paint0_radial_29_79512)"/>
<g opacity="0.56">
<path d="M241.281 186.615C223.138 194.771 207.83 194.64 197.974 192.983C203.076 189.537 207.699 184.826 211.363 179.243C215.68 172.657 219.736 166.071 223.923 159.485C216.727 163.977 207.045 161.142 198.323 162.146C198.104 162.146 197.886 162.233 197.668 162.276C204.079 146.705 211.232 128.822 213.761 120.928C208.789 129.215 199.151 138.069 189.469 135.845C193.482 132.355 196.753 127.165 197.276 121.8C190.603 126.903 182.273 126.816 174.467 128.168C177.127 114.56 182.927 96.1533 200.547 96.3278C186.591 81.6725 164.392 96.5023 149.433 100.297C164.174 78.2704 180.747 52.362 155.67 30.3791C175.034 51.8386 111.49 81.6289 107.871 84.3768C107.783 83.4608 116.855 53.4961 94.6124 35.6131C95.7463 43.6386 96.3569 52.0567 91.9956 59.4279C91.167 47.4769 83.7965 34.1302 73.9401 26.4972C79.0428 37.9248 79.697 66.9737 60.1586 67.5407C40.1406 68.1077 38.0908 38.0121 46.9441 27.1079C37.3058 35.7876 23.4807 48.7418 26.926 61.8705C-2.86121 56.6365 -5.69601 21.3068 7.7802 0.327126C8.1727 -0.109042 8.1727 -0.109042 7.7802 0.327126C-2.16342 8.13454 -10.7987 23.3568 -14.7674 33.3015C-22.1815 51.9258 -14.2004 62.9173 -6.3502 76.0023C-13.4154 75.1736 -21.4401 75.9151 -27.3713 74.7811C-44.9907 71.4226 -49.5264 62.1322 -53.1026 46.6918C-60.8656 80.931 -39.6264 103.176 -22.8357 116.043C-36.9661 112.684 -49.0903 107.014 -64.4855 109.5C-74.8652 111.201 -85.3758 120.404 -95.363 123.806C-82.2793 122.498 -60.6912 124.722 -55.2832 132.573C-69.5881 129.564 -89.3881 141.82 -100.117 150.762C-108.839 158.002 -113.637 169.473 -126.677 170.389C-115.73 178.502 -97.3255 168.426 -84.8088 169.168C-86.8586 170.389 -118.608 198.26 -128.334 186.178C-124.322 200.877 -104.652 210.124 -93.6185 213.788C-105.961 217.975 -135.966 209.557 -142.726 197.214C-134.789 216.143 -115.556 240.656 -95.1449 248.289C-109.581 256.314 -134.745 262.159 -147 251.56C-137.623 265.866 -127.462 277.817 -110.627 281.132C-93.4004 284.534 -78.8775 280.26 -73.0335 271.449C-76.8714 292.08 -96.3661 303.551 -122.752 307.651C-98.8956 309.789 -84.9832 310.661 -69.5445 298.143C-72.2048 314.368 -73.1643 317.596 -69.5445 334.563C-65.8374 352.097 -63.1771 369.587 -70.3295 386.685C-53.4951 371.812 -37.8383 345.075 -35.4396 323.223C-36.7044 341.542 -14.9854 355.368 -21.3528 373.644C-15.0727 368.235 -5.73962 349.48 -5.43434 348.957C-2.07619 355.63 1.67447 361.823 1.89253 369.282C2.19781 378.441 -3.03566 384.853 -6.30659 393.489C3.46257 388.212 13.319 383.545 19.6428 373.687C24.8326 365.618 21.7362 347.474 31.5925 343.984C31.0256 358.072 34.0784 364.702 42.2339 377.002C50.2586 389.084 48.9503 401.035 43.2807 414.207C52.4392 403.216 62.3392 393.184 63.9965 378.093C65.3921 365.269 57.6291 353.493 69.0119 342.021C57.5419 364.048 97.6216 380.186 111.97 374.778C89.815 374.385 103.335 334.868 104.251 333.603C107.391 340.626 111.839 347.386 118.73 353.798C127.976 362.391 143.109 373.033 154.536 376.828C152.748 366.447 146.119 357.244 145.377 345.991C144.679 335.653 149.041 325.622 147.645 315.415C163.084 328.195 171.196 337.311 167.271 357.331C175.382 349.218 178.261 334.432 176.996 321.042C176.255 313.06 166.049 298.448 172.286 291.862C172.373 310.53 219.78 327.279 235.48 326.232C222.745 321.522 205.737 308.96 197.538 298.535C194.921 295.221 190.211 287.326 187.201 279.562C195.488 286.236 206.434 290.946 214.285 293.52C205.911 285.668 202.466 273.194 201.506 262.29C201.419 261.025 201.288 259.76 201.114 258.452C216.901 261.287 235.742 278.472 233.474 290.466C236.222 270.315 232.951 253.348 217.25 237.952C213.805 234.593 211.493 232.412 209.4 230.406C212.715 229.926 216.16 228.53 219.736 226.001C223.923 223.035 227.892 218.978 231.163 215.14C221.045 215.969 211.45 215.227 202.684 210.866C218.253 207.725 234.739 194.945 241.324 186.484L241.281 186.615ZM144.156 174.794C109.441 174.14 59.5917 159.747 58.3269 194.16C57.8472 207.333 67.4419 219.982 73.7657 230.973C82.1392 245.628 86.5877 263.816 91.4723 280.173C92.519 283.618 93.304 287.021 94.0454 290.423C76.6877 278.733 53.7476 284.578 32.9009 278.646L28.9758 281.35C28.6705 257.099 11.5745 235.771 6.29738 211.084C-1.11673 176.19 23.6551 144.873 24.789 110.634L16.6771 97.898C22.5648 101.475 29.1939 104.615 36.3899 107.319L73.504 124.984C87.3727 122.193 99.9767 109.195 107.085 94.5831C108.437 97.1129 110.313 99.5554 112.886 101.78C119.253 128.037 119.733 151.59 138.181 162.451C142.673 165.068 148.474 166.725 154.405 167.729C150.567 169.779 147.078 172.221 144.156 174.707V174.794Z" fill="#FFFB64"/>
</g>
<path d="M53.2238 349.48C129.506 349.48 191.344 287.635 191.344 211.345C191.344 135.056 129.506 73.2108 53.2238 73.2108C-23.0579 73.2108 -84.8965 135.056 -84.8965 211.345C-84.8965 287.635 -23.0579 349.48 53.2238 349.48Z" fill="#FEC20C"/>
<path opacity="0.38" d="M-46.6032 233.677C-50.5283 221.377 -59.9486 240.525 -57.6371 248.071C-72.3345 241.092 -76.8266 286.497 -50.3975 285.538C-53.8865 295.744 -43.5067 312.58 -31.3825 307.259C-29.3763 320.169 -13.4142 342.24 0.367294 330.899C2.76598 343.112 15.3263 341.062 23.918 336.351C26.3166 342.021 32.8149 346.95 39.2259 343.897C45.6369 340.844 42.4096 334.301 48.5153 331.771C47.3814 340.146 65.3497 342.981 66.8325 335.217C69.4056 344.682 86.2836 338.968 90.1651 331.771C97.3175 340.19 118.121 329.983 125.971 326.058C140.058 318.992 151.484 303.769 154.014 288.286C157.939 288.416 162.213 284.447 164.219 281.35C167.49 276.334 165.135 273.499 167.054 269.094C172.287 257.23 184.717 250.426 186.592 235.553C187.29 229.839 186.985 222.729 184.978 217.321C183.714 213.919 178.916 210.429 178.131 207.42C175.384 197.257 187.988 181.599 174.86 173.791C179.658 164.675 176.997 137.153 161.079 143.521C163.303 130.262 147.995 115.955 135.914 124.286C122.046 133.882 125.447 161.448 125.796 176.321C123.572 171.392 117.03 168.165 112.059 171.043C107.348 173.748 107.566 180.857 106.476 185.35C100.24 170.476 83.6669 189.799 79.8726 196.516C73.636 207.594 67.9228 228.356 72.0224 240.918C67.5303 235.422 62.951 230.319 54.8391 232.412C44.6338 235.073 42.7149 246.588 35.2135 251.822C23.9616 237.472 10.6162 248.289 1.54483 256.227C-0.810242 235.029 -22.3111 250.077 -29.3763 258.059C-26.0618 245.236 -32.8653 239.653 -46.734 233.808L-46.6032 233.677Z" fill="#EB9206"/>
<path opacity="0.41" d="M22.3019 87.3427C5.90369 85.8161 -16.2514 96.982 -17.2109 115.17C-27.6342 107.45 -48.4373 129.215 -54.7175 137.938C-64.9664 152.245 -68.4118 170.215 -67.2778 188.01C-64.7047 228.749 -23.4038 241.485 10.0469 227.309C28.8438 219.371 53.8336 194.422 42.4508 171.959C49.5596 171.654 53.0922 166.246 51.6966 158.962C70.7989 163.978 93.172 147.098 97.8385 128.997C109.003 85.6853 68.0949 65.4034 22.3455 87.2991L22.3019 87.3427Z" fill="#FFFB64"/>
<path d="M22.348 329.198C38.9643 329.198 44.7211 322.263 55.537 313.103C72.5458 345.336 134.083 309.789 149.74 291.121C176.692 259.019 182.449 229.054 176.997 187.094C173.901 163.28 161.515 143.957 142.892 129.215C139.796 152.288 150.001 176.844 142.805 199.7C138.793 212.479 133.123 218.499 122.089 212.305C116.071 208.903 116.638 202.927 107.174 203.974C98.7132 204.89 91.9097 215.053 88.0282 222.337C80.2216 236.818 86.2401 287.675 62.733 287.37C55.3625 278.254 40.796 268.309 28.4973 273.02C17.2889 277.294 7.9995 292.516 -7.13398 290.117C-25.2331 287.239 -26.5851 258.713 -44.597 254.395C-48.871 253.392 -52.7961 257.666 -56.1979 256.881C-67.3626 254.264 -34.13 329.373 22.348 329.242V329.198Z" fill="#EB9206"/>
<g style="mix-blend-mode:overlay">
<path d="M136.481 273.936C113.846 278.777 120.868 247.286 135.914 242.008C157.676 234.375 155.757 260.458 145.072 271.449L136.481 273.892V273.936Z" fill="#EB9206"/>
</g>
<g style="mix-blend-mode:overlay">
<path d="M157.372 191.718C148.387 189.188 145.858 170.782 158.418 173.486C158.287 181.555 158.113 190.104 168.231 185.786C172.723 195.512 174.729 213.57 167.228 223.035C154.144 239.565 141.976 215.62 152.487 201.532L157.415 191.718H157.372Z" fill="#EB9206"/>
</g>
<path opacity="0.41" d="M-32.6042 194.466C-74.8209 194.248 -29.9438 124.461 -21.3958 161.142C-0.374664 166.071 -8.44294 128.124 -3.38391 118.965C4.72798 104.353 33.1196 93.4055 32.0293 118.66C35.1258 113.687 45.113 110.111 42.8452 119.532C57.8478 104.789 89.0306 109.587 77.735 135.408C73.0249 146.182 60.9443 151.808 50.2593 153.902C40.7518 155.778 34.1227 152.07 25.5311 151.285C28.4531 157.828 27.7553 167.205 19.1201 168.819C18.5095 186.571 15.98 204.454 1.32621 216.056C-4.95396 221.028 -14.6359 227.309 -23.1403 226.524C-39.9311 224.997 -35.2209 209.208 -32.5606 194.422L-32.6042 194.466Z" fill="#FFFB64"/>
<path opacity="0.41" d="M63.1245 98.6831C58.4143 101.038 47.4676 103.786 43.8042 96.8512C40.3152 90.265 50.4769 78.8811 54.1403 86.6448C66.9624 78.0959 81.5725 93.9289 64.9998 97.7671L63.1681 98.6831H63.1245Z" fill="#FFFB64"/>
<path opacity="0.41" d="M111.927 119.881C97.7968 108.41 124.226 94.5831 120.17 110.372C134.955 97.331 133.254 132.05 125.796 140.163C109.877 157.479 90.8624 136.063 111.011 122.672L111.927 119.925V119.881Z" fill="#FFFB64"/>
<g style="mix-blend-mode:overlay">
<path d="M87.9815 108.846C89.8133 100.079 87.4582 91.9225 81.0908 85.5108C76.119 80.5385 66.1317 75.4353 59.8952 80.4949C50.9546 71.8588 33.7278 77.6162 29.6282 88.3459C27.4476 83.6789 17.0679 85.1619 12.7502 86.2087C5.68504 87.8661 0.756828 92.4023 -1.16212 99.4246C-12.763 91.6608 -30.7749 104.877 -38.4507 113.077C-52.4938 128.124 -63.5714 146.269 -69.1538 166.115C-75.3467 188.185 -76.0445 208.249 -58.5123 225.434C-38.1018 245.454 -9.57929 246.544 17.2423 240.699C41.3599 235.465 65.6956 208.205 70.6238 184.696C82.3119 190.366 88.2868 173.355 85.5829 164.806C104.554 163.018 123.22 110.285 87.9815 108.846Z" fill="#EB9206"/>
</g>
<g style="mix-blend-mode:multiply" opacity="0.16">
<path d="M-5.30529 272.104C-7.96564 266.564 -9.92819 258.321 -16.0339 255.268C-21.6599 252.476 -32.3449 256.707 -26.7189 263.86C-38.189 250.426 -51.0546 277.12 -46.4753 287.326C-56.4189 291.775 -40.1952 307.041 -36.3137 309.222C-25.7159 315.11 -8.96872 324.051 2.02159 314.63C2.28326 326.363 18.9868 330.856 27.1859 324.924C26.0956 338.663 45.2414 340.146 52.4811 331.859C53.3097 344.508 92.43 337.049 99.5388 335.043C111.401 331.728 121.083 325.36 130.634 317.683C137.569 312.144 148.821 302.505 149.475 293.04C158.023 293.694 165.35 281.917 169.057 275.637C175.206 265.169 174.988 257.056 169.231 247.024C181.312 240.176 190.689 215.882 180.701 204.716C190.732 200.877 186.197 172.744 176.558 170.695C188.115 163.018 170.801 136.194 162.82 131.483C141.668 118.965 121.345 138.374 116.809 158.656C113.538 173.137 114.454 188.228 110.747 202.622C106.037 221.028 93.6947 237.646 76.4678 246.37C66.0881 251.647 55.8392 245.89 45.7648 250.513C35.167 255.398 31.896 263.38 28.4507 273.805C23.7405 257.492 3.8533 267.916 -5.30529 272.06V272.104Z" fill="#EB9206"/>
</g>
<g style="mix-blend-mode:overlay">
<path d="M122.043 181.555C114.804 183.823 101.328 180.988 96.2249 174.664C91.0786 168.252 93.4773 151.285 104.206 153.073C94.8729 137.197 100.586 107.319 120.255 101.169C137.962 95.6299 148.472 119.968 145.245 134.493C160.553 126.074 161.905 163.149 151.831 171.48C168.272 167.859 163.693 198.784 160.509 206.329C152.005 226.742 135.432 247.547 116.112 258.408C93.739 271.013 56.9737 268.265 46.6376 240.438C39.398 220.897 55.8398 202.622 75.1165 210.648C72.8486 197.955 88.1566 187.574 97.1843 198.74C99.583 185.83 116.505 190.366 122 181.555H122.043Z" fill="#EB9206"/>
</g>
<g style="mix-blend-mode:overlay">
<path d="M-47.3449 285.625C-54.1484 292.037 -44.3356 297.314 -40.8903 301.72C-36.0057 307.913 -36.9215 315.11 -30.0744 319.951C-23.14 324.836 -16.1621 323.223 -9.6202 328.369C-1.94443 334.389 2.76571 339.71 13.4507 337.485C17.812 336.569 16.9833 333.429 22.6093 334.389C26.3164 335.043 29.3692 339.492 32.9454 340.626C39.0512 342.545 41.101 339.23 46.945 339.143C53.138 339.055 53.4432 341.934 59.0692 344.944C73.8102 352.795 76.078 339.71 87.9406 336.482C93.9591 334.825 95.5292 338.009 101.373 334.476C105.604 331.902 106.258 329.154 110.532 327.933C116.725 326.145 115.722 329.285 121.348 324.357C125.011 321.129 126.538 316.506 130.332 313.322C134.649 309.658 140.319 309.309 144.811 305.994C150.786 301.589 153.054 294.348 156.586 288.416C160.773 281.438 172.81 275.986 174.773 267.262C175.689 263.119 172.679 260.284 173.595 256.184C174.555 251.822 179.875 249.336 181.838 245.541C184.716 239.871 192.959 191.282 181.009 193.768C176.561 194.684 176.866 214.268 176.343 217.146C174.293 228.094 168.711 231.584 163.477 239.696C159.16 246.413 162.125 254.177 158.941 261.069C155.322 268.963 147.864 277.992 143.241 285.363C137.353 294.784 133.036 290.772 123.136 293.083C109.311 296.311 109.703 312.275 98.9745 318.25C91.0371 322.656 78.0842 319.472 70.1468 317.465C58.197 314.412 57.6736 318.686 46.6833 322.612C36.5653 326.189 29.2384 320.998 20.7776 317.203C14.0613 314.194 10.9212 314.805 3.28904 315.677C-7.43959 316.898 -9.92549 314.543 -17.3396 306.954C-21.7008 302.461 -24.6665 302.766 -30.0308 299.408C-36.2673 295.482 -37.881 285.407 -47.2577 285.756L-47.3449 285.625Z" fill="#EB9206"/>
</g>
<path d="M123.921 62.7864C114.894 60.5184 115.024 42.5046 117.292 35.8748C120.476 26.5845 127.759 22.4409 134.17 15.2877C126.102 24.4472 132.557 28.9834 134.563 38.8408C137.005 50.9226 128.588 54.2811 123.965 62.7864H123.921Z" fill="#FFFB64"/>
<path d="M223.312 232.194C234.259 242.052 264.264 245.236 262.04 222.38C253.274 239.958 231.817 218.368 223.312 232.194Z" fill="#FFFB64"/>
<path d="M190.168 115.257C196.928 97.3746 216.51 109.238 227.805 99.9916C222.092 111.855 204.604 124.722 190.168 115.257Z" fill="#FFFB64"/>
<path d="M216.902 180.639C223.095 165.112 237.269 169.691 245.512 156.999C241.718 172.396 237.226 177.848 216.902 180.639Z" fill="#FFFB64"/>
<path d="M60.3778 10.0101C60.2906 19.693 45.0699 58.5556 59.7673 59.1662C75.3369 59.8205 66.658 17.4686 60.3778 10.0101Z" fill="#FFFB64"/>
<path d="M53.0076 158.831C52.7896 157.348 50.5653 157.828 50.5217 159.18C50.3473 163.192 50.1292 173.224 42.8459 171.174C41.7992 170.869 41.1451 172.003 41.5376 172.875C48.0358 186.964 37.8305 205.501 27.4508 215.009C18.6847 223.078 7.51993 229.01 -4.03734 231.802C-30.292 238.126 -53.8862 221.988 -62.7832 197.214C-62.8704 196.952 -63.2629 197.039 -63.2193 197.344C-60.2536 214.268 -49.9611 228.138 -33.8246 234.724C-17.121 241.528 1.32697 236.294 16.286 227.527C30.1547 219.371 44.416 205.588 45.0702 188.359C45.1574 185.917 42.5843 175.885 44.1107 174.053C44.0671 174.14 47.905 173.399 48.3847 173.093C52.7459 170.476 53.7054 163.41 53.0076 158.874V158.831Z" fill="#FFFB64"/>
<path d="M55.0565 77.4417C47.7733 75.5662 39.5305 77.2672 32.7706 80.3204C27.3627 82.8066 23.612 84.9874 17.5499 84.9002C13.2759 84.8566 9.96136 85.1619 5.90541 86.6449C-3.6893 90.0906 -21.6576 102.739 -17.9069 115.039C-17.8197 115.258 -17.5144 115.345 -17.34 115.17C-12.8479 110.765 -11.5395 104.266 -6.74217 99.5991C-0.592833 93.6672 7.73713 89.48 16.3288 89.3927C23.6992 89.3055 24.2226 88.7385 30.6336 84.9438C38.4402 80.2768 46.6829 81.1491 55.0565 78.8374C55.7107 78.663 55.7543 77.6162 55.0565 77.4417Z" fill="#FFFB64"/>
<path d="M67.1347 86.8629C66.1317 86.8629 65.7391 88.0406 66.3497 88.7384C68.007 90.5703 72.4554 91.5735 69.4898 94.2342C66.9603 96.5459 62.7735 97.4182 59.5462 98.0288C56.0572 98.6831 51.914 99.2065 48.3814 98.2905C44.9361 97.3746 45.0669 95.4118 45.2413 92.2714C45.2413 92.0969 45.0233 91.9661 44.8925 92.0533C41.1854 94.2778 41.6651 98.6395 45.3286 100.602C49.777 103.001 56.0136 102.216 60.7237 101.256C64.6925 100.428 70.929 98.9884 73.066 95.0193C75.1158 91.181 70.929 86.9501 67.0911 86.8629H67.1347Z" fill="#FFFB64"/>
<path d="M129.762 113.338C127.669 108.889 124.616 106.229 121.214 107.668C120.996 106.36 120.255 105.226 118.772 104.31C118.641 104.222 118.467 104.31 118.467 104.484C118.467 106.709 118.467 108.41 117.813 110.678C117.377 112.248 119.862 113.426 120.517 111.812C123.046 105.88 127.059 114.342 127.495 115.694C128.062 117.351 128.192 118.921 128.149 120.666C128.018 126.598 124.834 131.265 123.526 136.848C123.395 137.458 124.136 137.938 124.616 137.458C130.242 131.963 133.208 120.535 129.719 113.295L129.762 113.338Z" fill="#FFFB64"/>
<path d="M-3.38563 174.576C-3.90898 175.187 -3.21118 176.277 -2.46977 175.754C1.23728 173.093 6.64521 171.305 7.56107 177.935C7.99719 181.119 6.33993 184.521 4.72627 187.138C1.36812 192.503 -4.3451 197.868 -10.4072 199.918C-16.1204 201.837 -22.924 200.616 -25.0174 194.248C-26.9799 188.272 -24.0579 182.515 -17.7341 181.817C-15.946 181.642 -15.3354 179.549 -16.8182 178.502C-19.5658 176.539 -14.8121 171.872 -12.6314 171.523C-11.5411 171.349 -9.53498 173.006 -8.70634 172.439C-7.04907 171.392 -7.74687 169.124 -9.01163 168.034C-11.105 166.246 -14.1579 167.292 -16.2077 168.514C-19.9583 170.782 -23.1856 175.71 -21.0486 179.287C-26.2821 182.035 -28.6372 189.144 -27.0671 194.771C-24.5812 203.669 -15.9896 205.021 -8.27022 202.011C0.583092 198.566 10.4831 190.54 11.3117 180.334C12.1404 170.476 2.72009 167.859 -3.34202 174.533L-3.38563 174.576Z" fill="#FFFB64"/>
<path d="M55.7118 122.411C52.0483 118.79 47.0765 121.582 45.7682 125.726C45.4629 126.729 46.5968 127.47 47.4254 126.99C53.2695 123.894 51.1761 137.153 45.1576 137.982C41.2325 138.549 37.0457 135.583 33.9492 134.013C30.0241 132.05 26.4479 130.611 24.4417 126.38C24.1801 125.813 23.4386 125.464 22.8281 125.464C19.9497 125.464 18.0307 126.423 16.0246 127.95C13.1898 117.656 -1.24594 135.147 8.65406 137.589C9.09018 137.72 9.43909 137.24 9.22102 136.848C8.436 135.321 8.13071 133.882 8.74129 132.181C8.95935 131.614 12.9717 125.42 13.3642 130.872C13.4514 131.919 14.6726 132.966 15.6756 132.224C21.4325 127.776 21.04 131.483 24.5289 134.187C27.3638 136.412 31.2453 136.586 34.2981 138.811C40.273 143.129 44.1545 142.78 50.5219 138.025C54.7087 134.885 60.9889 127.645 55.7118 122.454V122.411Z" fill="#FFFB64"/>
<path d="M84.1877 121.756C82.8357 116.217 76.4683 106.098 70.0137 111.768C69.8392 111.899 70.0137 112.161 70.1881 112.161C78.7361 112.64 82.0507 122.803 80.5242 129.913C79.2159 135.888 74.8983 139.945 73.1102 145.44C72.9357 145.964 73.5463 146.662 74.1132 146.444C82.1379 143.216 86.1502 129.564 84.2313 121.756H84.1877Z" fill="#FFFB64"/>
<path d="M92.5187 97.0257C92.3443 96.1097 91.6465 95.4991 90.8615 95.2374C90.0329 94.6703 88.9861 94.4523 88.0703 94.7576C86.98 94.8884 86.0205 95.5863 85.6716 96.982C85.6716 97.1129 85.6716 97.2437 85.628 97.331C85.061 98.2905 84.5813 99.3374 84.3632 100.515C84.1016 101.867 84.5377 103.176 85.5844 103.961C86.8928 105.356 89.5967 105.575 90.687 103.743C90.9923 103.525 91.2976 103.263 91.5157 102.87C92.606 101.038 92.9113 99.1193 92.4751 97.0257H92.5187Z" fill="#FFFB64"/>
<path d="M100.282 93.5799C97.229 93.5799 97.229 98.2905 100.282 98.2905C103.335 98.2905 103.335 93.5799 100.282 93.5799Z" fill="#FFFB64"/>
<path d="M79.7417 165.417C76.5144 162.364 72.7202 162.8 69.1003 164.981C65.5241 165.722 61.9043 168.601 59.6365 170.694C55.8422 174.184 53.1382 178.894 53.3127 184.172C53.4435 188.228 55.7986 191.631 60.1598 191.238C64.3466 190.845 66.1783 187.443 68.0536 184.172C75.5114 188.665 87.025 172.396 79.7417 165.417Z" fill="#FFFB64"/>
<path d="M67.5719 189.144C66.6124 189.45 65.9582 189.93 65.4785 190.54C64.6062 191.107 63.9084 192.198 63.9957 193.462C64.0829 195.033 65.6529 196.428 67.1794 196.036C68.3133 195.905 69.4036 195.207 69.7525 194.073C69.8833 193.942 70.0142 193.811 70.145 193.681C71.715 191.761 70.3194 188.316 67.5282 189.188L67.5719 189.144Z" fill="#FFFB64"/>
<path d="M15.803 149.322C15.6722 148.668 15.4541 148.014 15.0616 147.359C14.233 145.877 12.2704 145.484 10.8312 146.269C7.56029 148.057 5.85941 151.896 6.29553 155.559C6.25192 155.778 6.12109 155.996 6.12109 156.257C6.12109 157.566 6.94972 158.787 8.04003 159.441C11.4854 161.448 15.0616 158.046 16.0211 154.905C16.5444 153.204 16.5444 150.98 15.7594 149.366L15.803 149.322Z" fill="#FFFB64"/>
<path d="M-1.94394 152.594C-1.94394 152.594 -1.85671 152.986 -1.76949 153.161C-1.07169 155.778 2.8098 155.778 3.5076 153.161C3.55121 152.986 3.59483 152.768 3.68205 152.594C4.94681 147.927 -3.20869 147.883 -1.90032 152.594H-1.94394Z" fill="#FFFB64"/>
<path d="M16.8089 107.188C15.2824 106.752 14.2357 106.97 13.2763 107.537C12.8401 107.537 12.404 107.537 12.0115 107.668C10.2234 108.235 9.30754 110.023 9.48198 111.812C9.65643 113.382 10.7467 114.909 12.4912 114.821C13.756 114.778 15.0644 114.821 16.1983 114.167C17.245 113.6 17.8992 112.597 18.5533 111.637C19.6873 109.98 18.5097 107.668 16.7216 107.145L16.8089 107.188Z" fill="#FFFB64"/>
<path d="M26.6197 93.1437C23.0434 93.1437 23.0434 98.7267 26.6197 98.7267C30.1959 98.7267 30.1959 93.1437 26.6197 93.1437Z" fill="#FFFB64"/>
<path d="M36.0398 184.826C35.7346 182.34 34.6879 179.898 32.3328 178.764C30.5883 177.891 28.5385 178.022 26.8812 178.938C26.6632 178.938 26.4015 178.938 26.1834 178.938C23.305 179.854 21.9094 183.082 20.8627 185.699C19.598 188.796 18.7257 192.285 19.6852 195.6C21.3425 201.444 27.3174 203.887 31.8531 199.264C35.2984 195.731 36.6068 189.581 36.0398 184.826Z" fill="#FFFB64"/>
<path d="M29.8465 169.779C28.1893 169.081 26.4448 168.514 24.7003 169.43C24.0025 169.822 23.4791 170.389 23.043 171.043C20.6443 171.392 20.0774 174.358 21.473 176.147C24.4822 179.941 29.0615 177.499 30.9805 174.053C31.7219 172.744 31.4166 170.433 29.8465 169.779Z" fill="#FFFB64"/>
<path opacity="0.6" d="M59.2417 230.668C51.784 229.839 44.1518 234.244 39.4853 239.784C37.3047 242.357 36.7377 245.977 34.7752 248.42C30.4139 253.741 28.1461 246.806 23.7849 245.148C17.5047 242.749 8.47691 248.027 2.72008 252.04C-2.1645 236.381 -24.1015 245.628 -29.4658 257.841C-29.5531 258.103 -29.3786 258.408 -29.0733 258.321C-19.3914 255.355 -5.87154 238.431 -0.332771 255.835C0.146965 257.318 2.45842 257.885 3.24344 256.314C6.81965 249.292 16.5452 245.018 23.9593 247.504C27.6227 248.725 29.9778 251.735 33.4668 253.261C34.0774 253.523 34.906 253.261 34.8624 252.476C34.5135 245.105 45.2421 237.69 51.3479 235.858C54.8368 234.811 58.5875 234.55 61.9893 236.032C65.0421 237.341 66.9175 240.089 69.8395 241.615C70.4065 241.921 71.1479 241.572 71.1479 240.874C70.9734 234.855 64.8677 231.322 59.3289 230.755L59.2417 230.668Z" fill="#FFFB64"/>
<path opacity="0.6" d="M156.889 140.555C155.014 135.627 151.176 131.439 145.55 131.483C139.27 131.527 134.559 136.804 131.507 141.689C128.759 146.095 126.404 151.329 125.575 156.475C124.659 161.971 125.968 167.51 125.008 172.919C117.158 166.682 106.255 171.349 105.383 182.471C105.383 182.907 105.993 183.038 106.168 182.689C110.267 174.969 117.463 168.993 124.659 178.109C125.881 179.636 127.843 178.153 128.061 176.714C128.89 170.171 127.538 163.629 128.672 157.13C129.893 150.151 134.603 137.328 142.759 135.408C150.914 133.489 154.272 142.911 154.011 149.366C153.705 156.17 149.78 162.189 149.213 168.993C149.039 171.262 152.789 171.785 153.182 169.517C154.926 159.659 160.77 150.762 156.933 140.555H156.889Z" fill="#FFFB64"/>
<path opacity="0.6" d="M128.326 215.227C122.176 210.429 114.326 201.968 105.953 201.619C96.8813 201.27 90.4267 209.557 87.0249 216.972C81.0064 230.057 81.8786 244.8 79.0002 258.626C77.7791 264.34 75.9474 270.097 73.4615 275.375C70.6266 281.35 67.7046 283.706 61.2936 285.058C60.4214 285.232 60.1597 286.454 60.7703 287.021C74.1156 299.757 83.7104 260.196 84.6262 253.915C86.6324 239.914 85.9346 221.639 96.794 210.866C109.442 198.348 116.027 219.371 128.021 216.187C128.413 216.1 128.675 215.445 128.282 215.184L128.326 215.227Z" fill="#FFFB64"/>
<path opacity="0.6" d="M153.619 247.809C151.744 240.743 143.85 238.78 137.395 240.22C128.804 242.139 123.308 249.99 120.604 257.928C118.38 264.514 117.813 273.194 124.573 277.294C129.85 280.478 139.227 278.384 142.411 272.976C142.629 272.583 142.193 272.104 141.8 272.365C138.442 274.415 135.782 276.029 131.508 275.549C127.495 275.113 124.268 272.453 123.308 268.527C121.826 262.421 126.012 253.828 130.025 249.466C135.215 243.796 143.806 242.008 149.432 247.853C149.738 248.202 151.438 251.124 152.529 250.121C152.747 249.946 152.965 249.728 153.139 249.554C153.619 249.118 153.75 248.42 153.575 247.853L153.619 247.809Z" fill="#FFFB64"/>
<path opacity="0.6" d="M152.877 171.131C144.721 176.452 147.382 186.004 152.79 192.067C135.345 198.435 145.114 244.93 165.132 227.135C165.655 226.699 165.088 225.957 164.521 226.088C154.316 227.92 148.864 224.779 147.469 214.093C146.597 207.158 148.254 195.294 157.282 195.512C159.462 195.556 159.942 192.765 158.328 191.631C156.104 190.235 154.36 188.403 153.095 186.091C149.78 179.461 152.266 175.492 160.509 174.184C163.562 175.318 166.964 182.078 168.097 185.044C168.228 185.393 168.664 185.306 168.708 184.957C169.537 176.888 161.686 165.417 152.877 171.131Z" fill="#FFFB64"/>
<path opacity="0.6" d="M122.176 233.067C120.475 229.272 117.51 228.618 114.369 229.359C115.809 224.125 115.024 217.277 108.046 219.676C101.591 221.857 95.3545 234.113 103.074 238.257C103.597 238.519 104.164 237.995 103.859 237.472C101.591 233.328 103.248 227.396 106.694 224.43C112.494 219.414 112.32 227.527 110.183 231.235C109.223 232.848 111.36 234.288 112.669 233.154C120.868 226.131 121.391 242.575 117.073 246.937C114.849 249.161 111.404 251.037 108.264 251.56C103.292 252.345 102.376 249.292 100.806 245.41C100.37 244.363 98.9743 244.276 98.5818 245.41C96.8373 250.601 100.85 255.006 106.083 254.788C111.36 254.57 117.073 251.298 120.301 247.198C123.223 243.404 124.182 237.515 122.22 233.067H122.176Z" fill="#FFFB64"/>
<path opacity="0.6" d="M138.704 192.241C140.667 188.447 141.321 182.994 136.349 181.424C133.645 180.596 131.334 182.078 129.458 184.085C124.53 187.661 121.346 193.811 120.561 199.743C120.387 201.139 121.477 202.273 122.611 202.884C123.571 204.279 125.315 204.977 127.103 203.931C127.539 203.669 128.019 203.364 128.455 203.058C128.804 202.927 129.109 202.796 129.458 202.622C129.982 202.622 130.461 202.448 130.941 202.099C131.77 201.488 132.424 200.834 132.991 200.136C133.863 199.264 134.648 198.304 135.346 197.257C136.829 195.949 138.006 194.117 138.661 192.241H138.704Z" fill="#FFFB64"/>
<path opacity="0.6" d="M121.346 181.817C118.904 183.256 117.988 186.091 119.907 188.359C120.692 189.275 122.306 189.406 123.309 188.796C123.789 188.49 124.137 188.185 124.486 187.749C124.704 187.531 125.01 187.225 125.097 187.138C125.359 186.833 125.489 186.484 125.707 186.135C127.408 183.431 124.05 180.247 121.39 181.817H121.346Z" fill="#FFFB64"/>
<path opacity="0.6" d="M91.6916 194.16C82.2714 185.742 73.7233 198.609 70.8449 207.551C66.3092 205.37 58.9387 207.769 54.752 209.513C45.8114 213.221 41.581 223.384 44.7647 232.5C45.07 233.372 46.2476 233.372 46.5529 232.5C48.7335 226.262 47.2506 220.025 52.8766 215.14C55.7114 212.654 67.8357 206.591 69.9727 212.392C70.6269 214.224 73.8106 214.747 74.2031 212.392C75.0753 207.027 77.0379 200.703 82.0533 197.781C85.8912 195.556 91.2991 195.425 90.1652 201.226C89.5546 204.498 85.804 206.46 83.0564 207.551C82.9692 207.551 82.8819 207.769 83.0564 207.812C90.4705 211.215 97.7973 199.569 91.7352 194.16H91.6916Z" fill="#FFFB64"/>
<path opacity="0.6" d="M178.872 209.601C177.956 209.077 176.997 209.775 176.909 210.735C176.735 212.654 176.997 213.003 178 214.529C180.704 218.629 183.931 219.72 184.236 225.564C184.629 233.416 182.754 241.703 179.177 248.638C179.003 248.987 179.483 249.292 179.744 248.943C187.42 238.475 192.915 217.539 178.916 209.601H178.872Z" fill="#FFFB64"/>
<path opacity="0.6" d="M162.386 47.0408C162.299 46.0812 160.947 46.0376 160.903 47.0408C160.816 47.7387 160.86 48.4365 160.816 49.0908C159.682 49.5269 158.287 54.9354 157.589 56.2876C154.841 61.5652 150.524 66.6684 145.421 69.9396C141.496 72.4694 137.047 74.2141 133.122 76.7875C128.499 79.797 120.126 87.0374 127.365 91.9661C128.325 92.6204 129.284 91.3555 128.848 90.4832C124.487 81.3236 141.452 76.4385 147.165 72.8619C155.757 67.4535 163.651 57.5961 162.43 46.9972L162.386 47.0408Z" fill="#FFFB64"/>
<path opacity="0.6" d="M158.503 64.5747C156.191 68.98 154.49 73.1673 152.79 77.7906C150.653 83.5917 147.12 88.2587 144.503 93.7544C144.242 94.3214 144.808 94.9757 145.375 94.6267C155.057 89.1746 155.93 74.0832 158.634 64.6184C158.634 64.5311 158.503 64.4439 158.459 64.5311L158.503 64.5747Z" fill="#FFFB64"/>
<path opacity="0.6" d="M184.802 93.6236C178.217 92.4459 170.105 95.6299 164.392 98.6395C159.725 101.082 151.744 106.229 152.965 112.466C153.227 113.775 154.971 113.775 155.626 112.815C159.289 107.45 162.342 104.179 168.491 101.431C173.812 99.0321 179.133 98.0725 184.802 97.0257C186.46 96.7204 186.503 93.9289 184.802 93.6236Z" fill="#FFFB64"/>
<path opacity="0.6" d="M183.057 95.7172C177.78 97.8544 173.899 101.78 170.976 106.578C168.273 110.983 164.435 117.656 164.696 122.978C164.696 123.501 165.438 123.937 165.83 123.457C168.927 119.706 169.973 114.254 172.285 109.98C175.076 104.746 178.609 99.8171 183.319 96.1533C183.493 96.0225 183.319 95.6735 183.101 95.7608L183.057 95.7172Z" fill="#FFFB64"/>
<path opacity="0.6" d="M20.5571 69.4598C18.769 67.6715 16.4575 66.9736 14.2769 65.6651C10.5262 63.4407 7.16809 60.562 4.15883 57.3779C-1.90328 50.9226 -6.78787 43.1152 -7.57289 34.1302C-7.66011 33.3014 -8.92487 32.6908 -9.31738 33.6504C-15.5103 47.3461 -7.224 62.3939 0.146489 73.8651C0.190102 73.9523 0.320951 73.8651 0.277338 73.7779C-5.56672 63.3534 -10.5821 51.6641 -8.83764 39.7131C-7.44205 46.4301 -3.73501 52.7109 0.539001 57.9013C4.68217 62.9173 12.7941 72.164 20.1646 71.0736C20.9496 70.9428 21.0804 69.896 20.6007 69.4162L20.5571 69.4598Z" fill="#FFFB64"/>
<path opacity="0.6" d="M38.5258 56.5493C37.261 52.6674 36.6504 48.3493 36.3888 44.2493C36.3888 43.6823 35.6474 43.4642 35.3421 43.9876C32.8562 48.0876 30.8064 52.4929 29.6289 57.1599C28.6694 60.9546 27.0993 66.1886 29.2363 69.8088C29.498 70.2449 30.065 70.1141 30.2394 69.6779C31.9403 65.6216 31.635 60.7365 32.7689 56.462C33.4667 53.8886 34.1209 51.3152 34.9059 48.7855C34.8187 55.5024 36.8249 63.3971 42.4073 66.7556C42.6689 66.9301 43.0178 66.6684 42.9306 66.363C41.7531 62.9609 39.6161 60.0386 38.5258 56.5493Z" fill="#FFFB64"/>
<path opacity="0.6" d="M83.5784 44.9472C81.1361 53.7141 78.9991 61.9141 71.9775 68.2386C71.8903 68.3258 71.9775 68.413 72.0648 68.3694C80.133 64.5311 83.3168 53.1471 83.8401 44.9472C83.8401 44.7727 83.622 44.7727 83.5784 44.9472Z" fill="#FFFB64"/>
<path opacity="0.6" d="M99.6704 54.1939C99.5832 53.7141 98.7546 53.7141 98.6673 54.1939C97.577 60.562 93.0414 66.8428 88.5057 71.8587C89.2471 62.6556 87.8515 53.2344 83.7083 44.9472C83.7083 44.9035 83.6211 44.9472 83.6211 44.9472C85.0603 55.4588 86.2378 64.7928 85.54 75.4789C85.4528 76.5694 86.9792 77.18 87.7206 76.3949C91.951 71.597 97.2281 66.3194 98.8854 59.9513C100.717 52.8854 99.0599 58.5992 99.4524 61.7832C99.9757 66.1449 100.019 71.03 101.328 75.2609C101.546 75.9587 102.636 76.046 102.811 75.2609C104.511 68.2822 100.717 60.9981 99.6268 54.1939H99.6704Z" fill="#FFFB64"/>
<path opacity="0.6" d="M212.802 242.444C209.4 236.207 204.865 228.574 199.413 223.907C198.977 223.558 198.454 223.994 198.672 224.474C204.123 236.818 214.895 247.068 217.556 260.676C211.232 255.093 202.335 249.685 194.136 251.647C193.918 251.691 193.961 251.996 194.136 252.04C203.6 254.962 211.101 257.623 218.384 264.776C219.3 265.692 220.609 264.776 220.391 263.598C219.126 256.009 216.465 249.118 212.802 242.401V242.444Z" fill="#FFFB64"/>
<path opacity="0.6" d="M215.46 195.294C211.317 196.036 207.261 196.952 203.074 197.388C200.022 197.693 196.925 197.519 194.09 198.827C193.959 198.915 193.959 199.176 194.09 199.22C199.28 201.532 207.392 200.005 213.28 198.086C211.143 200.572 208.09 202.448 205.43 203.974C202.289 205.762 198.8 206.068 195.704 207.638C195.224 207.9 195.311 208.554 195.704 208.816C198.757 210.996 203.598 208.336 206.302 206.591C210.314 203.931 213.018 200.18 216.42 196.865C217.161 196.167 216.376 195.12 215.504 195.251L215.46 195.294Z" fill="#FFFB64"/>
<path opacity="0.6" d="M219.037 220.898C216.9 219.676 213.803 217.408 211.23 218.15C210.838 218.28 210.707 218.804 210.968 219.109C212.233 220.374 214.327 221.334 216.289 222.032C214.457 222.729 212.32 222.38 210.445 221.813C208.352 221.203 206.04 220.723 204.121 219.763C203.903 219.633 203.729 219.982 203.903 220.112C206.651 222.032 208.657 223.951 212.146 224.518C215.024 224.997 217.074 224.343 219.255 222.468C219.735 222.032 219.56 221.203 219.037 220.941V220.898Z" fill="#FFFB64"/>
<path opacity="0.6" d="M210.271 164.108C203.468 167.292 194.483 166.464 190.079 173.66C189.817 174.053 190.297 174.489 190.689 174.271C196.446 171.349 202.246 168.339 208.396 166.376C206.477 169.081 204.994 172.003 203.337 174.882C200.938 179.069 198.19 182.253 194.658 185.524C193.873 186.222 194.745 187.225 195.574 187.094C204.907 185.83 208.09 172.352 211.318 165.199C211.667 164.457 210.969 163.716 210.227 164.065L210.271 164.108Z" fill="#FFFB64"/>
<path opacity="0.6" d="M202.728 138.331C200.067 139.901 197.974 142.082 195.445 143.783C192.566 145.746 189.426 146.836 186.155 147.927C185.937 148.014 185.981 148.275 186.199 148.275C189.47 148.45 192.348 147.447 195.139 145.702C196.448 144.873 197.669 143.914 198.846 142.911C199.588 142.3 200.416 141.166 201.289 140.381C199.282 142.431 198.148 146.923 196.927 149.148C194.921 152.768 191.563 156.126 190.691 160.226C190.604 160.663 191.127 161.012 191.476 160.663C194.18 157.958 196.23 154.033 198.018 150.631C200.024 146.836 200.678 142.082 203.077 138.549C203.208 138.374 202.946 138.156 202.771 138.244L202.728 138.331Z" fill="#FFFB64"/>
<path opacity="0.6" d="M186.196 127.601C181.661 129.564 175.947 130.087 173.156 134.536C173.069 134.667 173.244 134.841 173.374 134.754C176.645 132.879 180.265 131.963 183.798 130.785C182.489 132.268 181.007 133.533 179.436 135.016C177.692 136.673 175.381 138.68 174.944 141.166C174.857 141.689 175.293 142.387 175.904 142.125C178.477 141.122 180.483 138.549 182.14 136.455C184.059 134.1 185.935 131.614 187.636 129.084C188.333 128.081 187.025 127.208 186.109 127.557L186.196 127.601Z" fill="#FFFB64"/>
<path style="mix-blend-mode:hard-light" opacity="0.22" d="M52.658 349.48C129.253 349.48 191.345 287.264 191.345 210.517C191.345 133.769 129.253 71.5534 52.658 71.5534C-23.9369 71.5534 -86.0293 133.769 -86.0293 210.517C-86.0293 287.264 -23.9369 349.48 52.658 349.48Z" fill="url(#paint1_radial_29_79512)"/>
<defs>
<radialGradient id="paint0_radial_29_79512" cx="0" cy="0" r="1" gradientUnits="userSpaceOnUse" gradientTransform="translate(45.6317 177.318) scale(182.602 182.621)">
<stop stop-color="white"/>
<stop offset="0.1" stop-color="#FEFFED"/>
<stop offset="0.29" stop-color="#FDFFC1"/>
<stop offset="0.41" stop-color="#FDFFA1"/>
<stop offset="0.52" stop-color="#FDE778"/>
<stop offset="0.64" stop-color="#FFCA45"/>
</radialGradient>
<radialGradient id="paint1_radial_29_79512" cx="0" cy="0" r="1" gradientUnits="userSpaceOnUse" gradientTransform="translate(65.3457 226.147) scale(135.017 135.031)">
<stop stop-color="white"/>
<stop offset="0.1" stop-color="#FEFFED"/>
<stop offset="0.29" stop-color="#FDFFC1"/>
<stop offset="0.41" stop-color="#FDFFA1"/>
<stop offset="0.52" stop-color="#FDE778"/>
<stop offset="0.64" stop-color="#FFCA45"/>
</radialGradient>
</defs>
</svg>
