<svg width="538" height="343" viewBox="0 0 538 343" fill="none" xmlns="http://www.w3.org/2000/svg">
<path d="M219.774 49.5408C154.108 76.3815 123.2 152.77 150.74 220.16C178.28 287.55 253.838 320.421 319.504 293.58C385.17 266.74 416.078 190.351 388.538 122.961C360.998 55.5716 285.44 22.7001 219.774 49.5408Z" fill="#31ADE0"/>
<g style="mix-blend-mode:screen" opacity="0.76">
<path d="M339.456 62.5718C328.372 55.0867 316.356 49.4224 303.775 45.6597C297.423 46.0238 291.153 46.752 285.367 47.7635C275.051 49.5842 225.453 64.4329 228.285 78.2296C232.29 76.6921 236.416 75.4784 240.664 74.5883C218.778 91.2981 170.959 101.737 162.059 131.232C165.498 129.937 170.11 130.139 173.508 129.209C164.689 139.728 152.026 149.034 140.982 159.473C140.537 165.42 140.496 171.449 140.901 177.477C167.844 150.329 199.521 125.608 233.868 112.256C223.754 123.706 172.942 145.838 180.345 166.593C212.75 152.675 237.63 120.995 266.637 101.211C285.125 88.5873 304.139 76.2067 324.811 67.5078C329.787 65.4444 334.602 63.7856 339.416 62.4909L339.456 62.5718Z" fill="#60BFEE"/>
</g>
<g style="mix-blend-mode:multiply" opacity="0.76">
<path d="M395.689 201.025C400.665 177.153 399.088 151.704 390.228 127.631C377.687 141.428 368.342 162.75 354.587 173.755C347.831 179.176 291.759 210.33 295.805 219.879C301.307 232.785 339.78 203.129 348.276 207.943C329.14 225.907 301.59 241.687 277.115 250.102C264.614 254.391 250.576 258.194 237.468 260.581C227.557 262.361 215.501 260.703 206.56 266.124C200.128 270.008 196.446 273.811 194.909 277.251C202.393 282.793 210.363 287.527 218.697 291.29C218.778 291.29 218.859 291.29 218.94 291.29C249.079 288.498 280.877 272.031 307.699 259.408C342.855 242.819 373.682 224.572 395.689 201.025Z" fill="#60BFEE"/>
</g>
<g style="mix-blend-mode:multiply" opacity="0.76">
<path d="M336.827 108.048C309.56 113.429 277.317 129.978 255.471 146.809C242.242 157.005 217.483 173.067 214.125 190.06C224.725 184.719 250.009 160.929 260.366 166.917C251.223 181.24 231.683 190.06 217.726 199.204C211.941 203.007 184.027 213.648 185.523 223.277C187.829 238.126 253.569 199.689 259.112 196.655C295.603 176.425 339.011 153.727 336.827 108.008L336.827 108.048Z" fill="#60BFEE"/>
</g>
<g style="mix-blend-mode:multiply" opacity="0.76">
<path d="M356.367 95.3846C352.362 99.3497 333.55 126.134 346.051 130.018C357.459 133.538 384.888 91.3387 362.92 88.6279L356.367 95.4251L356.367 95.3846Z" fill="#60BFEE"/>
</g>
<g style="mix-blend-mode:multiply" opacity="0.76">
<path d="M185.402 194.471C175.612 195.239 150.206 205.718 149.599 217.978C161.897 223.278 181.033 208.105 188.032 199.083L185.442 194.471L185.402 194.471Z" fill="#60BFEE"/>
</g>
<g style="mix-blend-mode:screen" opacity="0.76">
<path d="M347.709 204.99C337.838 204.019 329.343 210.007 320.887 214.255C318.258 215.55 298.637 225.584 298.07 218.989C298.03 218.341 296.978 217.977 296.735 218.665C293.984 225.948 304.867 223.156 308.063 222.145C321.858 217.653 333.388 208.793 347.709 205.677C348.033 205.596 348.033 205.03 347.709 204.99Z" fill="#60BFEE"/>
</g>
<g style="mix-blend-mode:screen" opacity="0.76">
<path d="M354.627 235.537C364.539 228.011 375.664 221.255 383.998 211.908C384.119 211.787 383.917 211.585 383.796 211.706C374.612 220.931 362.354 227.526 351.876 235.173C341.156 242.981 329.828 249.9 318.015 255.847C290.869 269.563 262.631 278.667 234.272 289.146C233.423 289.469 233.827 290.683 234.717 290.521C263.886 285.059 292.852 271.02 319.188 257.709C331.648 251.397 343.502 244.033 354.627 235.577L354.627 235.537Z" fill="#60BFEE"/>
</g>
<g style="mix-blend-mode:screen" opacity="0.76">
<path d="M360.574 122.25C363.123 119.013 365.712 115.574 367.654 111.933C370.324 106.956 369.636 101.575 371.942 96.5581C371.942 96.4772 371.861 96.3963 371.821 96.4772C370.688 98.0147 370.202 99.3498 369.717 101.211C368.382 106.754 366.966 110.759 363.608 115.453C359.441 121.319 353.858 130.949 345.525 128.724C344.554 128.481 344.311 129.897 345.201 130.221C351.876 132.446 356.731 127.065 360.534 122.209L360.574 122.25Z" fill="#60BFEE"/>
</g>
<g style="mix-blend-mode:screen" opacity="0.76">
<path d="M313.929 160.768C329.828 147.011 336.139 129.088 336.301 107.846C336.301 107.765 336.139 107.725 336.139 107.846C334.359 118.366 333.226 129.209 328.574 138.879C323.84 148.711 316.154 155.832 307.739 162.386C292.609 174.119 276.305 184.517 259.8 194.187C255.188 196.898 191.956 236.387 185.887 225.139C185.119 223.723 182.732 224.815 183.339 226.312C189.245 241.12 241.837 207.984 248.877 204.019C271.37 191.355 294.308 177.801 313.929 160.808L313.929 160.768Z" fill="#60BFEE"/>
</g>
<g style="mix-blend-mode:screen" opacity="0.76">
<path d="M187.627 197.869C187.627 197.869 187.465 197.95 187.506 198.031C189.893 202.886 162.828 215.226 159.591 218.22C158.782 218.989 159.955 220.041 160.765 219.636C164.001 218.099 192.441 201.187 187.627 197.91L187.627 197.869Z" fill="#60BFEE"/>
</g>
<g style="mix-blend-mode:screen" opacity="0.76">
<path d="M259.921 166.553C241.999 157.49 227.759 183.587 213.761 189.251C212.75 189.656 212.871 191.517 214.125 191.355C220.315 190.546 224.644 185.488 228.972 181.28C236.902 173.553 247.987 164.732 259.638 167.403C260.123 167.524 260.406 166.796 259.921 166.553Z" fill="#60BFEE"/>
</g>
<g style="mix-blend-mode:screen" opacity="0.76">
<path d="M218.656 142.237C231.44 131.798 242.727 119.903 256.037 109.991C268.214 100.928 280.513 92.3503 293.337 84.2584C304.462 77.2588 316.275 65.4447 329.747 64.1096C329.909 64.1096 329.949 63.7858 329.747 63.7858C320.442 62.8552 312.837 68.4387 305.433 73.3343C291.881 82.3164 277.883 90.4083 264.695 99.9163C251.587 109.343 238.844 118.69 227.112 129.856C212.831 143.451 196.487 153.808 180.062 164.449C178.201 165.663 180.062 168.617 181.963 167.403C194.343 159.351 207.208 151.583 218.656 142.237Z" fill="#60BFEE"/>
</g>
<g style="mix-blend-mode:screen" opacity="0.76">
<path d="M144.299 178.368C156.557 163.519 168.734 149.965 184.472 138.677C199.116 128.157 215.096 121.481 230.955 113.228C231.076 113.187 230.995 112.985 230.874 112.985C194.95 118.123 163.758 149.237 141.751 176.021C140.375 177.72 142.883 180.067 144.299 178.368Z" fill="#60BFEE"/>
</g>
<g style="mix-blend-mode:screen" opacity="0.76">
<path d="M240.583 73.3345C238.884 72.2017 236.457 73.5772 234.879 74.4269C233.746 75.0338 227.638 78.9179 227.678 76.6117C227.678 76.4904 227.516 76.45 227.476 76.5309C226.909 77.2187 226.707 77.2996 226.626 78.1492C226.626 78.5134 226.828 78.7965 227.193 78.837C229.579 78.9584 231.724 78.0278 233.787 76.9354C235.041 76.288 236.255 75.5598 237.59 75.1148C238.682 74.7506 239.653 74.8315 240.624 74.3055C241.028 74.1032 240.866 73.5368 240.583 73.3345Z" fill="#60BFEE"/>
</g>
<g style="mix-blend-mode:screen" opacity="0.76">
<path d="M172.294 128.804C172.497 128.481 172.214 128.076 171.89 127.955C170.474 127.591 168.977 128.926 167.763 129.533C166.55 130.139 164.284 131.03 162.99 130.22C162.909 130.18 162.828 130.301 162.909 130.342C163.516 130.868 163.637 131.353 164.527 131.637C165.417 131.92 166.347 131.758 167.197 131.515C168.734 131.07 171.445 130.22 172.294 128.764L172.294 128.804Z" fill="#60BFEE"/>
</g>
<g style="mix-blend-mode:screen" opacity="0.76">
<path d="M180.021 131.677C189.164 125.163 199.845 121.441 207.167 112.54C207.814 111.731 207.45 110.557 206.439 110.274C203.324 109.465 201.22 109.829 198.146 110.8C196.204 111.407 194.424 112.783 192.482 113.309C191.106 114.522 189.569 114.765 187.951 114.077C185.078 114.158 185.159 113.268 188.113 111.488C191.389 105.136 203.89 101.413 209.918 99.3904C216.512 97.2056 223.309 95.6682 229.984 93.8475C258.667 85.9579 280.675 64.3524 309.398 56.0177C309.6 55.9773 309.519 55.6535 309.317 55.694C280.634 61.9248 258.991 82.6402 231.157 90.5703C220.436 93.6452 209.23 95.5468 199.157 100.523C193.574 103.275 182.975 108.818 181.801 115.938C181.721 116.545 181.963 117.233 182.57 117.516C186.332 119.377 189.973 117.435 193.453 115.938C195.314 115.089 197.134 114.239 199.036 113.389C203.931 112.337 204.416 112.985 200.532 115.372C197.862 119.054 191.915 121.32 188.153 123.545C171.93 133.012 160.805 147.173 147.212 159.958C146.443 160.687 147.576 162.022 148.426 161.415C160.158 152.797 168.289 140.052 180.102 131.596L180.021 131.677Z" fill="#60BFEE"/>
</g>
<g style="mix-blend-mode:screen" opacity="0.76">
<path d="M212.507 138.596C212.71 137.989 212.386 137.18 211.658 137.22C205.266 137.706 201.22 142.965 197.579 147.861C196.891 148.791 198.227 150.005 198.914 149.075C200.977 146.323 203.931 141.832 207.127 140.416C215.096 136.856 205.306 145.838 203.89 147.133C201.18 149.56 188.153 159.958 187.101 155.063C185.079 145.514 209.837 133.741 216.229 130.221C222.662 126.66 260.366 108.13 251.466 101.818C247.339 98.9048 235.526 104.69 231.44 106.188C229.62 106.875 215.582 112.418 215.784 109.586C216.067 105.662 227.88 104.731 231.4 103.8C245.721 100.078 258.95 92.0266 271.613 84.5416C287.067 75.3977 301.954 60.6704 320.483 59.0116C320.523 59.0116 320.523 58.9307 320.483 58.9307C306.404 58.4452 295.562 67.3867 284.154 74.4267C268.498 84.1775 250.98 95.2633 233.301 100.564C231.036 101.251 201.301 108.17 214.571 113.43C220.517 115.776 230.995 108.939 236.457 107.078C243.698 104.65 256.037 101.009 243.253 111.285C237.347 116.019 229.863 119.701 223.349 123.464C211.01 130.585 183.42 140.538 184.553 158.906C184.593 159.756 185.402 160.282 186.171 160.08C196.082 157.612 209.109 148.832 212.629 138.636L212.507 138.596Z" fill="#60BFEE"/>
</g>
<g style="mix-blend-mode:screen" opacity="0.76">
<path d="M300.376 51.6886C300.619 51.6886 300.66 51.2841 300.376 51.2436C290.141 48.9374 280.23 52.2551 270.237 54.359C262.47 55.9773 245.438 58.8095 241.554 67.7511C237.185 77.8255 256.118 73.901 260.528 72.4444C264.169 71.2306 285.003 64.3525 278.207 57.3934C272.422 51.4863 254.176 62.4509 250.859 67.5083C250.495 68.0748 251.021 68.7626 251.547 68.9244C256.401 70.6238 260.851 68.1962 264.735 65.2831C265.504 64.6762 264.735 63.4219 263.886 63.9479C260.245 66.1731 250.819 68.2771 258.505 63.7456C261.499 61.9654 267.163 58.324 270.884 58.6072C274.08 58.8499 277.6 58.85 273.999 64.0692C273.19 65.2021 270.884 65.9305 269.63 66.5373C266.192 68.2771 262.389 69.855 258.667 70.9069C255.673 71.797 250.131 73.8201 247.097 72.3635C236.942 67.4679 258.343 59.1737 263.441 57.7981C274.849 54.7231 288.483 50.7176 300.376 51.7291L300.376 51.6886Z" fill="#60BFEE"/>
</g>
<g style="mix-blend-mode:screen" opacity="0.76">
<path d="M267.041 248.727C267.527 248.12 267.284 247.027 266.434 246.865C258.748 245.449 268.336 241.929 270.803 240.877C275.173 238.976 280.796 238.895 285.408 237.479C293.054 235.173 299.972 232.098 306.526 227.445C306.971 227.121 307.092 226.433 306.606 226.029C300.295 220.809 290.424 227.485 284.518 223.52C270.642 214.295 325.661 180.471 331.851 175.94C342.936 167.888 388.61 139.202 378.536 119.013C378.536 118.932 378.415 119.013 378.415 119.054C386.182 138.798 342.571 166.148 330.961 174.564C315.507 185.771 288.644 197.1 280.634 216.157C277.721 223.035 281.281 225.058 287.997 225.462C291.112 225.665 294.389 224.936 297.464 225.381C308.346 226.919 296.412 231.41 290.627 233.433C279.825 237.236 267.81 237.398 258.141 243.871C257.494 244.316 257.494 245.207 258.02 245.773C256.684 244.357 262.51 250.79 263.036 249.172C262.47 252.934 250.778 254.027 248.877 254.27C241.756 255.079 234.677 254.553 227.557 254.27C215.096 253.744 200.937 254.31 197.013 268.35C196.649 269.604 198.55 269.968 198.914 268.795C207.45 241.848 251.749 268.269 267.001 248.767L267.041 248.727Z" fill="#60BFEE"/>
</g>
<g style="mix-blend-mode:screen" opacity="0.76">
<path d="M305.474 287.77C308.548 281.863 304.786 278.181 312.068 272.679C316.599 269.199 324.043 268.997 329.383 267.662C339.011 265.234 348.235 262.726 353.697 253.946C354.061 253.38 353.697 252.732 353.211 252.409C347.912 248.848 343.3 252.692 338.081 254.472C330.313 257.102 336.503 253.906 340.387 252.085C344.392 250.224 348.559 248.686 352.645 246.987C359.967 243.912 377.039 238.571 375.098 227.728C374.976 226.96 374.369 226.393 373.56 226.595C369.191 227.809 368.989 228.092 372.873 225.544C375.381 223.925 378.213 222.792 380.923 221.417C385.131 219.272 388.691 217.371 391.482 213.487C392.17 212.556 390.956 211.383 390.107 212.232C382.825 219.717 371.902 221.174 364.984 229.185C364.215 230.075 365.105 231.491 366.238 231.167C377.646 227.89 368.22 236.468 363.851 239.057C358.915 241.97 353.413 243.993 348.114 246.178C342.045 248.686 334.521 250.831 329.788 255.686C329.14 256.333 329.585 257.547 330.435 257.709C333.145 258.275 335.047 257.992 337.636 257.183C338.405 256.94 344.23 253.703 344.877 254.027C343.583 256.576 342.288 259.125 340.994 261.714C339.173 262.443 337.353 263.05 335.451 263.616C327.32 266.205 314.536 266.165 308.427 272.922C306.323 275.228 306.202 277.655 305.069 280.326C302.237 286.961 308.468 282.956 296.452 288.62C288.644 292.302 289.049 292.545 282.374 290.724C269.752 287.204 263.4 289.551 251.344 294.527C251.263 294.527 251.304 294.729 251.385 294.689C259.557 292.585 267.122 288.62 275.82 290.441C281.039 291.533 285.934 294.406 291.355 294.527C296.776 294.689 302.804 292.828 305.474 287.73L305.474 287.77Z" fill="#60BFEE"/>
</g>
<g style="mix-blend-mode:screen" opacity="0.76">
<path d="M171.728 237.6C166.469 226.393 174.641 220.122 182.853 213.689C187.91 209.724 194.302 207.013 199.157 202.926C205.185 197.829 200.573 191.598 203.405 184.153C209.352 168.455 224.482 164.045 234.879 153.323C238.277 149.803 237.711 149.237 237.751 145.191C237.468 144.867 237.104 144.665 236.74 144.543C234.11 143.613 234.029 140.821 236.538 136.168C238.075 132.769 244.993 129.007 248.351 127.146C258.343 121.522 268.498 121.117 279.42 118.689C292.811 115.695 300.093 105.257 309.641 96.2345C313.808 92.3099 343.502 67.144 347.143 84.218C345.201 67.144 317.044 88.1425 312.189 92.3503C302.844 100.442 295.198 112.216 283.102 116.302C273.999 119.377 264.169 118.609 255.107 122.169C248.027 124.92 232.29 132.041 232.169 141.913C232.128 145.716 235.243 144.543 235.162 148.185C234.96 154.699 224.563 158.138 219.749 161.941C210.687 169.143 200.654 180.957 198.51 192.892C198.348 193.823 199.683 194.713 199.602 195.401C198.955 202.684 197.215 201.996 192.239 205.111C185.807 209.117 179.617 213.77 174.075 218.989C171.445 221.497 164.608 227 164.77 231.491C164.972 236.913 178.808 241.97 168.532 248.848C167.683 249.414 168.532 250.709 169.382 250.224C176.178 246.218 174.439 243.669 171.647 237.722L171.728 237.6Z" fill="#60BFEE"/>
</g>
<g style="mix-blend-mode:screen" opacity="0.76">
<path d="M193.089 179.055C197.458 175.737 200.532 170.599 204.861 167.079C208.502 164.085 212.709 161.9 216.472 159.028C218.535 157.409 222.662 154.941 223.026 152.069C223.552 147.537 221.286 147.052 217.564 147.901C212.952 148.913 206.398 155.993 202.96 158.785C195.111 165.137 187.829 172.177 178.363 176.102C178.039 176.223 178.201 176.708 178.525 176.628C190.864 173.714 200.29 164.328 209.999 156.64C212.79 154.415 221.691 147.658 217.079 156.074C214.813 160.16 207.329 162.912 203.85 165.825C196.568 171.975 191.875 179.5 182.085 182.292C176.461 183.91 170.838 183.87 165.417 186.216C158.823 189.008 151.581 193.58 150.732 201.389C150.732 201.429 150.813 201.47 150.813 201.389C154.777 181.766 181.114 188.159 193.129 179.055L193.089 179.055Z" fill="#60BFEE"/>
</g>
<g style="mix-blend-mode:screen" opacity="0.76">
<path d="M225.129 247.756C230.955 247.958 235.567 248.12 238.56 242.577C239.005 241.768 238.277 240.959 237.509 240.918C234.07 240.675 230.712 241.201 227.273 241.485C226.141 241.566 221.245 242.537 220.558 241.889C222.095 238.936 223.632 235.982 225.17 233.069C226.221 233.029 227.273 232.948 228.325 232.907C235.122 231.208 243.739 234.364 250.859 233.271C269.994 230.318 250.778 222.185 256.765 211.706C259.435 207.053 268.659 203.21 273.231 200.742C280.391 196.939 287.835 193.864 295.198 190.505C305.514 185.812 314.778 179.703 323.274 172.137C334.035 162.548 343.502 151.462 353.292 140.821C355.274 138.636 362.718 128.117 365.388 128.4C366.683 130.302 367.977 132.163 369.272 134.064C367.897 135.278 366.561 136.492 365.186 137.706C362.597 139.688 359.724 141.266 356.771 142.642C356.69 142.642 356.771 142.804 356.771 142.763C363.689 139.931 373.641 134.833 373.277 125.932C373.277 125.649 373.034 125.527 372.832 125.487C361.181 124.475 350.662 141.226 343.785 148.468C335.047 157.733 326.511 167.322 316.518 175.252C306.728 183.021 295.845 187.835 284.599 192.974C276.063 196.858 253.65 204.504 251.183 215.874C250.131 220.648 252.72 219.353 253.974 222.914C257.898 234.404 244.426 231.653 238.035 231.329C232.492 231.046 213.64 228.416 213.074 238.814C212.75 245.207 220.194 244.236 224.644 244.034C227.557 243.912 231.036 242.779 233.908 243.224C241.675 244.438 225.898 245.288 223.673 245.409C216.31 245.814 210.525 245.328 203.526 248.201C197.781 250.548 185.281 257.668 187.506 266.165C187.667 266.812 188.355 267.055 188.922 266.934C190.985 266.57 190.257 266.651 192.482 264.749C193.453 263.899 192.441 262.159 191.349 262.969C190.661 263.495 192.765 258.194 193.008 257.79C195.678 253.582 203.121 250.669 207.774 249.131C213.64 247.23 219.142 247.634 225.129 247.796L225.129 247.756Z" fill="#60BFEE"/>
</g>
<g style="mix-blend-mode:screen" opacity="0.76">
<path d="M257.413 183.425C269.792 176.223 283.426 172.177 295.319 164.004C296.048 163.519 295.926 162.103 294.955 161.981C291.395 161.536 288.078 162.426 284.599 162.952C278.126 163.923 272.381 162.224 277.924 154.537C280.513 150.976 286.783 149.682 290.788 148.347C297.666 146.081 314.536 143.694 316.68 134.469C317.934 129.047 314.131 128.966 309.519 129.169C295.117 129.816 284.882 140.295 273.514 147.699C273.433 147.74 273.514 147.861 273.595 147.821C281.281 143.127 288.28 136.532 296.816 133.336C299.931 132.163 306.566 129.573 309.641 130.585C324.771 135.44 291.598 145.555 287.107 147.173C282.252 148.913 263.076 159.837 273.838 165.866C277.074 167.686 290.384 162.346 291.678 164.085C291.355 163.681 258.748 179.824 254.136 182.656C241.716 190.303 232.168 201.713 219.546 209.157C215.46 211.585 211.213 214.296 206.884 216.157C200.937 218.706 197.417 217.694 203.405 212.07C206.277 209.36 212.507 208.348 216.229 207.377C217.402 207.053 216.795 205.354 215.663 205.556C207.207 207.134 199.116 209.845 194.99 217.937C194.707 218.503 194.949 219.394 195.556 219.677C205.872 224.289 222.661 210.857 230.065 205.192C239.329 198.071 247.299 189.413 257.453 183.506L257.413 183.425Z" fill="#60BFEE"/>
</g>
<g style="mix-blend-mode:screen" opacity="0.76">
<path d="M368.018 211.949C367.654 209.481 363.972 209.602 363.285 207.741C361.262 202.158 380.964 191.84 384.241 187.956C384.524 187.633 384.564 186.985 384.16 186.702C375.34 180.431 365.712 184.193 356.933 188.604C350.298 191.962 343.906 195.765 337.434 199.447C335.006 200.822 315.709 214.134 314.981 205.394C314.617 201.106 346.941 184.477 350.824 181.928C358.592 176.911 366.885 171.934 372.873 164.652C379.022 157.126 382.582 147.578 387.679 139.324C387.841 139.081 387.437 138.798 387.234 139C381.449 146.768 378.051 156.236 371.78 163.6C363.649 173.108 352.119 178.853 341.924 185.69C333.954 191.031 318.055 196.331 313.322 204.949C311.218 208.793 311.866 210.654 316.033 211.22C319.229 211.625 323.476 208.712 326.227 207.377C334.399 203.412 342.207 198.516 350.137 194.106C355.962 190.869 364.175 184.72 371.254 185.245C376.069 185.61 378.415 189.332 375.421 193.297C374.41 194.632 371.457 195.522 370 196.412C367.371 198.031 362.799 199.932 361.424 203.048C358.754 208.955 366.683 209.885 363.891 215.186C362.354 218.139 353.737 221.295 350.824 223.075C346.051 225.988 341.317 228.982 336.544 231.976C326.511 238.207 316.154 243.75 305.878 249.576C286.055 260.824 268.255 270.939 246.045 277.089C237.145 279.557 229.337 280.811 220.153 278.667C210.323 276.401 218.94 270.696 224.28 269.846C228.77 269.118 234.475 270.818 239.127 271.344C256.401 273.245 272.664 266.003 286.743 256.616C287.431 256.171 286.743 255.119 286.055 255.524C268.417 265.922 252.518 270.777 232.128 268.471C226.99 267.904 214.489 265.315 211.091 271.344C202.879 285.788 242.161 280.649 246.773 279.355C283.466 269.037 315.547 247.27 347.669 227.162C351.31 224.896 368.827 218.463 367.897 211.989L368.018 211.949Z" fill="#60BFEE"/>
</g>
<g style="mix-blend-mode:screen" opacity="0.76">
<path d="M366.562 103.8C366.683 103.315 366.278 102.87 365.793 102.87C358.915 102.627 351.795 116.181 350.946 122.007C350.865 122.493 351.31 122.978 351.836 122.816C352.523 122.614 353.049 122.371 353.575 122.129C351.674 124.232 348.68 127.105 347.143 123.99C345.848 121.4 349.044 116.666 350.217 114.563C351.755 111.933 361.464 95.8702 365.874 98.0955C366.036 98.1764 366.157 97.8527 365.955 97.8527C360.291 97.1649 354.789 105.702 351.998 109.545C349.57 112.863 342.936 120.874 346.253 125.527C351.755 133.174 365.55 108.129 366.562 103.76L366.562 103.8ZM352.604 120.834C352.523 120.146 353.616 118.285 353.98 117.516C355.032 115.372 356.286 113.268 357.661 111.326C358.673 109.91 359.765 108.453 361.019 107.239C361.909 106.349 362.88 105.419 364.013 104.852C365.065 104.367 364.701 103.8 364.822 104.326C365.267 105.783 361.747 110.597 361.1 111.69C359.684 114.077 358.147 116.464 356.448 118.649C356.286 118.649 356.124 118.649 356.003 118.77C354.789 119.701 353.575 120.631 352.402 121.603C352.483 121.319 352.523 121.076 352.604 120.793L352.604 120.834Z" fill="#60BFEE"/>
</g>
<g style="mix-blend-mode:screen" opacity="0.76">
<path d="M144.34 153.606C148.709 147.901 154.858 144.26 159.349 138.636C159.794 138.07 159.551 137.18 158.823 137.018C156.517 136.451 155.263 137.463 153.24 137.099C150.084 136.532 151.379 141.671 150.691 135.521C150.246 131.799 153.038 128.845 155.141 126.094C159.308 120.551 164.689 115.979 168.33 110.031C168.654 109.505 168.33 108.737 167.804 108.453C162.707 105.621 183.137 92.4314 185.483 91.1771C196.365 85.3105 208.785 83.8539 219.182 76.8544C219.749 76.4498 219.708 75.7619 219.304 75.2764C216.512 71.9992 215.784 73.6176 212.75 72.2016C206.601 69.2885 207.127 68.722 213.438 63.9478C217.402 60.9133 221.974 58.6475 226.383 56.3413C231.157 53.8733 235.89 51.203 240.664 48.8159C243.86 47.1975 247.137 45.5791 250.616 44.5272C252.558 43.8394 254.621 43.3539 256.685 43.1516C259.233 49.9893 256.482 52.3359 248.513 50.1915C248.148 50.1511 247.987 50.7175 248.391 50.7984C254.702 52.0931 260.771 49.8274 265.018 45.0532C265.221 44.8509 265.221 44.4057 264.978 44.2035C257.736 38.9032 248.148 43.5561 241.19 46.9143C227.88 53.2665 212.548 59.4567 203.526 71.6351C203.162 72.1206 203.283 72.7275 203.809 73.0917C207.005 75.1147 214.651 72.8489 214.611 77.5018C214.611 79.9698 189.286 86.6051 186.13 88.183C180.062 91.2175 168.209 97.0842 165.255 103.72C164.487 105.459 164.77 106.916 164.284 108.453C164.123 108.979 165.538 109.627 165.498 109.91C164.972 112.459 161.695 115.048 160.117 116.95C154.777 123.181 145.473 131.434 147.819 140.821C148.021 141.549 148.83 141.671 149.397 141.428C150.651 140.295 152.026 139.971 153.604 140.497C158.014 140.619 156.476 142.48 149.073 146C145.837 149.156 145.837 148.913 143.247 152.635C142.681 153.444 143.773 154.496 144.421 153.687L144.34 153.606Z" fill="#60BFEE"/>
</g>
<g style="mix-blend-mode:multiply" opacity="0.76">
<path d="M235.203 78.3514C235.203 78.3514 235.203 78.3514 235.243 78.3514C236.093 78.6346 236.457 78.756 235.203 78.3514Z" fill="#60BFEE"/>
</g>
<g style="mix-blend-mode:multiply" opacity="0.76">
<path d="M235.243 78.3512C234.07 77.9871 232.088 77.3398 232.33 77.6635C229.539 78.7559 229.337 77.8657 231.643 75.074C232.128 72.9701 233.301 71.4731 235.122 70.5021C241.271 64.1904 251.061 60.7513 258.869 57.5146C272.786 51.7693 286.541 47.0356 301.833 46.6714C302.035 46.6714 302.035 46.3881 301.833 46.3477C291.76 43.9606 281.201 46.9546 271.653 49.9486C259.759 53.6709 247.38 57.8787 236.983 64.8782C233.868 66.9821 222.217 73.6984 224.684 79.6055C226.586 84.137 231.279 81.0216 234.92 81.0621C236.578 81.0621 236.538 78.7963 235.162 78.2704L235.243 78.3512Z" fill="#60BFEE"/>
</g>
<g style="mix-blend-mode:multiply" opacity="0.76">
<path d="M166.428 133.943C166.914 133.174 166.428 131.879 165.66 131.556C152.39 125.77 186.575 103.315 191.794 100.806C202.353 95.749 213.883 92.5527 222.742 84.6226C222.864 84.5013 222.702 84.3393 222.54 84.4203C202.879 95.1421 171.93 100.766 159.915 122.412C157.528 126.701 158.014 128.319 158.944 132.365C159.47 134.631 160.926 131.637 160.684 135.035C160.522 137.341 156.84 140.052 155.465 141.347C151.541 145.029 147.172 148.185 143.207 151.826C142.034 152.918 143.733 154.739 144.987 153.97C153.078 149.075 161.169 142.035 166.388 134.024L166.428 133.943Z" fill="#60BFEE"/>
</g>
<g style="mix-blend-mode:multiply" opacity="0.76">
<path d="M181.316 166.756C165.862 151.826 222.581 120.146 232.411 113.187C232.694 112.985 232.411 112.58 232.128 112.742C217.16 121.279 202.07 129.816 189.083 141.266C184.35 145.474 178.444 150.653 176.461 157.045C175.733 159.392 177.473 168.455 177.594 168.374C176.542 169.305 178.039 170.802 179.131 170.195C179.819 169.831 180.507 169.426 181.195 169.062C182.004 168.617 182.004 167.403 181.356 166.756L181.316 166.756Z" fill="#60BFEE"/>
</g>
<g style="mix-blend-mode:multiply" opacity="0.76">
<path d="M214.854 189.089C214.57 177.639 224.32 169.75 231.845 162.791C241.676 153.687 252.234 145.757 263.683 138.919C286.46 125.325 311.138 119.013 335.168 108.656C335.249 108.615 335.249 108.453 335.168 108.453C306.283 111.731 275.901 126.498 252.073 142.642C238.439 151.907 210.687 169.547 211.941 189.17C212.062 191.153 214.975 191.031 214.934 189.089L214.854 189.089Z" fill="#60BFEE"/>
</g>
<g style="mix-blend-mode:multiply" opacity="0.76">
<path d="M298.273 222.388C291.072 213.325 340.63 187.512 343.826 185.65C354.829 179.177 362.84 171.004 370.283 160.525C377.323 150.572 381.651 137.746 390.673 129.614C390.875 129.412 390.592 129.128 390.349 129.25C385.778 131.799 383.148 135.319 380.397 139.769C375.098 148.185 369.96 156.479 363.608 164.166C350.056 180.593 331.082 186.217 314.495 198.436C310.126 201.632 286.096 218.706 296.331 224.573C297.545 225.26 299.163 223.642 298.232 222.428L298.273 222.388Z" fill="#60BFEE"/>
</g>
<g style="mix-blend-mode:multiply" opacity="0.76">
<path d="M348.114 208.348C348.114 208.348 347.992 208.105 347.912 208.227C325.297 229.873 299.041 241.444 269.63 250.75C253.974 255.726 238.641 257.83 222.459 260.136C212.062 261.593 204.052 265.841 196.568 273.083C195.071 274.54 197.498 276.725 198.995 275.309C212.426 262.645 227.637 263.94 244.588 260.703C260.042 257.79 274.93 252.53 289.777 247.392C311.502 239.866 335.128 228.295 348.114 208.348Z" fill="#60BFEE"/>
</g>
<g style="mix-blend-mode:multiply" opacity="0.76">
<path d="M287.39 102.384C295.036 101.616 299.527 99.4714 304.139 93.0788C308.225 87.4549 310.976 81.2645 316.437 76.8139C325.499 69.4908 336.827 67.5082 347.588 72.8894C347.628 72.8894 347.669 72.8489 347.588 72.8085C337.15 66.4968 324.811 68.3175 315.426 75.7621C311.704 78.7561 309.236 82.6401 306.607 86.5647C301.428 94.4139 297.302 99.7546 287.188 100.726C284.032 101.049 280.836 100.887 277.721 101.616C266.272 104.286 266.394 115.089 256.563 118.164C243.779 122.169 234.232 125.366 227.435 138.434C227.152 138.96 227.921 139.324 228.244 138.839C233.706 130.544 240.664 123.221 250.576 120.632C254.095 119.701 259.314 120.632 262.51 118.528C264.29 117.354 264.007 115.938 264.978 115.129C265.504 113.754 265.989 112.337 266.515 110.962C269.388 106.552 273.19 104.043 277.883 103.477C281.079 102.587 283.992 102.708 287.228 102.384L287.39 102.384Z" fill="#60BFEE"/>
</g>
<g style="mix-blend-mode:multiply" opacity="0.76">
<path d="M198.469 247.796C195.475 243.022 199.723 237.802 203.202 235.779C205.468 234.444 208.138 233.19 210.646 232.381C214.773 231.086 219.465 231.491 223.471 229.832C228.366 227.809 226.505 227.485 227.84 224.451C230.833 217.532 228.608 218.018 234.636 215.307C237.064 214.214 239.612 213.446 242.08 212.434C245.559 211.059 248.634 209.44 251.951 207.7C264.978 200.822 277.681 195.644 289.494 186.621C304.786 174.928 328.412 162.183 335.411 142.763C339.375 131.798 335.815 118.892 340.872 108.332C344.392 100.968 353.211 96.6388 354.223 88.0614C354.263 87.6163 353.98 87.2118 353.494 87.2118C349.489 87.2118 347.467 88.1019 344.311 90.489C344.068 90.6508 344.311 91.0149 344.554 90.8531C350.46 91.8241 351.714 93.6044 348.276 96.2343C347.588 96.9626 346.9 97.6907 346.212 98.419C344.271 100.563 342.086 102.546 340.549 105.054C337.919 109.303 336.948 114.36 336.382 119.296C335.33 128.076 336.179 136.977 332.215 145.109C328.048 153.606 320.483 159.958 313.241 165.582C298.435 177.073 283.709 189.858 266.758 197.909C260.042 201.106 253.448 204.666 246.732 207.822C241.231 210.411 234.596 211.625 229.498 214.983C226.545 216.966 226.262 218.179 224.482 220.567C223.632 221.699 224.967 222.306 224.563 223.156C223.268 225.826 218.98 227.607 214.934 228.78C208.826 230.56 198.429 232.583 195.233 239.178C194.14 241.403 195.071 243.386 194.424 245.247C193.736 247.23 195.88 246.218 194.585 247.958C193.695 249.131 188.679 249.131 187.223 249.495C182.044 250.83 175.45 252.247 176.866 258.922C177.149 260.177 179.293 259.853 179.091 258.558C177.958 251.842 193.938 250.952 197.822 249.617C198.55 249.374 198.914 248.484 198.469 247.756L198.469 247.796Z" fill="#60BFEE"/>
</g>
<g style="mix-blend-mode:screen" opacity="0.47">
<path d="M334.116 286.435C395.73 251.276 416.807 171.327 381.166 107.887C379.669 105.216 378.051 102.627 376.392 100.119C372.468 97.6909 368.22 95.6274 363.608 94.1304C331.608 83.7323 293.216 91.1364 267.729 112.216C243.496 132.243 225.332 170.195 222.055 201.753C219.627 225.139 223.349 251.276 234.96 272.234C242.97 286.718 253.61 296.509 265.787 302.781C288.968 303.914 312.594 298.735 334.116 286.435Z" fill="#60BFEE"/>
</g>
<g style="mix-blend-mode:multiply" opacity="0.42">
<path d="M157.973 235.294C172.497 261.107 194.181 280.204 218.94 291.412C218.737 291.128 218.535 290.805 218.373 290.521C190.297 244.236 190.702 181.645 224.887 140.052C240.947 120.51 263.036 102.627 285.125 90.8129C307.699 78.7559 332.741 74.2649 357.176 76.8948C316.761 37.9726 255.147 28.1004 204.983 56.7458C143.369 91.9052 122.292 171.853 157.933 235.294L157.973 235.294Z" fill="#1A7AA0"/>
</g>
<g style="mix-blend-mode:multiply" opacity="0.42">
<path d="M157.973 235.294C162.949 244.155 168.775 252.166 175.288 259.408C174.924 257.304 174.519 255.322 174.196 253.784C165.093 210.25 164.042 168.374 189.083 131.151C196.244 120.47 201.867 109.222 211.01 100.038C220.315 90.6512 231.359 83.1256 242.727 76.5712C252.76 70.7854 263.562 66.9823 274.364 62.9363C292.933 56.0177 307.011 53.4283 323.598 53.4283C313.727 48.6136 303.37 45.0936 292.69 42.9087C280.027 43.3133 267.567 45.2555 257.21 47.5617C244.952 50.2725 234.353 55.8154 224.563 63.4218C211.334 73.6985 197.215 83.4897 186.13 96.275C177.756 105.985 168.977 115.655 161.695 126.256C150.044 143.208 146.727 159.352 145.634 180.148C145.23 187.835 144.947 195.442 145.027 203.007C147.9 214.053 152.188 224.896 158.054 235.335L157.973 235.294Z" fill="#1A7AA0"/>
</g>
<path d="M167.48 249.819C164.648 245.975 161.978 241.97 159.47 237.762C114.12 250.709 83.2925 254.715 79.8943 246.42C73.9878 231.976 153.725 185.731 257.979 143.127C362.233 100.523 451.518 77.6633 457.424 92.1074C460.823 100.402 435.983 119.134 394.557 141.67C395.73 146.404 396.62 151.138 397.227 155.872C485.46 112.863 542.947 74.4266 536.879 59.6183C528.505 39.1053 401.596 71.5944 253.489 132.122C105.381 192.65 -7.97499 258.396 0.439737 278.909C6.50805 293.718 74.3923 280.892 167.48 249.779L167.48 249.819Z" fill="#6CD4F4"/>
<g style="mix-blend-mode:screen" opacity="0.47">
<path d="M329.504 268.754C343.502 273.731 363.244 248.524 368.584 238.571C382.177 213.163 387.153 178.408 367.654 153.283C358.592 141.63 342.369 141.671 329.343 144.907C309.358 149.924 291.921 161.86 281.524 179.581C270.601 198.233 264.533 217.047 269.671 239.057C271.977 248.929 275.213 258.397 284.316 263.818C295.32 270.373 311.664 271.384 329.504 268.714L329.504 268.754Z" fill="#60BFEE"/>
</g>
<g style="mix-blend-mode:screen" opacity="0.47">
<path d="M355.881 234.364C364.134 225.988 372.063 199.852 353.13 199.285C328.736 198.557 335.047 243.062 355.881 234.364Z" fill="#60BFEE"/>
</g>
<path opacity="0.51" d="M163.232 243.831C162.059 242.051 160.926 240.271 159.834 238.45C93.73 260.784 47.7726 271.141 44.4148 262.887C39.2365 250.264 136.127 198.719 260.811 147.739C385.495 96.7603 490.719 65.6873 495.898 78.3512C499.296 86.6454 458.517 111.811 394.718 142.561C395.204 144.624 395.689 146.728 396.094 148.791C468.024 113.632 514.183 83.6514 509.733 72.6869C503.18 56.6649 390.632 87.5356 258.303 141.63C126.013 195.725 24.0657 252.53 30.579 268.552C35.0291 279.395 88.1876 268.714 163.232 243.831Z" fill="#B3EDFF"/>
<path opacity="0.62" d="M157.609 234.606C155.748 231.248 154.049 227.85 152.471 224.411C145.756 225.139 141.629 224.613 140.82 222.63C137.462 214.377 191.996 184.275 262.672 155.386C333.348 126.498 393.384 109.748 396.741 118.002C397.55 119.944 395.083 123.1 389.985 127.146C391.32 130.787 392.493 134.428 393.505 138.11C430.886 118.285 453.217 102.425 450.588 95.9918C445.814 84.299 360.493 108.049 260.083 149.115C159.672 190.182 82.1193 232.948 86.8931 244.64C89.5227 251.114 116.79 246.744 157.528 234.606L157.609 234.606Z" fill="#7DE0FF"/>
</svg>
