<svg width="273" height="273" viewBox="0 0 273 273" fill="none" xmlns="http://www.w3.org/2000/svg">
<path d="M136.63 0.816974C61.7138 0.816968 0.982532 61.5545 0.982525 136.478C0.982519 211.402 61.7138 272.139 136.63 272.139C211.545 272.139 272.277 211.402 272.277 136.478C272.277 61.5545 211.545 0.816981 136.63 0.816974Z" fill="#D4803A"/>
<path opacity="0.49" d="M261.516 189.602C257.389 189.44 252.575 188.631 249.541 190.977C254.193 169.008 235.139 155.13 215.396 152.298C202.936 150.518 187.158 158.933 182.587 170.505C180.564 175.643 176.964 184.827 179.634 189.925C177.611 184.665 170.329 183.614 170.895 190.856C169.237 187.417 165.393 185.758 162.683 188.509C159.608 181.752 160.943 175.279 158.273 169.412C156.574 165.65 150.142 160.147 147.593 165.326C147.674 165.326 145.408 165.488 145.57 165.366C143.952 159.54 132.584 152.702 131.33 162.21C110.495 160.066 119.193 189.804 125.059 198.867C119.032 195.266 105.358 195.751 109.848 206.271C98.6824 197.855 100.705 217.397 104.872 222.9C91.279 227.795 78.9402 232.651 76.2701 248.875C75.7442 251.99 75.8251 255.025 76.2701 257.978C94.4751 267.041 114.945 272.18 136.67 272.18C192.741 272.18 240.843 238.153 261.516 189.602Z" fill="#552805"/>
<path opacity="0.49" d="M145.368 135.143C146.299 140.16 147.755 147.119 153.742 148.535C159.77 149.951 162.885 144.691 159.649 139.108C163.411 140.038 166.203 143.923 170.086 145.379C173.97 146.876 180.969 147.928 185.014 146.229C200.226 139.877 201.884 112.89 187.523 105.405C203.543 100.914 177.49 62.9224 162.4 78.1757C161.55 63.853 136.104 67.818 136.104 83.7187C130.966 72.5923 125.383 85.0135 125.909 91.6488C113.166 90.8801 99.5725 89.7877 95.1224 105.284C92.8569 113.214 95.3652 121.832 100.948 127.617C112.801 139.796 126.758 137.125 145.328 135.143L145.368 135.143Z" fill="#552805"/>
<path opacity="0.56" d="M217.581 183.249C210.906 201.456 238.173 212.461 234.37 191.908C243.594 206.109 257.632 184.059 246.345 182.319C255.043 172.164 266.613 148.414 254.8 135.993C239.872 120.294 230.001 150.841 226.926 159.864C224.094 156.303 219.968 155.98 218.997 160.673C212.079 159.055 201.844 156.829 202.896 168.563C203.867 179.689 215.396 178.839 217.581 183.249Z" fill="#542B24"/>
<path opacity="0.56" d="M146.946 100.186C147.674 109.208 161.429 109.734 158.678 102.654C168.549 104.191 168.144 86.9556 162.076 82.6669C155.199 77.7712 144.114 81.7767 146.865 91.3656C137.641 90.1519 136.832 100.671 146.946 98.6483L146.946 100.186Z" fill="#542B24"/>
<path opacity="0.56" d="M60.007 168.522C49.2054 171.556 53.8982 191.179 56.8919 197.976C59.0361 202.913 63.7289 211.773 70.404 208.051C75.016 205.462 75.0969 197.289 73.3168 193.485C85.9389 199.352 94.8392 191.22 94.9605 176.533C95.0414 169.655 82.9857 146.917 77.241 159.945C75.9869 155.13 72.4268 149.061 66.3585 150.598C58.9552 152.459 60.8162 162.574 59.9666 168.522L60.007 168.522Z" fill="#542B24"/>
<path opacity="0.56" d="M136.063 230.628C136.832 243.656 116.038 243.656 123.36 227.796C115.633 232.974 113.651 219.097 115.107 214.282C117.413 206.757 127.042 201.78 134.526 201.861C142.658 201.942 149.818 206.918 153.176 213.999C156.008 219.987 155.037 233.055 146.905 223.911C148.888 232.327 143.952 238.801 139.178 227.512L136.063 230.628Z" fill="#542B24"/>
<path opacity="0.56" d="M139.947 256.239C138.41 246.326 144.074 251.424 147.715 246.933C151.801 241.835 145.773 240.055 140.837 240.621C140.918 239.286 140.311 237.425 140.594 236.13C137.843 238.194 138.774 240.945 137.641 244.02C137.034 245.638 134.809 249.118 134.526 250.493C133.272 256.643 136.832 262.712 142.293 266.354L139.947 256.279L139.947 256.239Z" fill="#542B24"/>
<path opacity="0.56" d="M196.625 249.239C201.803 249.037 200.347 245.314 203.017 243.049C206.253 240.297 207.588 240.581 211.391 239.165C220.817 235.645 216.448 230.183 221.667 225.813C223.649 224.154 242.502 219.704 233.156 215.091C223.69 210.398 214.668 228.443 212.039 233.662C207.467 230.425 201.561 233.622 201.156 239.084C193.47 235.968 181.05 242.968 178.38 250.857C176.802 255.51 177.004 259.678 182.344 261.336C189.95 263.683 193.955 255.146 196.625 249.279L196.625 249.239Z" fill="#542B24"/>
<path opacity="0.56" d="M91.8051 52.8481C87.8405 55.5185 84.24 61.4255 85.7773 66.6448C88.0023 74.1298 96.1338 74.4536 97.4283 66.1189C104.832 71.9046 111.345 69.5175 115.836 60.8187C124.817 43.502 104.387 46.2936 94.8797 54.426L91.7646 52.8885L91.8051 52.8481Z" fill="#542B24"/>
<path opacity="0.49" d="M78.6165 47.4262C90.7531 58.7145 117.049 44.3918 119.031 29.5432C122.996 -0.518337 71.375 13.8852 78.6165 47.4262Z" fill="#552805"/>
<path opacity="0.49" d="M4.25932 166.094C8.66896 185.879 17.4073 204.045 29.4226 219.541C41.5188 215.738 44.4317 195.428 40.6288 182.319C36.0574 166.701 31.8095 147.564 47.1421 135.871C54.3432 130.409 65.347 131.542 71.2535 124.866C75.9464 119.525 75.6228 110.827 73.8832 104.232C82.4598 105.85 88.6898 99.7001 85.6557 90.9608C91.6431 91.2441 95.6482 86.6316 95.7695 80.8054C110.374 93.8334 123.158 71.6212 129.024 60.6566C137.196 62.3964 141.403 66.8469 148.159 59.6855C154.511 52.9692 154.106 36.9472 168.63 42.1261C182.83 47.1835 176.478 65.0667 184.61 74.0083C193.51 83.7995 200.509 77.1641 209.894 75.3839C213.576 84.5682 206.456 92.9029 206.658 102.209C206.82 108.642 214.587 119.04 220.008 111.029C216.934 115.682 219.846 123.935 225.793 119.889C225.915 125.594 231.134 125.19 235.543 125.352C244.767 125.675 248.61 123.652 250.754 120.577C247.316 127.415 249.824 136.357 256.256 127.213C257.672 125.19 256.823 116.693 261.273 119.404C264.792 121.548 261.475 128.548 261.475 131.704C261.435 141.454 271.993 155.534 271.791 139.027C271.629 125.19 263.741 101.035 247.275 100.954C242.016 92.2151 249.338 84.0018 247.882 74.5748C246.183 63.6507 237.404 60.2521 227.816 61.304C228.14 52.767 225.874 53.9404 220.534 49.8135C214.304 44.9988 215.032 38.0802 208.923 31.9303C203.179 26.1446 203.26 28.0462 196.544 28.6531C193.024 28.9767 193.51 33.0227 188.736 27.8843C185.621 24.5666 189.06 19.9543 185.662 16.9198C181.292 13.0357 174.415 16.6366 173.404 21.694C169.52 20.723 160.013 4.98415 156.938 16.4747C150.789 10.9722 143.386 6.07658 141.484 17.122C136.063 10.7294 131.087 13.8853 128.7 20.4803C125.504 29.2195 131.815 37.6755 132.22 46.2125C133.069 63.9338 122.996 51.1082 113.772 53.9808C114.581 63.0842 104.427 57.4603 100.422 63.8125C90.3486 58.9169 80.5583 57.0152 69.514 59.9688C63.567 61.5467 42.4089 73.4418 50.4595 80.9673C37.3115 71.783 25.2962 89.2211 36.0169 98.9314C26.1457 100.469 22.2621 102.209 17.2456 112.324C12.9573 120.982 9.15444 132.675 8.95216 142.264C8.79034 149.91 12.0268 157.031 11.9863 164.638C8.79034 164.274 6.28217 164.84 4.34031 166.094L4.25932 166.094Z" fill="#552805"/>
<g style="mix-blend-mode:screen" opacity="0.57">
<path d="M113.57 114.954C110.617 107.104 101.919 114.589 103.82 121.144C105.358 126.484 120.245 133.97 118.384 125.878C118.789 134.172 129.955 131.744 132.422 125.756C136.67 115.439 128.862 108.723 118.991 109.532L113.57 114.954Z" fill="#C6BDBA"/>
</g>
<g style="mix-blend-mode:screen" opacity="0.76">
<path d="M10.8132 89.3831C11.7437 91.6489 9.23546 96.3017 10.4491 99.498C11.2178 101.481 14.1711 102.087 15.223 104.07C16.1534 105.85 14.3329 109.127 15.1016 110.989C16.8007 115.318 28.3709 127.577 35.5315 127.658C26.9954 132.311 24.8512 144.489 28.8968 153.35C29.1395 158.771 29.8677 164.436 24.2444 164.112C24.4872 166.459 23.2331 168.118 23.0308 170.06C18.3785 164.072 11.946 171.557 14.9397 176.776C11.7842 174.631 8.83095 176.493 8.10276 179.77C10.2469 186.203 12.8765 192.393 15.9511 198.341C17.1243 196.844 17.367 194.133 15.9106 189.561C19.9966 197.329 24.6086 185.717 24.3254 181.186C24.73 181.955 25.539 182.845 25.8626 183.411C31.8905 178.597 32.0928 169.776 32.2142 162.453C33.5087 162.332 34.601 161.765 35.4911 160.997C36.4215 161.563 37.3925 162.008 38.4443 162.372C34.9247 165.69 31.486 177.626 39.0916 180.903C37.7971 180.903 34.3179 183.452 33.5088 187.336C31.5669 196.925 43.9463 206.635 48.356 216.629C47.7491 222.981 49.6505 230.102 55.3547 233.5C61.7062 237.263 67.2486 235.725 65.8326 227.836C64.5785 220.836 55.8401 217.155 54.0601 210.843C52.4823 205.259 57.863 197.37 47.83 194.821C53.8174 188.711 50.7428 180.458 45.3622 175.36C48.2345 169.008 62.5153 146.35 49.3269 142.547C53.1297 142.142 54.1815 135.062 51.1069 130.247C53.6556 129.964 56.1233 129.398 57.9843 129.236C62.3535 128.872 67.0059 134.253 69.15 127.011C70.2828 123.207 66.3182 118.999 63.3649 117.381C68.9882 115.52 64.8213 107.469 66.2372 102.613C69.0691 104.232 71.3346 106.862 74.3688 106.781C75.4611 109.653 77.8479 112.688 81.7721 115.035C69.15 116.774 76.7152 146.431 89.2969 139.796C85.5345 144.084 89.9846 151.286 95.4865 151.489C92.4119 155.009 96.0124 161.684 100.26 163.222C106.895 165.69 106.693 160.43 111.143 156.91C124.979 145.986 115.148 176.25 116.685 181.793C118.344 187.7 139.259 203.965 137.56 194.983C136.63 190.128 126.556 187.336 124.21 182.804C121.014 176.655 128.417 166.054 123.886 163.181C130.359 159.378 130.238 146.998 121.459 146.755C126.152 139.068 119.274 137.53 113.772 137.328C111.79 137.247 109.646 140.281 107.34 139.148C104.832 137.894 107.178 133.848 105.803 132.837C100.098 128.831 95.9315 132.756 94.9606 124.866C94.2729 119.323 98.4397 108.763 85.8176 110.989C89.1754 106.74 89.8228 100.752 85.0895 98.2438C88.5686 98.527 91.1578 95.6948 89.5396 90.0709C92.8165 90.2327 104.71 84.9729 106.288 81.9385C114.46 88.9784 122.228 75.1009 127.77 65.957C126.354 72.471 142.294 82.5858 142.415 70.0838C147.472 71.5404 155.927 67.0494 153.257 60.94C160.498 64.9051 168.306 72.8756 177.692 67.2112C184.569 63.0439 182.789 54.1428 176.721 50.0159C179.634 48.0738 181.131 46.0508 181.697 44.2706C185.5 46.9409 190.071 48.5998 193.47 48.2357C192.741 66.6448 247.761 63.2867 240.196 83.1523C236.029 94.1169 229.475 81.008 226.198 79.3491C223.083 77.7712 218.957 78.7826 217.176 80.6842C209.409 88.8571 223.204 96.2207 224.58 90.1923C223.447 97.5155 236.271 111.15 239.184 102.087C237.606 107.185 245.334 110.867 249.46 107.549C248.772 112.85 253.748 113.012 257.025 110.463C256.216 116.572 262.042 123.005 268.11 121.548C267.786 126.768 265.318 131.34 269 135.993C270.052 137.287 271.144 138.218 272.277 138.825C272.277 138.056 272.317 137.328 272.317 136.559C272.317 120.537 269.526 105.203 264.428 90.961C263.943 91.2442 263.417 91.5274 262.891 91.8511C263.377 90.7183 263.619 89.6663 263.579 88.7358C263.134 87.5624 262.689 86.4295 262.203 85.2562C260.787 83.7996 258.401 83.1928 255.65 83.9211C259.331 72.5519 248.165 61.3042 237.04 62.1943C238.456 51.0679 219.725 41.7621 211.472 48.883C211.149 47.1433 210.542 45.8081 209.773 44.7562C211.634 41.8026 210.865 37.0688 213.657 33.5488C215.599 31.1212 218.067 30.312 220.777 30.2311C218.714 28.5722 216.57 26.9943 214.385 25.4569C212.241 26.792 209.773 27.8036 206.334 28.0059C202.977 28.2082 198.284 24.4454 198.162 32.2946C198.162 34.2366 201.318 38.2826 203.786 41.7621C201.52 41.6812 199.052 42.3285 196.787 43.421C195.331 38.4849 191.123 36.907 186.592 38.93C187.361 33.7916 183.234 28.6531 178.097 29.341C175.629 24.5667 167.416 19.1857 161.227 19.5903C147.755 20.44 161.51 39.9415 174.536 33.1038C174.415 34.7222 174.86 36.3405 175.669 37.878C173.04 38.3231 170.329 40.6293 169.237 45.8891C164.423 40.0224 156.493 43.5019 154.471 50.5419C144.64 48.8021 146.137 61.4659 137.803 61.5064C145.247 56.2871 150.951 26.2661 134.809 31.2022C124.614 34.3176 136.508 66.0378 122.753 56.1657C121.499 60.8995 121.257 68.3441 117.171 71.6213C115.512 72.9565 113.368 71.1763 112.68 71.5404C111.669 72.0664 109.808 73.3206 107.825 74.6558C105.439 76.2742 104.589 79.2277 101.191 80.1178C97.9139 80.9675 96.862 79.1064 94.1515 79.2682C90.47 79.4705 85.4941 81.8575 82.3385 77.6497C78.6571 72.7541 84.1994 64.2172 74.2878 64.5004C59.0361 64.9454 70.9301 84.8517 63.7695 88.3716C62.7177 87.7243 62.313 87.6029 61.423 87.2388C61.0994 96.3422 58.1462 91.1633 53.6556 94.8451C47.5873 99.8216 50.1764 107.63 54.3028 113.416C47.0208 108.399 47.385 118.797 40.7098 117.381C40.5076 112.202 37.4734 108.561 32.0928 109.572C32.9424 102.128 29.4632 102.735 26.6718 98.0414C23.3949 92.5794 25.2963 88.1288 16.5174 86.8745C16.4365 84.7302 15.4252 81.6148 13.807 78.9445C12.3911 81.9789 11.056 85.0944 9.84232 88.2503C10.2469 88.6549 10.5705 89.0594 10.7323 89.464L10.8132 89.3831ZM81.9744 97.2323C81.5294 97.1514 81.0843 97.1109 80.5989 97.0704C80.4775 97.0704 80.3562 97.0704 80.1944 97.0704C79.8708 96.2612 79.4662 95.452 78.8998 94.7237C79.8707 95.8161 80.9226 96.6254 81.9744 97.2323ZM39.8603 125.109C39.9817 125.433 40.1031 125.756 40.2649 126.04C39.8199 126.12 39.3748 126.201 38.9703 126.323C39.2939 125.999 39.6176 125.594 39.8603 125.149L39.8603 125.109Z" fill="#C6BDBA"/>
</g>
<g style="mix-blend-mode:screen" opacity="0.57">
<path d="M168.67 170.504C169.277 170.788 170.046 170.747 170.612 170.302C171.098 169.898 171.543 169.452 171.947 169.007C171.988 169.007 172.069 169.007 172.109 168.926C174.617 166.539 175.71 163.383 176.114 160.106C176.438 158.771 176.64 157.436 176.762 156.141C176.883 154.887 175.224 154.766 174.617 155.575C174.213 156.101 173.889 156.667 173.606 157.274C173.242 157.355 172.918 157.557 172.635 157.922C171.624 159.338 170.653 160.875 170.005 162.534C168.792 164.476 167.699 166.499 166.648 168.562C166 169.817 167.335 171.314 168.63 170.545L168.67 170.504Z" fill="#C6BDBA"/>
</g>
<g style="mix-blend-mode:screen" opacity="0.57">
<path d="M167.699 131.42C168.549 133.646 171.421 135.628 173.768 133.889C174.698 133.201 175.507 132.432 176.235 131.663C179.27 130.328 181.495 126.808 181.616 123.612C181.697 121.548 180.847 120.092 179.593 119.202C179.472 119.04 179.391 118.878 179.27 118.757C178.016 117.502 176.923 117.502 175.871 118.109C174.739 118.109 173.606 118.392 172.514 118.918C172.311 118.999 172.15 119.161 171.947 119.283C169.318 119.97 167.174 121.872 167.052 124.947C167.052 125.392 167.052 125.877 167.133 126.322C166.85 127.981 167.012 129.762 167.659 131.42L167.699 131.42Z" fill="#C6BDBA"/>
</g>
<g style="mix-blend-mode:screen" opacity="0.57">
<path d="M180.483 139.472C180.483 139.472 180.483 139.513 180.524 139.553C180.524 139.553 180.564 139.593 180.605 139.634C180.726 139.836 180.888 139.998 181.09 140.119C181.212 140.2 181.333 140.2 181.454 140.241C181.576 140.241 181.738 140.281 181.859 140.241C181.94 140.241 182.061 140.241 182.142 140.241C182.182 140.241 182.223 140.241 182.304 140.2C182.425 140.2 182.506 140.16 182.627 140.079C182.83 139.958 182.992 139.796 183.113 139.593C183.113 139.593 183.153 139.553 183.194 139.513C183.194 139.513 183.194 139.472 183.234 139.432C183.558 139.027 183.517 138.542 183.315 138.137C183.315 137.894 183.275 137.651 183.234 137.449C183.315 136.478 182.587 136.033 181.818 136.114C181.05 136.033 180.322 136.478 180.402 137.449C180.402 137.692 180.362 137.894 180.322 138.137C180.119 138.582 180.079 139.027 180.402 139.472L180.483 139.472Z" fill="#C6BDBA"/>
</g>
<g style="mix-blend-mode:screen" opacity="0.57">
<path d="M126.03 257.209C126.354 262.55 132.948 265.14 135.982 268.74C136.023 268.821 136.144 268.74 136.104 268.659C134 265.544 130.44 263.562 128.498 260.365C125.343 255.065 130.642 252.799 132.989 249.037C133.838 247.661 133.879 246.933 134.081 245.395C134.405 242.684 135.901 240.581 136.468 237.748C136.589 237.182 135.901 236.939 135.578 237.384C134.162 239.245 133.474 241.066 131.775 242.806C131.492 243.089 131.451 243.494 131.654 243.858C134.202 248.47 125.747 252.435 125.99 257.209L126.03 257.209Z" fill="#C6BDBA"/>
</g>
<g style="mix-blend-mode:screen" opacity="0.57">
<path d="M165.758 258.545C166.729 258.383 166.364 257.088 165.555 257.007C160.417 256.4 154.794 252.516 155.846 247.256C156.372 244.546 159.447 240.581 161.146 238.639C168.711 230.061 177.53 228.605 187.765 232.489C188.494 232.772 189.222 232.165 189.424 231.518C191.164 226.46 190.435 220.958 199.174 222.212C200.226 222.374 201.156 221.807 201.197 220.674C201.642 211.045 209.288 219.42 212.16 218.773C216.003 217.883 218.592 216.305 221.788 213.958C223.73 212.542 225.915 210.195 228.423 209.548C235.462 207.768 239.225 212.583 237.849 218.732C236.919 222.9 232.226 227.148 229.07 229.778C228.949 229.899 229.07 230.061 229.232 229.98C236.878 226.622 250.512 207.768 235.584 205.179C231.66 204.491 227.978 206.109 224.661 208.051C217.662 212.138 217.096 214.525 208.721 213.999C205.687 213.837 203.017 212.987 200.145 214.686C198.365 215.738 198.405 217.68 196.504 218.611C194.157 219.784 192.135 218.166 190.031 220.432C188.413 222.172 189.019 227.148 187.563 228.2C185.5 229.737 176.6 227.067 173.727 227.634C168.711 228.605 164.423 231.639 160.863 235.2C152.367 243.575 147.714 261.822 165.758 258.545Z" fill="#C6BDBA"/>
</g>
<g style="mix-blend-mode:screen" opacity="0.57">
<path d="M161.024 219.34C161.631 220.108 162.764 219.461 162.359 218.571C160.903 215.536 158.476 212.461 157.626 209.225C156.655 205.421 159.163 198.624 163.694 200.323C164.342 200.566 164.746 201.74 165.474 201.982C166.809 202.427 167.497 202.711 168.792 202.994C170.653 203.398 171.3 198.584 172.15 203.52C172.352 204.653 174.132 204.612 174.375 203.52C177.126 200.647 178.946 200.526 179.836 203.075C180.564 204.369 181.05 205.786 181.333 207.242C181.616 208.294 183.356 208.375 183.558 207.242C184.812 200.243 185.904 192.272 189.707 186.122C197.96 172.77 205.768 195.428 200.307 203.358C200.185 203.52 200.428 203.682 200.549 203.56C205.97 198.179 205.566 181.186 196.382 179.568C186.754 177.868 183.477 193.607 181.98 202.67C179.593 198.179 175.629 195.104 173.282 199.595C172.756 199.191 172.028 199.312 170.491 199.029C170.086 198.948 168.67 199.717 167.578 199.555C165.313 199.231 165.677 198.058 164.058 197.491C162.562 196.965 162.643 196.642 160.863 196.884C148.524 198.422 157.222 214.484 160.984 219.38L161.024 219.34Z" fill="#C6BDBA"/>
</g>
<g style="mix-blend-mode:screen" opacity="0.57">
<path d="M193.591 151.084C193.996 151.813 195.088 151.448 195.128 150.68C195.25 148.009 197.556 135.265 202.451 140.565C203.138 141.293 204.635 140.969 204.797 139.958C205.04 138.704 205.809 132.028 209.49 134.819C210.623 135.669 210.178 139.432 210.056 140.565C209.894 142.021 212.2 142.264 212.565 140.888C213.657 136.64 218.188 129.034 223.811 130.288C232.469 132.27 225.308 144.489 223.528 148.171C223.366 148.535 223.852 148.818 224.054 148.454C227.452 143.235 234.41 131.583 224.62 128.305C219.685 126.647 215.113 130.652 212.403 135.103C211.917 132.958 210.825 131.057 208.6 130.652C204.959 129.964 203.341 133.889 202.532 137.045C196.382 133.808 190.597 145.582 193.591 151.044L193.591 151.084Z" fill="#C6BDBA"/>
</g>
<g style="mix-blend-mode:screen" opacity="0.57">
<path d="M220.656 170.828C221.384 171.597 222.84 170.828 222.476 169.776C221.424 166.661 223.285 162.898 226.805 166.256C227.452 166.904 228.747 166.863 229.192 165.933C230.729 162.696 234.208 159.419 236.878 163.627C239.467 167.713 235.786 171.112 232.064 172.366C230.689 172.811 230.729 174.632 232.064 175.077C237.809 177.14 235.503 186.001 229.556 185.475C224.903 185.03 220.817 177.302 225.51 174.267C225.996 173.984 225.551 173.256 225.065 173.499C218.35 177.18 224.337 187.498 230.689 187.295C238.173 187.053 239.953 178.233 235.381 173.944C239.912 171.476 242.785 166.58 239.225 161.523C235.543 156.303 230.244 158.529 227.412 162.817C225.348 161.523 222.881 161.159 220.737 162.939C218.188 165.083 218.512 168.482 220.656 170.707L220.656 170.828Z" fill="#C6BDBA"/>
</g>
<g style="mix-blend-mode:screen" opacity="0.57">
<path d="M123.724 218.773C121.176 220.715 119.557 223.628 121.58 226.825C124.331 231.194 129.509 228.564 131.047 224.721C131.532 223.466 129.793 222.738 128.943 223.507C127.77 224.559 125.302 227.31 124.169 224.802C122.956 222.01 127.001 220.27 128.903 219.744C130.966 219.137 130.035 216.305 128.053 216.629C122.106 217.519 119.598 208.335 125.302 206.312C128.377 205.219 135.982 205.867 135.618 210.358C135.578 210.964 136.104 211.693 136.711 211.814C142.617 212.745 142.86 220.311 136.791 221.201C136.63 221.201 136.63 221.484 136.791 221.524C145.692 222.86 145.934 211.531 138.612 209.225C138.005 202.589 126.556 201.092 122.025 204.41C116.402 208.537 118.627 216.103 123.724 218.854L123.724 218.773Z" fill="#C6BDBA"/>
</g>
<g style="mix-blend-mode:screen" opacity="0.57">
<path d="M60.5735 193.041C63.2031 195.428 66.925 195.307 69.7165 193.243C71.4965 191.908 72.5483 190.087 72.9933 188.105C73.6002 188.105 74.2879 187.983 75.0161 187.579C77.7266 186.082 79.547 182.076 80.1134 179.163C80.6798 176.169 79.7089 171.921 77.0389 170.181C73.9238 168.158 72.6696 171.274 72.1842 173.822C72.1437 174.146 72.5888 174.389 72.7506 174.065C74.1666 171.071 75.542 171.961 76.4724 174.348C77.0388 175.845 77.2411 177.302 76.8365 178.88C76.5129 180.094 75.9061 181.307 75.2183 182.359C74.9352 182.804 74.3283 183.856 73.8024 184.099C73.3978 184.261 73.2764 184.261 73.1551 184.099C73.0742 183.695 72.9933 183.29 72.9123 182.885C72.3864 180.498 68.7859 181.51 69.2714 183.897C70.485 189.602 63.5268 193.931 61.7467 186.85C60.4117 181.388 64.2145 178.03 66.6418 173.782C67.2891 172.649 66.2372 171.597 65.1045 171.759C56.6897 173.094 55.0311 187.902 60.614 192.96L60.5735 193.041Z" fill="#C6BDBA"/>
</g>
<g style="mix-blend-mode:screen" opacity="0.57">
<path d="M119.719 125.676C122.389 126.525 126.152 125.554 127.568 122.965C128.781 120.739 127.689 118.029 125.585 116.774C123.158 115.277 120.205 116.046 118.263 117.988C118.061 118.19 117.939 118.474 117.818 118.717C117.211 118.352 116.321 118.393 115.957 119.162C114.662 121.994 117.009 124.826 119.679 125.716L119.719 125.676Z" fill="#C6BDBA"/>
</g>
<g style="mix-blend-mode:screen" opacity="0.57">
<path d="M202.572 69.8815C202.896 70.5288 203.948 71.4189 204.595 71.5807C204.797 71.5807 204.959 71.5807 205.121 71.5807C205.242 71.7021 205.323 71.8236 205.444 71.945C205.849 72.3496 206.496 72.0258 206.496 71.4998C206.496 71.2166 206.496 70.9334 206.537 70.6502C206.658 70.4075 206.698 70.1647 206.698 69.8815C206.698 68.9914 206.537 68.1822 205.849 67.5753C205.121 66.9684 203.948 66.8066 203.179 67.373C202.896 67.5753 202.613 67.9394 202.572 68.344C202.329 68.8295 202.289 69.396 202.532 69.8815L202.572 69.8815Z" fill="#C6BDBA"/>
</g>
<g style="mix-blend-mode:screen" opacity="0.57">
<path d="M192.094 71.9046C192.094 72.7542 192.782 73.1588 193.51 73.1183C194.238 73.1588 194.926 72.7542 194.926 71.9046C195.25 70.8931 194.926 69.558 194.036 69.032C193.753 68.8297 193.308 68.8297 193.025 69.032C192.175 69.558 191.811 70.8931 192.135 71.9046L192.094 71.9046Z" fill="#C6BDBA"/>
</g>
<g style="mix-blend-mode:screen" opacity="0.57">
<path d="M190.799 61.9112C191.325 62.3562 191.973 62.599 192.539 62.9227C192.944 63.2868 193.308 63.6914 193.712 64.0555C194.279 64.5815 195.047 64.7838 195.775 64.5815C196.14 64.5815 196.463 64.5815 196.827 64.4601C198.122 64.0555 198.405 62.5989 197.596 61.5874C197.556 61.5065 197.475 61.4661 197.394 61.3852C197.313 61.1424 197.191 60.8997 197.03 60.6569C196.382 59.8477 195.614 59.4836 194.683 59.0386C194.643 59.0386 194.562 59.0385 194.521 58.9981C194.36 58.8767 194.157 58.7552 193.996 58.6743C193.631 58.5125 193.227 58.4316 192.863 58.4316C191.932 58.1888 190.961 58.1484 190.274 58.8362C189.303 59.7668 189.95 61.1829 190.799 61.9517L190.799 61.9112Z" fill="#C6BDBA"/>
</g>
<g style="mix-blend-mode:screen" opacity="0.57">
<path d="M29.6251 64.0958C31.041 71.8641 41.3166 74.3725 47.2636 70.7311C48.275 70.1242 47.385 68.5868 46.3332 69.1128C34.8843 73.361 33.5492 68.3036 42.3685 53.9809C45.9286 54.1427 49.0031 55.2756 51.6732 57.3795C52.6441 58.0269 53.4938 56.813 53.1297 55.9229C55.7188 45.1202 59.2788 42.1667 63.8098 46.9814C64.4167 47.4669 65.3876 47.386 65.6304 46.4959C67.37 39.5773 75.2183 47.6691 76.8365 49.4493C77.6861 50.3799 79.2638 49.1662 78.576 48.1142C69.3522 34.0343 85.9795 19.0238 98.8848 15.6252C118.667 10.4463 124.453 29.0981 115.795 43.3804C115.714 43.5018 115.916 43.6636 115.997 43.5423C129.631 26.1446 116.2 6.31948 94.7987 14.7755C85.3322 18.5383 73.9642 27.5607 73.3169 38.6062C73.236 39.7795 73.2765 42.1667 73.7215 43.5828C71.901 42.2071 69.7569 41.0338 67.5723 41.1552C65.2259 41.317 64.9831 43.6636 62.9603 43.5423C58.9552 43.2186 58.1056 38.0398 53.0487 40.3864C48.8413 42.3285 49.6505 46.6577 48.9628 50.1777C48.9223 50.4609 49.1246 52.403 49.6101 53.4549C47.9109 52.848 44.7149 52.0388 45.1599 52.1197C38.0802 50.825 28.0473 55.316 29.5846 64.0148L29.6251 64.0958Z" fill="#C6BDBA"/>
</g>
<g style="mix-blend-mode:screen" opacity="0.57">
<path d="M72.4267 243.21C73.4786 243.21 73.7618 241.471 72.6695 241.309C68.8262 240.702 68.9072 236.251 70.6063 233.257C72.6696 229.616 77.6455 228.766 81.327 229.535C82.3788 229.737 83.2284 228.928 82.9857 227.876C82.662 226.42 80.3156 217.033 85.6153 219.906C86.4648 220.351 87.8807 219.825 87.7189 218.692C87.4762 216.79 86.2221 205.3 92.169 209.912C93.2209 210.721 94.5559 209.993 94.3537 208.617C93.4636 202.549 96.5786 195.792 100.098 190.977C102.242 188.064 109.767 179.284 112.68 189.44C112.68 189.561 112.882 189.521 112.842 189.399C111.871 183.533 108.23 182.4 103.173 185.434C96.5787 189.359 92.6545 198.988 91.8858 206.635C85.8984 203.358 84.4016 210.317 84.6847 216.426C82.136 215.536 80.4774 216.224 79.3042 219.582C78.7783 221.12 80.5178 225.165 79.8705 226.339C79.7492 226.582 77.1196 226.217 74.8946 226.946C68.1385 229.171 61.3824 242.887 72.3862 243.13L72.4267 243.21Z" fill="#C6BDBA"/>
</g>
<g style="mix-blend-mode:screen" opacity="0.57">
<path d="M104.994 109.734C105.236 110.705 106.531 110.381 106.652 109.491C107.259 104.474 112.073 93.9143 117.09 104.272C117.535 105.203 118.91 104.879 119.153 103.989C120.852 98.1626 129.995 97.9198 128.134 105.081C127.932 105.85 128.62 106.538 129.388 106.335C144.478 102.451 149.211 122.762 139.138 131.178C139.057 131.218 139.138 131.339 139.219 131.299C151.881 122.924 145.57 101.925 130.4 104.07C131.249 96.625 121.621 95.2495 117.939 101.238C112.518 93.5906 102.728 100.631 104.994 109.694L104.994 109.734Z" fill="#C6BDBA"/>
</g>
<g style="mix-blend-mode:screen" opacity="0.57">
<path d="M161.469 83.6786C163.978 81.6151 174.132 81.4937 169.763 85.5397C169.075 86.187 169.682 87.1581 170.45 87.239C177.206 87.9268 181.94 92.4988 179.836 99.4983C178.258 104.677 173.08 108.561 169.196 102.978C168.751 102.371 167.74 102.937 168.144 103.585C172.19 109.815 178.582 106.943 181.09 100.995C184.367 93.1866 179.634 87.1985 172.352 85.5802C175.952 80.199 163.775 77.5691 160.215 82.7074C159.649 83.5166 160.822 84.2045 161.469 83.6786Z" fill="#C6BDBA"/>
</g>
<g style="mix-blend-mode:screen" opacity="0.57">
<path d="M84.8061 39.8203C89.8226 44.4731 98.6824 36.7048 101.029 32.3756C101.393 31.7283 101.029 31 100.381 30.7573C96.6596 29.3412 92.9782 31.1619 91.0768 34.5605C90.5913 35.4101 91.724 36.2598 92.4118 35.6125C94.1918 33.9132 95.9314 32.4161 98.2779 32.578C95.5673 36.1384 88.8922 41.8028 85.7771 37.7568C81.327 31.9306 92.2499 27.3991 96.0527 26.4685C102.485 24.8906 110.981 28.0061 105.843 35.653C101.15 42.6525 92.4118 44.8372 84.7658 46.577C84.6444 46.577 84.6848 46.7389 84.7658 46.7389C93.14 47.548 107.866 41.4386 109.201 31.8901C110.414 23.1104 98.7229 23.3532 93.2209 25.2143C88.164 26.9136 78.0906 33.6703 84.7658 39.8607L84.8061 39.8203Z" fill="#C6BDBA"/>
</g>
<g style="mix-blend-mode:screen" opacity="0.57">
<path d="M233.52 114.549C233.197 115.439 232.873 116.45 233.237 117.34C233.642 118.392 234.855 119.04 235.745 119.687C236.312 120.092 237.161 119.687 237.283 119.04C237.647 117.664 238.011 116.167 237.526 114.792C237.526 114.468 237.526 114.185 237.404 113.901C237.081 113.092 236.393 112.243 235.543 111.959C235.22 111.838 234.896 111.878 234.572 111.959C234.168 111.838 233.804 111.757 233.44 111.878C231.821 112.324 232.711 113.78 233.52 114.549Z" fill="#C6BDBA"/>
</g>
<g style="mix-blend-mode:screen" opacity="0.57">
<path d="M215.72 103.018C215.72 103.018 215.882 102.856 215.963 102.775C216.084 102.775 216.246 102.775 216.286 102.573C216.448 101.764 216.651 101.035 216.61 100.186C216.57 99.4576 215.558 99.0934 215.154 99.7812C214.992 100.105 214.871 100.429 214.709 100.793C214.385 100.955 214.142 101.238 214.102 101.723C214.102 101.845 214.102 101.966 214.102 102.087C214.183 102.937 214.951 103.382 215.72 103.018Z" fill="#C6BDBA"/>
</g>
<g style="mix-blend-mode:screen" opacity="0.57">
<path d="M249.662 96.0184C250.309 97.7582 251.847 98.6888 253.546 99.2148C254.557 99.498 255.569 98.6888 255.569 97.6773C255.569 96.8681 255.528 96.0184 255.245 95.2497C255.245 95.2092 255.245 95.1688 255.245 95.0878C254.881 93.1458 253.95 92.0939 252.737 90.6374C252.13 89.9091 250.754 90.1113 250.35 90.961C249.581 92.5389 249.015 94.3191 249.662 96.0184Z" fill="#C6BDBA"/>
</g>
<g style="mix-blend-mode:overlay" opacity="0.57">
<path d="M262.932 186.001C261.394 174.105 255.447 163.586 243.149 157.638C226.845 149.789 206.739 154.28 196.463 169.048C194.117 164.031 192.539 159.58 186.39 159.176C176.923 158.569 178.582 165.73 175.022 171.395C162.643 127.82 99.8556 154.24 111.102 194.78C102.728 191.624 93.221 205.138 97.9138 212.623C91.4005 209.669 90.1058 217.721 91.4813 222.617C87.3144 222.981 82.0553 227.229 82.9858 231.396C76.2702 230.021 71.4559 235.442 69.9995 241.552C68.9072 246.164 70.4041 251.343 72.5482 256.036C91.6027 266.272 113.408 272.099 136.589 272.099C194.036 272.099 243.068 236.373 262.851 185.96L262.932 186.001Z" fill="#C6BDBA"/>
</g>
<g style="mix-blend-mode:overlay" opacity="0.57">
<path d="M176.438 257.007C184.488 261.66 205.323 244.95 212.119 239.893C225.065 230.264 237.728 213.473 239.993 196.884C241.612 185.192 232.024 173.661 219.28 173.863C204.352 174.106 185.823 196.48 185.581 210.317C179.512 205.057 170.208 197.896 166.203 210.317C148.119 195.873 129.469 237.87 139.906 240.095C130.116 235.2 117.575 251.95 119.8 260.892C124.776 280.798 169.965 264.128 176.438 256.926L176.438 257.007Z" fill="#C6BDBA"/>
</g>
<g opacity="0.34">
<path d="M136.63 0.817003C61.7061 0.816997 0.98248 61.5469 0.982474 136.478C0.98247 177.868 19.5515 214.929 48.8008 239.812C47.1017 234.876 29.2204 206.797 42.1257 154.523C57.6606 91.6488 125.626 55.9231 201.237 76.1124C247.801 88.5335 267.422 114.751 271.306 120.497C263.377 53.1314 206.132 0.81701 136.63 0.817003Z" fill="#542B24"/>
</g>
<g opacity="0.34">
<path d="M8.14321 179.972C10.8133 174.348 12.2696 167.106 13.8069 162.251C17.4075 150.841 21.4531 139.674 25.2154 128.305C33.5088 103.139 51.026 77.0024 75.5015 65.5524C89.0541 59.2002 101.555 49.3685 115.916 44.9179C128.215 41.1147 141.403 40.0224 153.904 37.0284C172.473 32.6183 185.298 26.3065 204.676 29.867C214.466 31.6876 222.921 34.7626 230.608 38.6467C223.69 31.9709 216.044 26.0234 207.831 20.9659C203.867 19.5094 199.902 18.2147 195.978 17.0413C174.86 10.851 154.471 10.5273 132.989 15.9085C101.959 23.7172 64.174 41.5599 40.993 64.0959C23.314 81.2912 11.6628 100.874 3.81445 124.178C3.00534 126.525 2.03435 130.126 1.10388 134.374C1.10388 135.062 1.06351 135.75 1.06351 136.438C1.06351 151.65 3.61215 166.256 8.22407 179.932L8.14321 179.972Z" fill="#542B24"/>
</g>
<g style="mix-blend-mode:screen" opacity="0.31">
<path d="M158.557 222.86C149.454 224.842 142.617 235.604 140.352 243.979C136.872 256.724 142.658 261.296 154.673 260.892C159.77 260.73 164.058 260.689 168.67 258.1C172.392 255.996 175.184 251.019 178.906 249.401C183.194 247.499 188.817 249.199 193.51 246.731C199.578 243.534 199.578 240.905 202.167 234.755C225.308 245.962 247.68 201.578 233.359 184.382C224.054 173.216 202.693 179.487 192.054 185.718C182.102 191.544 173.201 207.93 171.866 218.773C167.659 214.889 154.835 208.78 158.597 222.819L158.557 222.86Z" fill="#C6BDBA"/>
</g>
<g style="mix-blend-mode:screen" opacity="0.31">
<path d="M174.86 222.091C165.596 220.836 153.54 232.003 164.018 238.396C174.577 244.829 187.563 235.321 193.429 227.391C204.959 234.593 219.28 223.183 219.887 210.196C220.211 203.358 216.448 198.381 209.449 197.289C198.526 195.63 190.88 206.716 182.627 211.976L174.86 222.05L174.86 222.091Z" fill="#C6BDBA"/>
</g>
<g style="mix-blend-mode:multiply" opacity="0.33">
<path d="M161.712 136.964C168.549 148.05 186.592 149.709 193.55 138.056C198.243 130.167 198.648 110.746 187.725 107.509C187.644 107.509 187.563 107.59 187.644 107.671C194.764 113.214 196.706 124.704 193.874 133.16C188.938 147.766 172.271 144.732 163.816 135.426C162.804 134.293 160.943 135.75 161.712 137.045L161.712 136.964Z" fill="#542B24"/>
</g>
<g style="mix-blend-mode:multiply" opacity="0.33">
<path d="M154.511 147.483C156.453 147.564 158.759 147.078 159.891 145.338C161.267 143.194 159.972 140.847 158.395 139.229C158.192 139.027 157.869 139.27 157.99 139.553C158.678 141.009 159.811 143.396 158.476 144.812C157.383 145.986 155.28 145.986 153.823 145.743C152.003 145.419 150.182 144.489 149.009 142.992C147.391 141.009 147.634 138.865 147.189 136.518C147.067 135.992 146.258 135.911 146.015 136.356C143.143 141.859 149.454 147.24 154.511 147.442L154.511 147.483Z" fill="#542B24"/>
</g>
<g style="mix-blend-mode:multiply" opacity="0.33">
<path d="M146.582 132.23C146.784 132.149 146.784 131.825 146.541 131.825C132.26 131.825 109.444 138.016 101.433 122.277C101.029 121.468 99.977 121.953 99.896 122.681C97.9137 140.848 137.277 135.669 146.582 132.189L146.582 132.23Z" fill="#542B24"/>
</g>
<g style="mix-blend-mode:multiply" opacity="0.33">
<path d="M74.9755 191.503C74.7328 191.624 74.7732 191.948 74.9755 192.07C81.0034 196.115 91.6835 191.139 94.2727 184.908C97.9541 176.128 92.4118 161.563 83.7544 157.557C82.9857 157.193 81.8124 158.003 82.4193 158.893C87.5976 165.852 95.5673 174.065 91.5218 183.735C88.2853 191.503 80.8819 188.711 74.935 191.503L74.9755 191.503Z" fill="#542B24"/>
</g>
<g style="mix-blend-mode:multiply" opacity="0.33">
<path d="M66.3586 206.999C71.7391 207.444 74.4092 202.265 71.3346 197.977C71.2942 197.896 71.1323 197.977 71.1728 198.058C71.7796 199.919 72.0224 202.387 70.7278 204.005C68.9882 206.23 65.5091 205.381 63.6481 203.762C60.9781 201.375 60.3307 197.612 58.1461 194.861C57.7011 194.295 56.9325 194.942 57.0539 195.509C58.0652 200.283 60.8162 206.594 66.3991 207.04L66.3586 206.999Z" fill="#542B24"/>
</g>
<g style="mix-blend-mode:multiply" opacity="0.33">
<path d="M128.66 239.65C135.78 238.719 135.092 232.569 138.45 228.362C139.421 230.708 140.432 233.419 143.467 232.731C146.703 232.003 147.957 228.402 148.24 225.246C149.697 226.662 151.517 227.714 153.338 226.298C156.979 223.507 153.419 216.993 151.315 214.565C151.194 214.444 151.032 214.565 151.072 214.727C151.922 216.386 152.569 218.085 153.054 219.865C151.355 224.963 149.697 225.691 148.119 222.09C147.633 221.281 146.298 221.605 146.298 222.576C146.298 224.437 146.056 232.165 140.877 228.24C140.635 228.038 139.866 225.934 139.785 225.732C139.421 225.044 138.531 225.084 138.005 225.489C136.468 226.784 135.78 228.321 135.011 230.142C134.162 232.165 133.595 235.685 131.047 236.332C128.781 235.766 126.516 235.159 124.25 234.592C124.048 233.54 123.886 232.489 123.684 231.437C123.522 230.425 122.147 230.789 122.025 231.679C121.499 236.17 123.684 240.216 128.66 239.569L128.66 239.65Z" fill="#542B24"/>
</g>
<g style="mix-blend-mode:multiply" opacity="0.33">
<path d="M225.429 203.803C232.145 206.068 234.127 199.635 234.855 194.214C237.728 197.37 243.311 197.37 246.83 194.699C252.575 190.37 249.419 181.995 242.38 182.278C241.773 182.278 241.571 183.087 242.097 183.411C255.245 192.029 238.173 199.676 235.098 191.705C234.774 190.856 233.601 190.977 233.52 191.908C233.237 196.641 232.752 205.34 225.308 202.589C219.766 200.525 215.315 191.948 217.662 186.446C217.743 186.284 217.541 186.162 217.46 186.324C213.576 192.069 219.563 201.861 225.429 203.843L225.429 203.803Z" fill="#542B24"/>
</g>
<g style="mix-blend-mode:multiply" opacity="0.33">
<path d="M250.026 173.499C250.026 173.499 250.148 173.782 250.269 173.661C256.418 166.459 266.289 142.385 252.98 137.085C252.575 136.923 252.413 137.449 252.616 137.733C260.423 147.847 257.066 163.505 250.026 173.499Z" fill="#542B24"/>
</g>
<g style="mix-blend-mode:multiply" opacity="0.33">
<path d="M181.454 256.319C183.558 260.001 186.268 260.446 189.909 258.18C192.66 256.481 193.51 253.892 195.371 251.545C196.949 249.562 197.636 249.684 199.457 248.146C202.815 245.233 204.554 241.592 209.085 239.771C211.513 238.8 213.455 239.286 215.356 237.303C220.817 231.679 214.749 229.049 225.308 223.587C228.787 221.807 231.295 221.645 234.208 218.773C234.774 218.206 234.208 217.478 233.52 217.559L231.053 217.923C230.769 217.923 230.81 218.409 231.053 218.449C230.567 218.368 220.898 223.061 219.644 224.113C217.338 226.055 217.176 228.119 215.922 230.708C211.755 239.407 211.068 235.563 205.202 238.881C201.965 240.742 199.821 247.135 195.492 246.649C195.088 246.609 194.562 247.013 194.481 247.418C193.955 250.088 187.927 262.348 182.992 255.348C182.344 254.418 180.807 255.227 181.414 256.279L181.454 256.319Z" fill="#542B24"/>
</g>
<g style="mix-blend-mode:multiply" opacity="0.33">
<path d="M141.363 265.787C141.889 265.625 142.253 265.059 142.091 264.533C141.039 261.013 140.756 257.452 140.068 253.892C139.704 251.91 139.219 251.545 140.797 250.21C142.172 249.037 142.455 249.441 144.033 249.158C144.883 248.996 145.57 248.875 146.339 248.39C148.888 246.771 150.02 241.795 145.732 242.604C145.651 242.604 145.651 242.725 145.732 242.766C146.379 246.002 145.489 247.54 143.022 247.338C142.334 247.338 141.687 247.418 140.999 247.499C140.554 247.58 140.028 247.621 139.623 247.823C138.45 248.39 137.884 249.077 137.641 250.332C137.277 252.395 138.288 254.863 138.572 256.846C138.895 259.273 139.219 261.579 139.785 263.926C136.832 263.521 136.104 256.643 134.647 254.984C134.283 254.58 133.515 254.782 133.393 255.308C132.544 258.95 136.751 267.365 141.322 265.828L141.363 265.787Z" fill="#542B24"/>
</g>
<g style="mix-blend-mode:multiply" opacity="0.33">
<path d="M90.0655 70.9337C94.637 72.8353 96.498 68.6274 98.9253 65.7548C101.272 67.7777 103.982 69.4771 107.178 68.3442C110.415 67.2114 112.64 63.8128 114.258 60.9402C115.593 58.5935 119.598 49.1664 113.125 51.0275C112.842 51.1084 112.842 51.513 113.125 51.5939C117.292 52.8481 113.408 58.6744 112.114 60.7378C111.466 61.7898 110.779 62.8013 109.929 63.6914C106.612 67.2114 102.971 66.3213 99.7343 63.2059C99.2489 62.7204 98.5207 62.7608 98.0353 63.2059C97.1453 64.0151 96.0933 66.2403 95.1629 66.8067C93.3019 66.8877 91.4814 66.9686 89.6205 67.0495C89.3777 66.4831 89.1755 65.8762 88.9328 65.3098C88.6092 64.2578 88.8923 62.518 89.0137 61.3852C89.135 60.2928 87.6382 60.1309 87.1528 60.8997C84.9277 64.1364 86.4245 69.4367 90.1464 70.9337L90.0655 70.9337Z" fill="#542B24"/>
</g>
<g style="mix-blend-mode:multiply" opacity="0.33">
<path d="M152.933 108.925C156.898 110.26 159.406 107.347 159.77 103.949C162.926 104.434 165.029 101.885 165.717 98.2844C166.364 94.9262 167.174 87.9671 163.978 85.6205C163.613 85.3373 163.007 85.6205 162.926 86.0656C162.319 88.7359 165.029 103.827 158.961 100.631C157.828 100.024 156.493 101.036 156.817 102.29C157.505 105.001 155.725 107.307 152.893 106.093C151.072 105.324 150.425 104.03 149.697 102.168C149.13 100.671 148.604 99.0127 148.281 97.4347C148.281 97.2324 147.917 97.2324 147.876 97.4347C146.824 101.602 148.402 107.388 152.933 108.925Z" fill="#542B24"/>
</g>
<g style="mix-blend-mode:multiply" opacity="0.33">
<path d="M140.999 96.7871C141.808 97.6368 142.941 98.2436 144.114 98.2841C145.166 98.3246 146.865 97.7582 147.108 96.5849C147.148 96.3017 146.946 96.0993 146.663 96.1398C145.854 96.3016 145.328 96.8275 144.397 96.7466C143.709 96.6657 143.062 96.342 142.536 95.8565C142.253 95.5733 141.727 95.0069 141.848 94.5214C142.01 93.9954 142.941 93.874 143.386 93.7527C143.669 93.6717 143.993 93.429 144.033 93.1053C144.033 92.9434 144.114 92.7816 144.033 92.6198C143.912 92.2152 143.548 91.9319 143.143 91.9319C140.311 91.9319 139.057 94.7237 140.999 96.7871Z" fill="#542B24"/>
</g>
<g style="mix-blend-mode:multiply" opacity="0.33">
<path d="M88.7709 48.0739C94.0705 46.6173 100.139 46.7792 104.751 43.4211C108.311 40.8316 111.628 36.0575 112.316 31.7283C112.437 31 111.669 30.474 111.062 30.9999C107.745 34.0344 106.693 38.6468 103.011 41.479C98.6824 44.7966 92.9377 44.473 88.5685 47.5884C88.3258 47.7502 88.4472 48.1548 88.7709 48.0739Z" fill="#542B24"/>
</g>
<g style="mix-blend-mode:multiply" opacity="0.33">
<path d="M89.499 42.4903C93.2209 42.9354 96.9833 42.0049 99.8556 39.5369C102.162 37.5948 105.034 33.0633 103.052 30.1502C102.89 29.867 102.526 29.867 102.323 30.1502C101.474 31.4045 101.514 32.9823 100.988 34.3984C100.422 35.9359 99.4915 37.3115 98.2374 38.3635C95.7696 40.4674 92.4927 41.398 89.4585 42.2881C89.3372 42.2881 89.3776 42.4903 89.4585 42.4903L89.499 42.4903Z" fill="#542B24"/>
</g>
<g style="mix-blend-mode:multiply" opacity="0.33">
<path d="M86.3435 38.1611C86.3435 38.1611 86.5053 38.1611 86.4648 38.0801C85.0084 34.3983 88.6898 32.0112 91.6026 30.6356C93.0995 29.9478 94.6774 29.3004 96.2551 28.734C97.1856 28.4103 98.561 28.1271 99.1274 27.237C99.3297 26.9133 99.2083 26.3065 98.8442 26.1446C97.5496 25.5377 95.81 26.5492 94.6368 27.0347C92.4927 27.9248 90.4699 29.0577 88.609 30.4333C86.1817 32.2136 83.2285 35.5717 86.384 38.1206L86.3435 38.1611Z" fill="#542B24"/>
</g>
<g style="mix-blend-mode:multiply" opacity="0.33">
<path d="M91.7241 49.4901C98.116 53.6574 108.473 47.5885 113.287 43.3402C118.667 38.566 123.32 29.5031 116.604 23.7578C116.281 23.4746 115.593 23.7578 115.795 24.2433C121.499 39.2943 104.387 48.2763 91.805 49.1664C91.6432 49.1664 91.5622 49.4091 91.7241 49.4901Z" fill="#542B24"/>
</g>
<g style="mix-blend-mode:multiply" opacity="0.33">
<path d="M140.999 58.7958C144.033 57.0155 149.009 46.3341 153.095 49.7327C153.783 50.2992 154.835 50.1373 155.118 49.2067C156.493 44.5943 158.799 40.5889 164.584 42.6119C167.012 43.4616 168.185 44.8371 170.167 46.3341C170.208 46.3746 170.288 46.2937 170.248 46.2533C167.902 42.3287 165.515 39.1324 160.336 40.0629C156.331 40.7912 154.47 43.6638 153.216 47.1029C147.755 44.918 141.242 53.4551 140.109 58.1484C139.987 58.6339 140.513 59.079 140.958 58.7958L140.999 58.7958Z" fill="#542B24"/>
</g>
<g style="mix-blend-mode:multiply" opacity="0.33">
<path d="M112.72 68.7083C113.934 71.9451 116.2 72.2688 118.951 70.003C121.257 68.061 121.904 65.2287 122.349 62.3561C122.47 61.5469 122.956 56.1658 124.25 55.8017C124.736 55.6803 125.626 57.582 126.394 57.2583C129.186 56.1254 130.561 55.559 129.874 51.7153C129.388 49.0855 128.377 47.6693 128.458 44.7158C128.539 41.8027 128.903 40.1034 130.319 37.6353C133.07 32.7802 138.774 27.1158 144.073 32.7801C144.235 32.942 144.478 32.7397 144.397 32.5374C139.057 22.7866 128.579 33.5085 126.314 40.3057C125.059 44.028 126.111 46.2937 126.435 49.9351C127.123 58.3102 126.192 51.7153 124.048 52.6863C123.158 53.0909 122.228 53.1719 121.378 54.1024C120.609 54.9925 120.528 56.4086 120.245 57.501C120.164 58.1484 120.083 58.7957 119.962 59.443C120.488 63.4081 118.829 66.1594 115.026 67.7373C114.339 66.5235 112.235 67.3327 112.72 68.7083Z" fill="#542B24"/>
</g>
<g style="mix-blend-mode:multiply" opacity="0.33">
<path d="M31.3646 218.287C33.0637 217.964 34.6819 216.547 35.8551 215.334C37.3115 213.837 38.6061 212.056 39.577 210.155C40.1434 209.022 41.2762 207.039 40.3457 205.826C40.103 205.542 39.658 205.381 39.3748 205.704C38.6871 206.473 38.5251 207.687 38.1206 208.658C37.4328 210.236 36.5024 211.692 35.4101 213.027C34.4797 214.16 33.3874 215.415 32.1333 216.224C31.2837 216.79 29.9891 216.75 29.2609 217.316C29.2609 217.316 29.18 217.397 29.18 217.438C29.3013 218.328 30.6768 218.409 31.3646 218.287Z" fill="#542B24"/>
</g>
<g style="mix-blend-mode:multiply" opacity="0.33">
<path d="M210.744 110.908C212.848 113.133 215.113 113.983 217.419 113.335C217.217 119 220.696 124.138 225.996 121.184C229.192 128.184 242.259 125.028 249.015 121.589C248.368 124.988 247.801 129.398 250.512 130.571C254.517 132.311 255.569 124.057 256.378 122.317C255.852 122.965 253.91 126.242 253.465 126.444C250.107 127.901 251.806 121.67 252.211 119.323C252.373 118.312 251.28 117.058 250.269 117.826C246.385 120.659 229.596 126.566 228.261 118.595C228.059 117.422 226.603 117.341 225.874 117.948C220.534 118.231 218.795 116.006 220.696 111.191C221.101 109.694 219.361 108.925 218.269 109.775C211.756 107.671 209.611 103.827 211.877 98.3248C212.403 96.5446 212.969 94.8048 213.657 93.1055C214.102 91.8917 212.281 91.2039 211.634 92.2559C208.438 97.3538 206.173 105.891 210.825 110.908L210.744 110.908Z" fill="#542B24"/>
</g>
<g style="mix-blend-mode:screen" opacity="0.57">
<path d="M113.732 224.68C114.46 228.685 116.928 231.679 121.014 229.495C121.783 229.09 121.459 227.714 120.569 227.795C110.738 228.604 118.587 209.184 121.459 206.109C126.394 200.849 133.11 201.456 139.462 203.236C146.177 205.178 149.211 208.698 152.65 214.403C152.772 214.605 153.055 214.403 152.974 214.201C149.252 205.583 144.276 202.022 134.769 200.323C127.851 199.069 122.187 200.93 118.101 206.797C114.743 211.652 112.721 218.732 113.813 224.639L113.732 224.68Z" fill="#C6BDBA"/>
</g>
<g style="mix-blend-mode:screen" opacity="0.57">
<path d="M209.611 179.325C210.42 179.648 210.906 178.354 210.178 177.949C195.695 169.655 204.918 146.714 219.199 158.973C219.644 159.378 220.332 159.338 220.656 158.771C222.598 158.367 224.499 158.002 226.441 157.598C226.805 158.205 227.897 158.164 228.059 157.396C229.475 151.043 231.619 144.691 235.422 139.35C245.859 124.745 260.626 135.021 262.568 148.697C262.203 138.541 253.95 125.837 242.299 130.692C236.433 133.12 232.671 139.553 230.163 144.974C229.273 146.876 228.221 153.592 226.805 154.523C226.886 154.482 224.013 153.552 224.378 153.35C222.719 154.199 220.211 155.898 218.512 155.939C213.981 156.06 210.906 152.945 205.647 155.089C192.458 160.47 199.619 175.117 209.53 179.244L209.611 179.325Z" fill="#C6BDBA"/>
</g>
<g style="mix-blend-mode:screen" opacity="0.57">
<path d="M164.908 76.2336C177.692 67.6966 187.361 83.7995 192.296 93.2266L192.377 93.2266C189.343 81.8574 177.409 64.9048 163.897 74.4937C162.845 75.222 163.816 77.0023 164.908 76.2336Z" fill="#C6BDBA"/>
</g>
<g style="mix-blend-mode:screen" opacity="0.57">
<path d="M124.372 91.4063C124.453 91.8514 125.1 91.8109 125.221 91.4063C126.071 88.21 125.585 84.609 127.244 81.5745C129.186 78.095 132.867 78.6615 135.133 81.2914C135.214 81.3723 135.416 81.3318 135.457 81.2104C136.063 77.0835 130.157 76.679 127.689 78.3783C124.089 80.8059 123.563 87.5221 124.372 91.3658L124.372 91.4063Z" fill="#C6BDBA"/>
</g>
<g style="mix-blend-mode:screen" opacity="0.57">
<path d="M132.018 72.1877C135.982 79.2682 143.143 75.1412 143.952 68.7081C148.402 69.0318 156.372 66.321 152.771 60.9803C152.771 60.9399 152.65 60.9803 152.65 60.9803C152.569 66.1187 147.957 68.2631 143.345 66.6852C142.738 66.4829 142.132 67.0089 142.132 67.6158C142.132 69.8815 141.565 72.4708 139.381 73.6037C136.832 74.9389 134.769 73.2397 132.989 71.419C132.503 70.893 131.694 71.5404 132.018 72.1877Z" fill="#C6BDBA"/>
</g>
<g style="mix-blend-mode:screen" opacity="0.57">
<path d="M93.4232 115.439C93.4637 115.844 94.0301 115.682 94.0705 115.358C94.8796 109.047 95.0415 102.856 99.2893 97.6774C103.052 93.065 110.819 89.5854 116.968 90.6778C117.171 90.6778 117.251 90.4351 117.049 90.3542C102.283 86.5105 91.4814 102.249 93.4232 115.439Z" fill="#C6BDBA"/>
</g>
<g style="mix-blend-mode:screen" opacity="0.57">
<path d="M51.1472 182.966C51.1877 183.29 51.7136 183.29 51.7945 182.966C52.4823 178.839 51.8755 173.054 55.2333 169.898C56.7301 168.482 59.3193 168.522 60.5329 166.863C62.3939 164.274 61.7062 161.199 61.9489 158.245C62.0703 156.748 62.3535 155.292 62.7581 153.876C65.1045 152.419 67.4509 150.963 69.7973 149.506C73.7619 149.263 76.0274 154.968 77.3624 157.76C77.4433 157.922 77.7266 157.841 77.6861 157.679C77.0793 148.616 64.2144 142.669 61.1802 153.471C60.2498 156.748 61.5443 161.604 60.1284 164.476C58.8338 167.106 56.1233 167.066 54.2219 168.886C50.6618 172.325 50.4595 178.435 51.1877 183.007L51.1472 182.966Z" fill="#C6BDBA"/>
</g>
<g style="mix-blend-mode:screen" opacity="0.57">
<path d="M176.397 252.071C178.339 243.251 189.06 232.367 198.931 237.991C199.295 238.194 199.7 237.991 199.821 237.627C203.745 235.442 207.669 233.217 211.634 231.032C211.917 231.154 212.241 230.911 212.322 230.628C214.102 225.53 224.135 208.092 233.399 215.577C233.52 215.698 233.682 215.536 233.561 215.415C229.92 211.126 223.406 214.525 219.685 217.276C215.841 220.149 214.466 225.975 210.784 228.119C208.438 229.454 206.092 228.564 203.543 230.061C200.954 231.599 200.468 234.916 197.475 235.806C194.44 236.697 191.487 234.876 187.765 236.494C181.616 239.124 176.033 245.193 175.629 252.031C175.629 252.476 176.276 252.557 176.397 252.152L176.397 252.071Z" fill="#C6BDBA"/>
</g>
<g style="mix-blend-mode:screen" opacity="0.57">
<path d="M164.584 186.729C167.376 186.122 168.67 184.908 171.502 187.983C171.866 188.347 172.473 188.266 172.756 187.821C173.485 185.839 175.103 185.272 177.611 186.122C177.935 187.093 179.391 186.688 179.148 185.717C175.75 170.788 190.355 155.454 204.352 153.471C204.393 153.471 204.393 153.39 204.352 153.35C190.84 151.205 177.935 167.875 177.085 180.013C177.004 180.943 177.045 181.833 177.085 182.764C176.478 182.602 175.952 182.359 174.901 182.764C174.051 183.087 173.727 184.18 173.04 184.544C170.41 185.92 172.554 184.827 170.369 184.827C168.144 184.827 166.728 184.746 164.18 185.313C163.209 185.515 163.613 187.052 164.584 186.81L164.584 186.729Z" fill="#C6BDBA"/>
</g>
<g style="mix-blend-mode:screen" opacity="0.57">
<path d="M131.896 161.442C133.838 158.69 137.196 155.575 140.958 157.396C142.496 158.124 143.264 159.904 144.276 161.158C145.247 162.372 145.975 163.384 147.512 163.829C147.836 163.91 148.281 163.788 148.443 163.465C150.385 159.338 155.28 164.8 156.493 166.661C156.574 166.823 156.857 166.701 156.777 166.54C155.927 164.112 153.904 161.401 151.355 160.592C150.142 160.228 149.575 160.592 148.443 160.754C148.16 160.794 147.755 161.644 147.512 161.644C146.258 161.563 145.692 159.702 145.125 158.893C143.264 156.182 141.484 154.199 137.924 154.523C134.283 154.847 131.006 157.396 130.804 161.118C130.804 161.725 131.573 161.806 131.856 161.401L131.896 161.442Z" fill="#C6BDBA"/>
</g>
<g style="mix-blend-mode:screen" opacity="0.57">
<path d="M78.4547 238.355C81.9743 232.61 95.2438 222.455 102.688 223.79C103.375 223.911 104.184 223.345 103.901 222.576C102.607 219.096 101.798 215.091 102.04 211.369C102.121 210.357 104.184 200.809 106.409 204.248C107.097 205.34 108.715 204.369 108.149 203.236C104.468 196.075 119.153 197.531 122.228 197.005C122.753 196.925 122.753 196.034 122.228 195.953C117.211 195.225 113.246 193.688 108.715 196.925C106.935 198.219 105.884 199.433 105.681 200.89C101.757 199.797 99.9366 212.542 100.26 215.536C100.422 217.276 101.474 220.553 100.867 221.484C100.867 221.443 93.7065 224.235 92.9783 224.68C86.7482 228.24 79.8706 230.708 77.2006 237.87C76.9174 238.638 78.0501 239.043 78.4547 238.396L78.4547 238.355Z" fill="#C6BDBA"/>
</g>
<g style="mix-blend-mode:screen" opacity="0.57">
<path d="M141.282 182.845C141.848 184.14 143.588 184.261 144.64 183.735C146.137 183.007 147.027 181.752 147.35 180.336C147.431 180.175 147.512 180.053 147.553 179.891C147.715 179.487 147.674 179.123 147.553 178.759C147.674 177.99 147.674 177.262 147.553 176.493C147.35 175.36 145.773 174.389 144.68 174.874C141.363 176.25 139.785 179.487 141.282 182.885L141.282 182.845Z" fill="#C6BDBA"/>
</g>
<g style="mix-blend-mode:screen" opacity="0.57">
<path d="M134.121 173.903C135.092 173.903 135.092 172.406 134.121 172.406C133.15 172.406 133.15 173.903 134.121 173.903Z" fill="#C6BDBA"/>
</g>
<g style="mix-blend-mode:screen" opacity="0.57">
<path d="M89.9036 247.135C91.2386 253.002 96.8214 260.244 103.011 261.458C108.958 262.631 114.339 255.996 113.61 250.413C113.61 250.332 113.489 250.332 113.489 250.413C113.894 253.892 112.073 257.412 109.201 259.354C104.629 262.47 100.705 260.406 97.2665 257.291C94.4346 254.742 92.0882 251.91 90.9555 248.268C89.6609 244.06 89.944 239.367 92.614 235.726C95.9314 231.194 101.555 229.819 105.641 234.026C108.068 236.535 109.484 240.338 109.646 243.818C109.848 247.904 107.299 259.395 99.8961 252.071C97.7115 249.927 96.0528 240.621 99.5724 238.679C102.121 237.263 105.56 242.037 104.346 244.222C102 248.39 101.555 244.222 101.069 242.927C100.908 242.482 100.26 242.644 100.382 243.13C100.786 245.072 101.636 250.089 104.468 247.58C106.733 245.598 105.236 238.558 102.768 237.223C95.7696 233.581 94.1514 254.337 103.294 256.077C107.785 256.927 109.808 250.817 110.455 247.459C111.426 242.604 109.929 236.818 106.409 233.258C103.132 229.94 98.7633 229.657 94.9605 232.246C90.1463 235.564 88.6494 241.633 89.8631 247.135L89.9036 247.135Z" fill="#C6BDBA"/>
</g>
</svg>
